<svg width="600" height="150" xmlns="http://www.w3.org/2000/svg">
    <defs>
        <linearGradient id="areaGrad" x1="0%" y1="0%" x2="0%" y2="100%">
            <stop offset="0%" style="stop-color:#4facfe;stop-opacity:0.4" />
            <stop offset="100%" style="stop-color:#4facfe;stop-opacity:0" />
        </linearGradient>
    </defs>
    
    <!-- Area -->
    <polygon points="40,120 40.0,100.35483870967742 57.93103448275862,98.72727272727273 75.86206896551724,87.7741935483871 93.79310344827587,82.67155425219943 111.72413793103448,82.45161290322582 129.6551724137931,77.34897360703813 147.58620689655174,75.32551319648096 165.51724137931035,73.65395894428154 183.44827586206895,72.950146627566 201.3793103448276,72.59824046920824 219.31034482758622,70.61876832844577 237.24137931034483,67.18768328445749 255.17241379310346,64.28445747800588 273.1034482758621,63.88856304985339 291.0344827586207,63.580645161290334 308.9655172413793,63.14076246334312 326.8965517241379,63.00879765395896 344.82758620689657,62.65689149560119 362.7586206896552,62.34897360703814 380.6896551724138,62.17302052785925 398.62068965517244,60.89736070381233 416.55172413793105,60.633431085044 434.48275862068965,60.36950146627568 452.41379310344826,60.14956011730207 470.3448275862069,60.01759530791791 488.2758620689655,58.87390029325515 506.2068965517241,57.64222873900295 524.1379310344828,54.8709677419355 542.0689655172414,54.56304985337246 560.0,54.25513196480941 560,120" fill="url(#areaGrad)" />
    
    <!-- X-Axis -->
    <line x1="40" y1="120" x2="560" y2="120" stroke="#888" stroke-width="2" />
    
    <!-- Growth Line -->
    <polyline points="40.0,100.35483870967742 57.93103448275862,98.72727272727273 75.86206896551724,87.7741935483871 93.79310344827587,82.67155425219943 111.72413793103448,82.45161290322582 129.6551724137931,77.34897360703813 147.58620689655174,75.32551319648096 165.51724137931035,73.65395894428154 183.44827586206895,72.950146627566 201.3793103448276,72.59824046920824 219.31034482758622,70.61876832844577 237.24137931034483,67.18768328445749 255.17241379310346,64.28445747800588 273.1034482758621,63.88856304985339 291.0344827586207,63.580645161290334 308.9655172413793,63.14076246334312 326.8965517241379,63.00879765395896 344.82758620689657,62.65689149560119 362.7586206896552,62.34897360703814 380.6896551724138,62.17302052785925 398.62068965517244,60.89736070381233 416.55172413793105,60.633431085044 434.48275862068965,60.36950146627568 452.41379310344826,60.14956011730207 470.3448275862069,60.01759530791791 488.2758620689655,58.87390029325515 506.2068965517241,57.64222873900295 524.1379310344828,54.8709677419355 542.0689655172414,54.56304985337246 560.0,54.25513196480941" fill="none" stroke="#00f2fe" stroke-width="4" stroke-linecap="round" stroke-linejoin="round" />
    
    <!-- End Point -->
    <circle cx="560.0" cy="54.25513196480941" r="6" fill="#fff" stroke="#00f2fe" stroke-width="3" />
    
    <!-- Labels -->
    <text x="560" y="30" font-family="Arial, sans-serif" font-size="20" font-weight="bold" fill="#00f2fe" text-anchor="end">5514 Total Installs</text>
    <text x="40" y="145" font-family="Arial, sans-serif" font-size="12" fill="#888" text-anchor="start">Global Adoption History</text>
    </svg>