<svg width="600" height="150" xmlns="http://www.w3.org/2000/svg">
    <defs>
        <linearGradient id="areaGrad" x1="0%" y1="0%" x2="0%" y2="100%">
            <stop offset="0%" style="stop-color:#4facfe;stop-opacity:0.4" />
            <stop offset="100%" style="stop-color:#4facfe;stop-opacity:0" />
        </linearGradient>
    </defs>
    
    <!-- Area -->
    <polygon points="40,120 40.0,91.87006640771835 57.93103448275862,89.27640646535524 75.86206896551724,87.13381781731614 93.79310344827587,86.23167522866811 111.72413793103448,85.78060393434409 129.6551724137931,83.24332790377147 147.58620689655174,78.84538278411227 165.51724137931035,75.12404460593912 183.44827586206895,74.61658939982459 201.3793103448276,74.22190201729109 219.31034482758622,73.65806289938607 237.24137931034483,73.48891116401455 255.17241379310346,73.03783986969054 273.1034482758621,72.64315248715701 291.0344827586207,72.417616839995 308.9655172413793,70.78248339807044 326.8965517241379,70.44417992732741 344.82758620689657,70.10587645658441 362.7586206896552,69.82395689763189 380.6896551724138,69.65480516226037 398.62068965517244,68.18882345570732 416.55172413793105,66.61007392557326 434.48275862068965,63.0578874827716 452.41379310344826,62.66320010023808 470.3448275862069,62.26851271770457 488.2758620689655,62.15574489412356 506.2068965517241,61.76105751159004 524.1379310344828,61.53552186442803 542.0689655172414,61.309986217266015 560.0,61.19721839368502 560,120" fill="url(#areaGrad)" />
    
    <!-- X-Axis -->
    <line x1="40" y1="120" x2="560" y2="120" stroke="#888" stroke-width="2" />
    
    <!-- Growth Line -->
    <polyline points="40.0,91.87006640771835 57.93103448275862,89.27640646535524 75.86206896551724,87.13381781731614 93.79310344827587,86.23167522866811 111.72413793103448,85.78060393434409 129.6551724137931,83.24332790377147 147.58620689655174,78.84538278411227 165.51724137931035,75.12404460593912 183.44827586206895,74.61658939982459 201.3793103448276,74.22190201729109 219.31034482758622,73.65806289938607 237.24137931034483,73.48891116401455 255.17241379310346,73.03783986969054 273.1034482758621,72.64315248715701 291.0344827586207,72.417616839995 308.9655172413793,70.78248339807044 326.8965517241379,70.44417992732741 344.82758620689657,70.10587645658441 362.7586206896552,69.82395689763189 380.6896551724138,69.65480516226037 398.62068965517244,68.18882345570732 416.55172413793105,66.61007392557326 434.48275862068965,63.0578874827716 452.41379310344826,62.66320010023808 470.3448275862069,62.26851271770457 488.2758620689655,62.15574489412356 506.2068965517241,61.76105751159004 524.1379310344828,61.53552186442803 542.0689655172414,61.309986217266015 560.0,61.19721839368502" fill="none" stroke="#00f2fe" stroke-width="4" stroke-linecap="round" stroke-linejoin="round" />
    
    <!-- End Point -->
    <circle cx="560.0" cy="61.19721839368502" r="6" fill="#fff" stroke="#00f2fe" stroke-width="3" />
    
    <!-- Labels -->
    <text x="560" y="30" font-family="Arial, sans-serif" font-size="20" font-weight="bold" fill="#00f2fe" text-anchor="end">5533 Total Installs</text>
    <text x="40" y="145" font-family="Arial, sans-serif" font-size="12" fill="#888" text-anchor="start">Global Adoption History</text>
    </svg>