<svg width="600" height="150" xmlns="http://www.w3.org/2000/svg">
    <defs>
        <linearGradient id="areaGrad" x1="0%" y1="0%" x2="0%" y2="100%">
            <stop offset="0%" style="stop-color:#4facfe;stop-opacity:0.4" />
            <stop offset="100%" style="stop-color:#4facfe;stop-opacity:0" />
        </linearGradient>
    </defs>
    
    <!-- Area -->
    <polygon points="40,120 40.0,119.77521541855721 59.25925925925926,116.68442742371894 78.51851851851852,113.48124713815926 97.77777777777777,110.55904757940307 117.03703703703704,107.26220705157557 136.2962962962963,105.38900220621905 155.55555555555554,103.40340507014112 174.8148148148148,95.27369604129376 194.07407407407408,89.78520584439912 213.33333333333334,88.36157016192816 232.59259259259258,86.3947050743038 251.85185185185185,85.34571036090414 271.1111111111111,71.89609957124424 290.3703703703704,70.15401906506266 309.6296296296296,70.09782291970195 328.8888888888889,70.02289472588768 348.14814814814815,69.91050243516631 367.4074074074074,69.03009615784873 386.6666666666667,68.01856554135621 405.9259259259259,67.11942721558506 425.18518518518516,66.96957082795655 444.44444444444446,66.96957082795655 463.7037037037037,66.95083877950299 482.962962962963,66.08916455063897 502.22222222222223,56.38596345169213 521.4814814814815,45.93348041460267 540.7407407407408,39.80810057028681 560.0,38.365732839362295 560,120" fill="url(#areaGrad)" />
    
    <!-- X-Axis -->
    <line x1="40" y1="120" x2="560" y2="120" stroke="#888" stroke-width="2" />
    
    <!-- Growth Line -->
    <polyline points="40.0,119.77521541855721 59.25925925925926,116.68442742371894 78.51851851851852,113.48124713815926 97.77777777777777,110.55904757940307 117.03703703703704,107.26220705157557 136.2962962962963,105.38900220621905 155.55555555555554,103.40340507014112 174.8148148148148,95.27369604129376 194.07407407407408,89.78520584439912 213.33333333333334,88.36157016192816 232.59259259259258,86.3947050743038 251.85185185185185,85.34571036090414 271.1111111111111,71.89609957124424 290.3703703703704,70.15401906506266 309.6296296296296,70.09782291970195 328.8888888888889,70.02289472588768 348.14814814814815,69.91050243516631 367.4074074074074,69.03009615784873 386.6666666666667,68.01856554135621 405.9259259259259,67.11942721558506 425.18518518518516,66.96957082795655 444.44444444444446,66.96957082795655 463.7037037037037,66.95083877950299 482.962962962963,66.08916455063897 502.22222222222223,56.38596345169213 521.4814814814815,45.93348041460267 540.7407407407408,39.80810057028681 560.0,38.365732839362295" fill="none" stroke="#00f2fe" stroke-width="4" stroke-linecap="round" stroke-linejoin="round" />
    
    <!-- End Point -->
    <circle cx="560.0" cy="38.365732839362295" r="6" fill="#fff" stroke="#00f2fe" stroke-width="3" />
    
    <!-- Labels -->
    <text x="560" y="30" font-family="Arial, sans-serif" font-size="20" font-weight="bold" fill="#00f2fe" text-anchor="end">4466 Total Installs</text>
    <text x="40" y="145" font-family="Arial, sans-serif" font-size="12" fill="#888" text-anchor="start">Global Adoption History</text>
    </svg>