<svg width="600" height="150" xmlns="http://www.w3.org/2000/svg">
    <defs>
        <linearGradient id="areaGrad" x1="0%" y1="0%" x2="0%" y2="100%">
            <stop offset="0%" style="stop-color:#4facfe;stop-opacity:0.4" />
            <stop offset="100%" style="stop-color:#4facfe;stop-opacity:0" />
        </linearGradient>
    </defs>
    
    <!-- Area -->
    <polygon points="40,120 40.0,118.32841814645165 57.93103448275862,116.33306142937818 75.86206896551724,108.16339336136036 93.79310344827587,102.64792620944971 111.72413793103448,101.21729309154797 129.6551724137931,99.24076049444689 147.58620689655174,98.18660977599298 165.51724137931035,84.67089163581603 183.44827586206895,82.92024847838364 201.3793103448276,82.86377611846646 219.31034482758622,82.7884796385769 237.24137931034483,82.67553491874256 255.17241379310346,81.79080128004017 273.1034482758621,80.77429880153103 291.0344827586207,79.87074104285625 308.9655172413793,79.72014808307712 326.8965517241379,79.72014808307712 344.82758620689657,79.70132396310473 362.7586206896552,78.83541444437472 380.6896551724138,69.08452029867604 398.62068965517244,58.580661354081705 416.55172413793105,52.425174123109755 434.48275862068965,50.97571688523561 452.41379310344826,50.27922444625713 470.3448275862069,45.59201857313171 488.2758620689655,43.408420656334314 506.2068965517241,43.31430005647236 524.1379310344828,41.13070213967498 542.0689655172414,40.264792620944974 560.0,39.5494760619941 560,120" fill="url(#areaGrad)" />
    
    <!-- X-Axis -->
    <line x1="40" y1="120" x2="560" y2="120" stroke="#888" stroke-width="2" />
    
    <!-- Growth Line -->
    <polyline points="40.0,118.32841814645165 57.93103448275862,116.33306142937818 75.86206896551724,108.16339336136036 93.79310344827587,102.64792620944971 111.72413793103448,101.21729309154797 129.6551724137931,99.24076049444689 147.58620689655174,98.18660977599298 165.51724137931035,84.67089163581603 183.44827586206895,82.92024847838364 201.3793103448276,82.86377611846646 219.31034482758622,82.7884796385769 237.24137931034483,82.67553491874256 255.17241379310346,81.79080128004017 273.1034482758621,80.77429880153103 291.0344827586207,79.87074104285625 308.9655172413793,79.72014808307712 326.8965517241379,79.72014808307712 344.82758620689657,79.70132396310473 362.7586206896552,78.83541444437472 380.6896551724138,69.08452029867604 398.62068965517244,58.580661354081705 416.55172413793105,52.425174123109755 434.48275862068965,50.97571688523561 452.41379310344826,50.27922444625713 470.3448275862069,45.59201857313171 488.2758620689655,43.408420656334314 506.2068965517241,43.31430005647236 524.1379310344828,41.13070213967498 542.0689655172414,40.264792620944974 560.0,39.5494760619941" fill="none" stroke="#00f2fe" stroke-width="4" stroke-linecap="round" stroke-linejoin="round" />
    
    <!-- End Point -->
    <circle cx="560.0" cy="39.5494760619941" r="6" fill="#fff" stroke="#00f2fe" stroke-width="3" />
    
    <!-- Labels -->
    <text x="560" y="30" font-family="Arial, sans-serif" font-size="20" font-weight="bold" fill="#00f2fe" text-anchor="end">5073 Total Installs</text>
    <text x="40" y="145" font-family="Arial, sans-serif" font-size="12" fill="#888" text-anchor="start">Global Adoption History</text>
    </svg>