<svg width="600" height="150" xmlns="http://www.w3.org/2000/svg">
    <defs>
        <linearGradient id="areaGrad" x1="0%" y1="0%" x2="0%" y2="100%">
            <stop offset="0%" style="stop-color:#4facfe;stop-opacity:0.4" />
            <stop offset="100%" style="stop-color:#4facfe;stop-opacity:0" />
        </linearGradient>
    </defs>
    
    <!-- Area -->
    <polygon points="40,120 40.0,117.02603262755987 57.93103448275862,110.92398472752517 75.86206896551724,109.34120097188476 93.79310344827587,107.15446025685526 111.72413793103448,105.98819854217285 129.6551724137931,91.03505727178064 147.58620689655174,89.09822978132593 165.51724137931035,89.03575147518224 183.44827586206895,88.95244706699063 201.3793103448276,88.82749045470324 219.31034482758622,87.84866365845193 237.24137931034483,86.72405414786533 255.17241379310346,85.72440124956613 273.1034482758621,85.55779243318293 291.0344827586207,85.55779243318293 308.9655172413793,85.53696633113503 326.8965517241379,84.57896563693163 344.82758620689657,73.7910447761194 362.7586206896552,62.17007983339119 380.6896551724138,55.359944463727885 398.62068965517244,53.75633460603959 416.55172413793105,52.985768830267276 434.48275862068965,47.800069420340165 452.41379310344826,45.38424158278377 470.3448275862069,45.28011107254426 488.2758620689655,42.864283234987866 506.2068965517241,41.90628254078446 524.1379310344828,41.11489066296426 542.0689655172414,40.78167303019785 560.0,40.61506421381466 560,120" fill="url(#areaGrad)" />
    
    <!-- X-Axis -->
    <line x1="40" y1="120" x2="560" y2="120" stroke="#888" stroke-width="2" />
    
    <!-- Growth Line -->
    <polyline points="40.0,117.02603262755987 57.93103448275862,110.92398472752517 75.86206896551724,109.34120097188476 93.79310344827587,107.15446025685526 111.72413793103448,105.98819854217285 129.6551724137931,91.03505727178064 147.58620689655174,89.09822978132593 165.51724137931035,89.03575147518224 183.44827586206895,88.95244706699063 201.3793103448276,88.82749045470324 219.31034482758622,87.84866365845193 237.24137931034483,86.72405414786533 255.17241379310346,85.72440124956613 273.1034482758621,85.55779243318293 291.0344827586207,85.55779243318293 308.9655172413793,85.53696633113503 326.8965517241379,84.57896563693163 344.82758620689657,73.7910447761194 362.7586206896552,62.17007983339119 380.6896551724138,55.359944463727885 398.62068965517244,53.75633460603959 416.55172413793105,52.985768830267276 434.48275862068965,47.800069420340165 452.41379310344826,45.38424158278377 470.3448275862069,45.28011107254426 488.2758620689655,42.864283234987866 506.2068965517241,41.90628254078446 524.1379310344828,41.11489066296426 542.0689655172414,40.78167303019785 560.0,40.61506421381466" fill="none" stroke="#00f2fe" stroke-width="4" stroke-linecap="round" stroke-linejoin="round" />
    
    <!-- End Point -->
    <circle cx="560.0" cy="40.61506421381466" r="6" fill="#fff" stroke="#00f2fe" stroke-width="3" />
    
    <!-- Labels -->
    <text x="560" y="30" font-family="Arial, sans-serif" font-size="20" font-weight="bold" fill="#00f2fe" text-anchor="end">5097 Total Installs</text>
    <text x="40" y="145" font-family="Arial, sans-serif" font-size="12" fill="#888" text-anchor="start">Global Adoption History</text>
    </svg>