<svg width="600" height="150" xmlns="http://www.w3.org/2000/svg">
    <defs>
        <linearGradient id="areaGrad" x1="0%" y1="0%" x2="0%" y2="100%">
            <stop offset="0%" style="stop-color:#4facfe;stop-opacity:0.4" />
            <stop offset="100%" style="stop-color:#4facfe;stop-opacity:0" />
        </linearGradient>
    </defs>
    
    <!-- Area -->
    <polygon points="40,120 40.0,112.55661306202823 57.93103448275862,112.44920488110512 75.86206896551724,112.28809260972045 93.79310344827587,111.02604648387386 111.72413793103448,109.57603604141183 129.6551724137931,108.28713787033446 147.58620689655174,108.07232150848824 165.51724137931035,108.07232150848824 183.44827586206895,108.04546946325746 201.3793103448276,106.81027538264165 219.31034482758622,92.90091595309843 237.24137931034483,77.9174747143241 255.17241379310346,69.13685592385954 273.1034482758621,67.06924844108961 291.0344827586207,66.07572276755081 308.9655172413793,59.38956350508699 326.8965517241379,56.27472625831669 344.82758620689657,56.140466032162806 362.7586206896552,53.0256287853925 380.6896551724138,51.7904347047767 398.62068965517244,50.77005698600712 416.55172413793105,50.34042426231467 434.48275862068965,50.12560790046844 452.41379310344826,48.91726586508341 470.3448275862069,46.822806337082696 488.2758620689655,45.05057135185133 506.2068965517241,44.80890294477432 524.1379310344828,44.62093862815887 542.0689655172414,44.352418175851085 560.0,44.27186204015874 560,120" fill="url(#areaGrad)" />
    
    <!-- X-Axis -->
    <line x1="40" y1="120" x2="560" y2="120" stroke="#888" stroke-width="2" />
    
    <!-- Growth Line -->
    <polyline points="40.0,112.55661306202823 57.93103448275862,112.44920488110512 75.86206896551724,112.28809260972045 93.79310344827587,111.02604648387386 111.72413793103448,109.57603604141183 129.6551724137931,108.28713787033446 147.58620689655174,108.07232150848824 165.51724137931035,108.07232150848824 183.44827586206895,108.04546946325746 201.3793103448276,106.81027538264165 219.31034482758622,92.90091595309843 237.24137931034483,77.9174747143241 255.17241379310346,69.13685592385954 273.1034482758621,67.06924844108961 291.0344827586207,66.07572276755081 308.9655172413793,59.38956350508699 326.8965517241379,56.27472625831669 344.82758620689657,56.140466032162806 362.7586206896552,53.0256287853925 380.6896551724138,51.7904347047767 398.62068965517244,50.77005698600712 416.55172413793105,50.34042426231467 434.48275862068965,50.12560790046844 452.41379310344826,48.91726586508341 470.3448275862069,46.822806337082696 488.2758620689655,45.05057135185133 506.2068965517241,44.80890294477432 524.1379310344828,44.62093862815887 542.0689655172414,44.352418175851085 560.0,44.27186204015874" fill="none" stroke="#00f2fe" stroke-width="4" stroke-linecap="round" stroke-linejoin="round" />
    
    <!-- End Point -->
    <circle cx="560.0" cy="44.27186204015874" r="6" fill="#fff" stroke="#00f2fe" stroke-width="3" />
    
    <!-- Labels -->
    <text x="560" y="30" font-family="Arial, sans-serif" font-size="20" font-weight="bold" fill="#00f2fe" text-anchor="end">5315 Total Installs</text>
    <text x="40" y="145" font-family="Arial, sans-serif" font-size="12" fill="#888" text-anchor="start">Global Adoption History</text>
    </svg>