<svg width="600" height="150" xmlns="http://www.w3.org/2000/svg">
    <defs>
        <linearGradient id="areaGrad" x1="0%" y1="0%" x2="0%" y2="100%">
            <stop offset="0%" style="stop-color:#4facfe;stop-opacity:0.4" />
            <stop offset="100%" style="stop-color:#4facfe;stop-opacity:0" />
        </linearGradient>
    </defs>
    
    <!-- Area -->
    <polygon points="40,120 40.0,119.77710358491734 58.57142857142857,116.71227787753081 77.14285714285714,113.53600396260293 95.71428571428572,110.63835056652839 114.28571428571429,107.36920314531608 132.85714285714286,105.51173301962727 151.42857142857144,103.54281468639712 170.0,95.48139434090768 188.57142857142858,90.03900687263946 207.14285714285714,88.62732957711597 225.71428571428572,86.67698594514272 244.28571428571428,85.63680267475698 262.8571428571429,72.30016717231132 281.42857142857144,70.57271995542072 300.0,70.51699585165005 318.57142857142856,70.4426970466225 337.14285714285717,70.33124883908117 355.7142857142857,69.45823788000743 374.2857142857143,68.45520401213548 392.85714285714283,67.56361835180485 411.42857142857144,67.41502074174974 430.0,67.41502074174974 448.57142857142856,67.39644604049286 467.14285714285717,66.54200978267599 485.7142857142857,56.92031453160795 504.2857142857143,46.55563123026438 522.8571428571429,40.481703919261975 541.4285714285714,39.051451922481576 560.0,38.36418797597672 560,120" fill="url(#areaGrad)" />
    
    <!-- X-Axis -->
    <line x1="40" y1="120" x2="560" y2="120" stroke="#888" stroke-width="2" />
    
    <!-- Growth Line -->
    <polyline points="40.0,119.77710358491734 58.57142857142857,116.71227787753081 77.14285714285714,113.53600396260293 95.71428571428572,110.63835056652839 114.28571428571429,107.36920314531608 132.85714285714286,105.51173301962727 151.42857142857144,103.54281468639712 170.0,95.48139434090768 188.57142857142858,90.03900687263946 207.14285714285714,88.62732957711597 225.71428571428572,86.67698594514272 244.28571428571428,85.63680267475698 262.8571428571429,72.30016717231132 281.42857142857144,70.57271995542072 300.0,70.51699585165005 318.57142857142856,70.4426970466225 337.14285714285717,70.33124883908117 355.7142857142857,69.45823788000743 374.2857142857143,68.45520401213548 392.85714285714283,67.56361835180485 411.42857142857144,67.41502074174974 430.0,67.41502074174974 448.57142857142856,67.39644604049286 467.14285714285717,66.54200978267599 485.7142857142857,56.92031453160795 504.2857142857143,46.55563123026438 522.8571428571429,40.481703919261975 541.4285714285714,39.051451922481576 560.0,38.36418797597672" fill="none" stroke="#00f2fe" stroke-width="4" stroke-linecap="round" stroke-linejoin="round" />
    
    <!-- End Point -->
    <circle cx="560.0" cy="38.36418797597672" r="6" fill="#fff" stroke="#00f2fe" stroke-width="3" />
    
    <!-- Labels -->
    <text x="560" y="30" font-family="Arial, sans-serif" font-size="20" font-weight="bold" fill="#00f2fe" text-anchor="end">4503 Total Installs</text>
    <text x="40" y="145" font-family="Arial, sans-serif" font-size="12" fill="#888" text-anchor="start">Global Adoption History</text>
    </svg>