<svg width="600" height="150" xmlns="http://www.w3.org/2000/svg">
    <defs>
        <linearGradient id="areaGrad" x1="0%" y1="0%" x2="0%" y2="100%">
            <stop offset="0%" style="stop-color:#4facfe;stop-opacity:0.4" />
            <stop offset="100%" style="stop-color:#4facfe;stop-opacity:0" />
        </linearGradient>
    </defs>
    
    <!-- Area -->
    <polygon points="40,120 40.0,92.43578693328736 57.93103448275862,92.22892604723324 75.86206896551724,90.72918462334081 93.79310344827587,90.41889329425962 111.72413793103448,90.10860196517842 129.6551724137931,89.85002585761076 147.58620689655174,89.69488019307016 165.51724137931035,88.35028443371833 183.44827586206895,86.90225823133943 201.3793103448276,83.64419927598689 219.31034482758622,83.28219272539218 237.24137931034483,82.92018617479745 255.17241379310346,82.81675573177039 273.1034482758621,82.45474918117566 291.0344827586207,82.24788829512153 308.9655172413793,82.0410274090674 326.8965517241379,81.93759696604035 344.82758620689657,81.62730563695915 362.7586206896552,81.42044475090502 380.6896551724138,81.00672297879677 398.62068965517244,80.69643164971558 416.55172413793105,66.21616962592657 434.48275862068965,66.00930873987244 452.41379310344826,65.75073263230477 470.3448275862069,65.49215652473713 488.2758620689655,64.76814342354767 506.2068965517241,63.73383899327703 524.1379310344828,62.49267367695226 542.0689655172414,61.45836924668161 560.0,60.734356145492164 560,120" fill="url(#areaGrad)" />
    
    <!-- X-Axis -->
    <line x1="40" y1="120" x2="560" y2="120" stroke="#888" stroke-width="2" />
    
    <!-- Growth Line -->
    <polyline points="40.0,92.43578693328736 57.93103448275862,92.22892604723324 75.86206896551724,90.72918462334081 93.79310344827587,90.41889329425962 111.72413793103448,90.10860196517842 129.6551724137931,89.85002585761076 147.58620689655174,89.69488019307016 165.51724137931035,88.35028443371833 183.44827586206895,86.90225823133943 201.3793103448276,83.64419927598689 219.31034482758622,83.28219272539218 237.24137931034483,82.92018617479745 255.17241379310346,82.81675573177039 273.1034482758621,82.45474918117566 291.0344827586207,82.24788829512153 308.9655172413793,82.0410274090674 326.8965517241379,81.93759696604035 344.82758620689657,81.62730563695915 362.7586206896552,81.42044475090502 380.6896551724138,81.00672297879677 398.62068965517244,80.69643164971558 416.55172413793105,66.21616962592657 434.48275862068965,66.00930873987244 452.41379310344826,65.75073263230477 470.3448275862069,65.49215652473713 488.2758620689655,64.76814342354767 506.2068965517241,63.73383899327703 524.1379310344828,62.49267367695226 542.0689655172414,61.45836924668161 560.0,60.734356145492164" fill="none" stroke="#00f2fe" stroke-width="4" stroke-linecap="round" stroke-linejoin="round" />
    
    <!-- End Point -->
    <circle cx="560.0" cy="60.734356145492164" r="6" fill="#fff" stroke="#00f2fe" stroke-width="3" />
    
    <!-- Labels -->
    <text x="560" y="30" font-family="Arial, sans-serif" font-size="20" font-weight="bold" fill="#00f2fe" text-anchor="end">5943 Total Installs</text>
    <text x="40" y="145" font-family="Arial, sans-serif" font-size="12" fill="#888" text-anchor="start">Global Adoption History</text>
    </svg>