<svg width="600" height="150" xmlns="http://www.w3.org/2000/svg">
    <defs>
        <linearGradient id="areaGrad" x1="0%" y1="0%" x2="0%" y2="100%">
            <stop offset="0%" style="stop-color:#4facfe;stop-opacity:0.4" />
            <stop offset="100%" style="stop-color:#4facfe;stop-opacity:0" />
        </linearGradient>
    </defs>
    
    <!-- Area -->
    <polygon points="40,120 40.0,119.6404673923899 70.58823529411765,114.69689403775092 101.1764705882353,109.5735543793069 131.76470588235293,104.8996304803755 162.3529411764706,99.62648556876061 192.94117647058823,96.63038050534306 223.52941176470588,93.45450913812044 254.11764705882354,80.45141316288824 284.7058823529412,71.6728253270748 315.29411764705884,69.39578547887746 345.88235294117646,66.24987516228902 376.47058823529414,64.5720563267752 407.05882352941177,43.06002197143714 437.6470588235294,40.2736442624588 468.2352941176471,40.18376111055629 498.8235294117647,40.06391690801958 529.4117647058824,39.884150604214526 560.0,38.47598122440827 560,120" fill="url(#areaGrad)" />
    
    <!-- X-Axis -->
    <line x1="40" y1="120" x2="560" y2="120" stroke="#888" stroke-width="2" />
    
    <!-- Growth Line -->
    <polyline points="40.0,119.6404673923899 70.58823529411765,114.69689403775092 101.1764705882353,109.5735543793069 131.76470588235293,104.8996304803755 162.3529411764706,99.62648556876061 192.94117647058823,96.63038050534306 223.52941176470588,93.45450913812044 254.11764705882354,80.45141316288824 284.7058823529412,71.6728253270748 315.29411764705884,69.39578547887746 345.88235294117646,66.24987516228902 376.47058823529414,64.5720563267752 407.05882352941177,43.06002197143714 437.6470588235294,40.2736442624588 468.2352941176471,40.18376111055629 498.8235294117647,40.06391690801958 529.4117647058824,39.884150604214526 560.0,38.47598122440827" fill="none" stroke="#00f2fe" stroke-width="4" stroke-linecap="round" stroke-linejoin="round" />
    
    <!-- End Point -->
    <circle cx="560.0" cy="38.47598122440827" r="6" fill="#fff" stroke="#00f2fe" stroke-width="3" />
    
    <!-- Labels -->
    <text x="560" y="30" font-family="Arial, sans-serif" font-size="20" font-weight="bold" fill="#00f2fe" text-anchor="end">2829 Total Installs</text>
    <text x="40" y="145" font-family="Arial, sans-serif" font-size="12" fill="#888" text-anchor="start">Global Adoption History</text>
    </svg>