<svg width="600" height="150" xmlns="http://www.w3.org/2000/svg">
    <defs>
        <linearGradient id="areaGrad" x1="0%" y1="0%" x2="0%" y2="100%">
            <stop offset="0%" style="stop-color:#4facfe;stop-opacity:0.4" />
            <stop offset="100%" style="stop-color:#4facfe;stop-opacity:0" />
        </linearGradient>
    </defs>
    
    <!-- Area -->
    <polygon points="40,120 40.0,118.88436531567115 57.93103448275862,115.67600413198032 75.86206896551724,113.85307164124688 93.79310344827587,111.92076320106946 111.72413793103448,104.00923619128639 129.6551724137931,98.66804399343745 147.58620689655174,97.28261530048005 165.51724137931035,95.36853618520995 183.44827586206895,94.34769399039922 201.3793103448276,81.25903870693323 219.31034482758622,79.56371149055113 237.24137931034483,79.50902351582914 255.17241379310346,79.4361062161998 273.1034482758621,79.32673026675579 291.0344827586207,78.46995199611109 308.9655172413793,77.48556845111503 326.8965517241379,76.610560855563 344.82758620689657,76.46472625630432 362.7586206896552,76.46472625630432 380.6896551724138,76.44649693139698 398.62068965517244,75.6079479856596 416.55172413793105,66.16515768366045 434.48275862068965,55.99319438536793 452.41379310344826,50.03220514066963 470.3448275862069,48.62854712280489 488.2758620689655,47.95406210123353 506.2068965517241,43.41496019930729 524.1379310344828,41.300358510056526 542.0689655172414,41.20921188551985 560.0,39.09461019626907 560,120" fill="url(#areaGrad)" />
    
    <!-- X-Axis -->
    <line x1="40" y1="120" x2="560" y2="120" stroke="#888" stroke-width="2" />
    
    <!-- Growth Line -->
    <polyline points="40.0,118.88436531567115 57.93103448275862,115.67600413198032 75.86206896551724,113.85307164124688 93.79310344827587,111.92076320106946 111.72413793103448,104.00923619128639 129.6551724137931,98.66804399343745 147.58620689655174,97.28261530048005 165.51724137931035,95.36853618520995 183.44827586206895,94.34769399039922 201.3793103448276,81.25903870693323 219.31034482758622,79.56371149055113 237.24137931034483,79.50902351582914 255.17241379310346,79.4361062161998 273.1034482758621,79.32673026675579 291.0344827586207,78.46995199611109 308.9655172413793,77.48556845111503 326.8965517241379,76.610560855563 344.82758620689657,76.46472625630432 362.7586206896552,76.46472625630432 380.6896551724138,76.44649693139698 398.62068965517244,75.6079479856596 416.55172413793105,66.16515768366045 434.48275862068965,55.99319438536793 452.41379310344826,50.03220514066963 470.3448275862069,48.62854712280489 488.2758620689655,47.95406210123353 506.2068965517241,43.41496019930729 524.1379310344828,41.300358510056526 542.0689655172414,41.20921188551985 560.0,39.09461019626907" fill="none" stroke="#00f2fe" stroke-width="4" stroke-linecap="round" stroke-linejoin="round" />
    
    <!-- End Point -->
    <circle cx="560.0" cy="39.09461019626907" r="6" fill="#fff" stroke="#00f2fe" stroke-width="3" />
    
    <!-- Labels -->
    <text x="560" y="30" font-family="Arial, sans-serif" font-size="20" font-weight="bold" fill="#00f2fe" text-anchor="end">4989 Total Installs</text>
    <text x="40" y="145" font-family="Arial, sans-serif" font-size="12" fill="#888" text-anchor="start">Global Adoption History</text>
    </svg>