<svg width="600" height="150" xmlns="http://www.w3.org/2000/svg">
    <defs>
        <linearGradient id="areaGrad" x1="0%" y1="0%" x2="0%" y2="100%">
            <stop offset="0%" style="stop-color:#4facfe;stop-opacity:0.4" />
            <stop offset="100%" style="stop-color:#4facfe;stop-opacity:0" />
        </linearGradient>
    </defs>
    
    <!-- Area -->
    <polygon points="40,120 40.0,119.17089234125942 57.93103448275862,116.3344714034627 75.86206896551724,113.13440675569204 93.79310344827587,111.31618820582234 111.72413793103448,109.38887654296047 129.6551724137931,101.497808036526 147.58620689655174,96.17042768540779 165.51724137931035,94.78858158750683 183.44827586206895,92.87945211014365 201.3793103448276,91.86124972221661 219.31034482758622,78.80644053415222 237.24137931034483,77.11549728277339 255.17241379310346,77.0609507262773 273.1034482758621,76.98822198428252 291.0344827586207,76.87912887129033 308.9655172413793,76.02456615285158 326.8965517241379,75.04272813592195 344.82758620689657,74.16998323198449 362.7586206896552,74.02452574799491 380.6896551724138,74.02452574799491 398.62068965517244,74.00634356249621 416.55172413793105,73.16996302955616 434.48275862068965,63.75159094123114 452.41379310344826,53.60593143295824 470.3448275862069,47.66035677488435 488.2758620689655,46.260328491484685 506.2068965517241,45.58758762803289 524.1379310344828,41.06022343885735 542.0689655172414,38.9510899210085 560.0,38.86017899351502 560,120" fill="url(#areaGrad)" />
    
    <!-- X-Axis -->
    <line x1="40" y1="120" x2="560" y2="120" stroke="#888" stroke-width="2" />
    
    <!-- Growth Line -->
    <polyline points="40.0,119.17089234125942 57.93103448275862,116.3344714034627 75.86206896551724,113.13440675569204 93.79310344827587,111.31618820582234 111.72413793103448,109.38887654296047 129.6551724137931,101.497808036526 147.58620689655174,96.17042768540779 165.51724137931035,94.78858158750683 183.44827586206895,92.87945211014365 201.3793103448276,91.86124972221661 219.31034482758622,78.80644053415222 237.24137931034483,77.11549728277339 255.17241379310346,77.0609507262773 273.1034482758621,76.98822198428252 291.0344827586207,76.87912887129033 308.9655172413793,76.02456615285158 326.8965517241379,75.04272813592195 344.82758620689657,74.16998323198449 362.7586206896552,74.02452574799491 380.6896551724138,74.02452574799491 398.62068965517244,74.00634356249621 416.55172413793105,73.16996302955616 434.48275862068965,63.75159094123114 452.41379310344826,53.60593143295824 470.3448275862069,47.66035677488435 488.2758620689655,46.260328491484685 506.2068965517241,45.58758762803289 524.1379310344828,41.06022343885735 542.0689655172414,38.9510899210085 560.0,38.86017899351502" fill="none" stroke="#00f2fe" stroke-width="4" stroke-linecap="round" stroke-linejoin="round" />
    
    <!-- End Point -->
    <circle cx="560.0" cy="38.86017899351502" r="6" fill="#fff" stroke="#00f2fe" stroke-width="3" />
    
    <!-- Labels -->
    <text x="560" y="30" font-family="Arial, sans-serif" font-size="20" font-weight="bold" fill="#00f2fe" text-anchor="end">4873 Total Installs</text>
    <text x="40" y="145" font-family="Arial, sans-serif" font-size="12" fill="#888" text-anchor="start">Global Adoption History</text>
    </svg>