<svg width="600" height="150" xmlns="http://www.w3.org/2000/svg">
    <defs>
        <linearGradient id="areaGrad" x1="0%" y1="0%" x2="0%" y2="100%">
            <stop offset="0%" style="stop-color:#4facfe;stop-opacity:0.4" />
            <stop offset="100%" style="stop-color:#4facfe;stop-opacity:0" />
        </linearGradient>
    </defs>
    
    <!-- Area -->
    <polygon points="40,120 40.0,119.63417112661743 72.5,114.60402411760721 105.0,109.3909626719057 137.5,104.63518731793239 170.0,99.26969717498815 202.5,96.22112323013346 235.0,92.9896348485875 267.5,79.75882392791817 300.0,70.82650226949394 332.5,68.50958607140439 365.0,65.30858342930696 397.5,63.60138202018834 430.0,41.7126210961317 462.5,38.877447327416846 495.0,38.78599010907121 527.5,38.66404715127702 560.0,38.48113271458574 560,120" fill="url(#areaGrad)" />
    
    <!-- X-Axis -->
    <line x1="40" y1="120" x2="560" y2="120" stroke="#888" stroke-width="2" />
    
    <!-- Growth Line -->
    <polyline points="40.0,119.63417112661743 72.5,114.60402411760721 105.0,109.3909626719057 137.5,104.63518731793239 170.0,99.26969717498815 202.5,96.22112323013346 235.0,92.9896348485875 267.5,79.75882392791817 300.0,70.82650226949394 332.5,68.50958607140439 365.0,65.30858342930696 397.5,63.60138202018834 430.0,41.7126210961317 462.5,38.877447327416846 495.0,38.78599010907121 527.5,38.66404715127702 560.0,38.48113271458574" fill="none" stroke="#00f2fe" stroke-width="4" stroke-linecap="round" stroke-linejoin="round" />
    
    <!-- End Point -->
    <circle cx="560.0" cy="38.48113271458574" r="6" fill="#fff" stroke="#00f2fe" stroke-width="3" />
    
    <!-- Labels -->
    <text x="560" y="30" font-family="Arial, sans-serif" font-size="20" font-weight="bold" fill="#00f2fe" text-anchor="end">2782 Total Installs</text>
    <text x="40" y="145" font-family="Arial, sans-serif" font-size="12" fill="#888" text-anchor="start">Global Adoption History</text>
    </svg>