<svg width="600" height="150" xmlns="http://www.w3.org/2000/svg">
    <defs>
        <linearGradient id="areaGrad" x1="0%" y1="0%" x2="0%" y2="100%">
            <stop offset="0%" style="stop-color:#4facfe;stop-opacity:0.4" />
            <stop offset="100%" style="stop-color:#4facfe;stop-opacity:0" />
        </linearGradient>
    </defs>
    
    <!-- Area -->
    <polygon points="40,120 40.0,101.25782881002088 57.93103448275862,97.96972860125261 75.86206896551724,96.3897323970393 93.79310344827587,85.75678496868477 111.72413793103448,80.80328335547543 129.6551724137931,80.58977035490607 147.58620689655174,75.63626874169674 165.51724137931035,73.67194913645855 183.44827586206895,72.04925033213135 201.3793103448276,71.36600873030937 219.31034482758622,71.02438792939839 237.24137931034483,69.10277092427407 255.17241379310346,65.77196811539193 273.1034482758621,62.95359650787628 291.0344827586207,62.56927310685141 308.9655172413793,62.2703549060543 326.8965517241379,61.84332890491556 344.82758620689657,61.715221104573935 362.7586206896552,61.373600303662954 380.6896551724138,61.074682102865836 398.62068965517244,60.90387170241035 416.55172413793105,59.66549629910801 434.48275862068965,59.40928069842477 452.41379310344826,59.153065097741525 470.3448275862069,58.939552097172154 488.2758620689655,58.81144429683054 506.2068965517241,57.701176693869826 524.1379310344828,56.50550389068137 542.0689655172414,53.81524008350732 560.0,53.516321882710216 560,120" fill="url(#areaGrad)" />
    
    <!-- X-Axis -->
    <line x1="40" y1="120" x2="560" y2="120" stroke="#888" stroke-width="2" />
    
    <!-- Growth Line -->
    <polyline points="40.0,101.25782881002088 57.93103448275862,97.96972860125261 75.86206896551724,96.3897323970393 93.79310344827587,85.75678496868477 111.72413793103448,80.80328335547543 129.6551724137931,80.58977035490607 147.58620689655174,75.63626874169674 165.51724137931035,73.67194913645855 183.44827586206895,72.04925033213135 201.3793103448276,71.36600873030937 219.31034482758622,71.02438792939839 237.24137931034483,69.10277092427407 255.17241379310346,65.77196811539193 273.1034482758621,62.95359650787628 291.0344827586207,62.56927310685141 308.9655172413793,62.2703549060543 326.8965517241379,61.84332890491556 344.82758620689657,61.715221104573935 362.7586206896552,61.373600303662954 380.6896551724138,61.074682102865836 398.62068965517244,60.90387170241035 416.55172413793105,59.66549629910801 434.48275862068965,59.40928069842477 452.41379310344826,59.153065097741525 470.3448275862069,58.939552097172154 488.2758620689655,58.81144429683054 506.2068965517241,57.701176693869826 524.1379310344828,56.50550389068137 542.0689655172414,53.81524008350732 560.0,53.516321882710216" fill="none" stroke="#00f2fe" stroke-width="4" stroke-linecap="round" stroke-linejoin="round" />
    
    <!-- End Point -->
    <circle cx="560.0" cy="53.516321882710216" r="6" fill="#fff" stroke="#00f2fe" stroke-width="3" />
    
    <!-- Labels -->
    <text x="560" y="30" font-family="Arial, sans-serif" font-size="20" font-weight="bold" fill="#00f2fe" text-anchor="end">5507 Total Installs</text>
    <text x="40" y="145" font-family="Arial, sans-serif" font-size="12" fill="#888" text-anchor="start">Global Adoption History</text>
    </svg>