<svg width="600" height="150" xmlns="http://www.w3.org/2000/svg">
    <defs>
        <linearGradient id="areaGrad" x1="0%" y1="0%" x2="0%" y2="100%">
            <stop offset="0%" style="stop-color:#4facfe;stop-opacity:0.4" />
            <stop offset="100%" style="stop-color:#4facfe;stop-opacity:0" />
        </linearGradient>
    </defs>
    
    <!-- Area -->
    <polygon points="40,120 40.0,94.18818673657205 57.93103448275862,90.27274248424342 75.86206896551724,86.95967427073458 93.79310344827587,86.50789224161974 111.72413793103448,86.15650621897487 129.6551724137931,85.65452618662505 147.58620689655174,85.50393217692009 165.51724137931035,85.10234815104023 183.44827586206895,84.75096212839536 201.3793103448276,84.55017011545543 219.31034482758622,83.09442802164094 237.24137931034483,82.79324000223104 255.17241379310346,82.49205198282115 273.1034482758621,82.24106196664624 291.0344827586207,82.0904679569413 308.9655172413793,80.78531987283175 326.8965517241379,79.37977578225224 344.82758620689657,76.21730157844834 362.7586206896552,75.86591555580347 380.6896551724138,75.5145295331586 398.62068965517244,75.41413352668863 416.55172413793105,75.06274750404376 434.48275862068965,74.86195549110381 452.41379310344826,74.6611634781639 470.3448275862069,74.56076747169392 488.2758620689655,74.25957945228404 506.2068965517241,74.0587874393441 524.1379310344828,73.65720341346425 542.0689655172414,73.35601539405435 560.0,59.300574488259265 560,120" fill="url(#areaGrad)" />
    
    <!-- X-Axis -->
    <line x1="40" y1="120" x2="560" y2="120" stroke="#888" stroke-width="2" />
    
    <!-- Growth Line -->
    <polyline points="40.0,94.18818673657205 57.93103448275862,90.27274248424342 75.86206896551724,86.95967427073458 93.79310344827587,86.50789224161974 111.72413793103448,86.15650621897487 129.6551724137931,85.65452618662505 147.58620689655174,85.50393217692009 165.51724137931035,85.10234815104023 183.44827586206895,84.75096212839536 201.3793103448276,84.55017011545543 219.31034482758622,83.09442802164094 237.24137931034483,82.79324000223104 255.17241379310346,82.49205198282115 273.1034482758621,82.24106196664624 291.0344827586207,82.0904679569413 308.9655172413793,80.78531987283175 326.8965517241379,79.37977578225224 344.82758620689657,76.21730157844834 362.7586206896552,75.86591555580347 380.6896551724138,75.5145295331586 398.62068965517244,75.41413352668863 416.55172413793105,75.06274750404376 434.48275862068965,74.86195549110381 452.41379310344826,74.6611634781639 470.3448275862069,74.56076747169392 488.2758620689655,74.25957945228404 506.2068965517241,74.0587874393441 524.1379310344828,73.65720341346425 542.0689655172414,73.35601539405435 560.0,59.300574488259265" fill="none" stroke="#00f2fe" stroke-width="4" stroke-linecap="round" stroke-linejoin="round" />
    
    <!-- End Point -->
    <circle cx="560.0" cy="59.300574488259265" r="6" fill="#fff" stroke="#00f2fe" stroke-width="3" />
    
    <!-- Labels -->
    <text x="560" y="30" font-family="Arial, sans-serif" font-size="20" font-weight="bold" fill="#00f2fe" text-anchor="end">5837 Total Installs</text>
    <text x="40" y="145" font-family="Arial, sans-serif" font-size="12" fill="#888" text-anchor="start">Global Adoption History</text>
    </svg>