<svg width="600" height="150" xmlns="http://www.w3.org/2000/svg">
    <defs>
        <linearGradient id="areaGrad" x1="0%" y1="0%" x2="0%" y2="100%">
            <stop offset="0%" style="stop-color:#4facfe;stop-opacity:0.4" />
            <stop offset="100%" style="stop-color:#4facfe;stop-opacity:0" />
        </linearGradient>
    </defs>
    
    <!-- Area -->
    <polygon points="40,120 40.0,111.9280905752754 57.93103448275862,111.7077723378213 75.86206896551724,111.7077723378213 93.79310344827587,111.68023255813954 111.72413793103448,110.41340269277846 129.6551724137931,96.14779681762546 147.58620689655174,80.78059975520196 165.51724137931035,71.77509179926562 183.44827586206895,69.65452876376989 201.3793103448276,68.6355569155447 219.31034482758622,61.77815177478581 237.24137931034483,58.58353733170136 255.17241379310346,58.44583843329254 273.1034482758621,55.25122399020809 291.0344827586207,53.984394124847014 308.9655172413793,52.937882496940034 326.8965517241379,52.49724602203183 344.82758620689657,52.27692778457774 362.7586206896552,51.03763769889842 380.6896551724138,48.88953488372094 398.62068965517244,47.07190942472461 416.55172413793105,46.824051407588755 434.48275862068965,46.63127294981642 452.41379310344826,46.35587515299879 470.3448275862069,46.2732558139535 488.2758620689655,46.0529375764994 506.2068965517241,45.860159118727054 524.1379310344828,45.750000000000014 542.0689655172414,44.9513463892289 560.0,44.78610771113833 560,120" fill="url(#areaGrad)" />
    
    <!-- X-Axis -->
    <line x1="40" y1="120" x2="560" y2="120" stroke="#888" stroke-width="2" />
    
    <!-- Growth Line -->
    <polyline points="40.0,111.9280905752754 57.93103448275862,111.7077723378213 75.86206896551724,111.7077723378213 93.79310344827587,111.68023255813954 111.72413793103448,110.41340269277846 129.6551724137931,96.14779681762546 147.58620689655174,80.78059975520196 165.51724137931035,71.77509179926562 183.44827586206895,69.65452876376989 201.3793103448276,68.6355569155447 219.31034482758622,61.77815177478581 237.24137931034483,58.58353733170136 255.17241379310346,58.44583843329254 273.1034482758621,55.25122399020809 291.0344827586207,53.984394124847014 308.9655172413793,52.937882496940034 326.8965517241379,52.49724602203183 344.82758620689657,52.27692778457774 362.7586206896552,51.03763769889842 380.6896551724138,48.88953488372094 398.62068965517244,47.07190942472461 416.55172413793105,46.824051407588755 434.48275862068965,46.63127294981642 452.41379310344826,46.35587515299879 470.3448275862069,46.2732558139535 488.2758620689655,46.0529375764994 506.2068965517241,45.860159118727054 524.1379310344828,45.750000000000014 542.0689655172414,44.9513463892289 560.0,44.78610771113833" fill="none" stroke="#00f2fe" stroke-width="4" stroke-linecap="round" stroke-linejoin="round" />
    
    <!-- End Point -->
    <circle cx="560.0" cy="44.78610771113833" r="6" fill="#fff" stroke="#00f2fe" stroke-width="3" />
    
    <!-- Labels -->
    <text x="560" y="30" font-family="Arial, sans-serif" font-size="20" font-weight="bold" fill="#00f2fe" text-anchor="end">5369 Total Installs</text>
    <text x="40" y="145" font-family="Arial, sans-serif" font-size="12" fill="#888" text-anchor="start">Global Adoption History</text>
    </svg>