<svg width="600" height="150" xmlns="http://www.w3.org/2000/svg">
    <defs>
        <linearGradient id="areaGrad" x1="0%" y1="0%" x2="0%" y2="100%">
            <stop offset="0%" style="stop-color:#4facfe;stop-opacity:0.4" />
            <stop offset="100%" style="stop-color:#4facfe;stop-opacity:0" />
        </linearGradient>
    </defs>
    
    <!-- Area -->
    <polygon points="40,120 40.0,112.55741904733534 57.93103448275862,112.39655634662934 75.86206896551724,111.13646519109894 93.79310344827587,109.68870088474486 111.72413793103448,108.40179927909679 129.6551724137931,108.18731567815544 147.58620689655174,108.18731567815544 165.51724137931035,108.16050522803778 183.44827586206895,106.92722452262504 201.3793103448276,93.03941136167298 219.31034482758622,78.07918019601419 237.24137931034483,69.31216300753672 255.17241379310346,67.24775834847628 273.1034482758621,66.25577169412256 291.0344827586207,59.579969614823206 308.9655172413793,56.4699574011737 326.8965517241379,56.33590515058537 344.82758620689657,53.225892936935864 362.7586206896552,51.99261223152314 380.6896551724138,50.97381512705175 398.62068965517244,50.54484792516905 416.55172413793105,50.330364324227716 434.48275862068965,49.12389406893264 452.41379310344826,47.032678959754534 470.3448275862069,45.263189251988436 488.2758620689655,45.021895200929436 506.2068965517241,44.834222050105765 524.1379310344828,44.56611754892907 542.0689655172414,44.485686198576076 560.0,44.271202597634726 560,120" fill="url(#areaGrad)" />
    
    <!-- X-Axis -->
    <line x1="40" y1="120" x2="560" y2="120" stroke="#888" stroke-width="2" />
    
    <!-- Growth Line -->
    <polyline points="40.0,112.55741904733534 57.93103448275862,112.39655634662934 75.86206896551724,111.13646519109894 93.79310344827587,109.68870088474486 111.72413793103448,108.40179927909679 129.6551724137931,108.18731567815544 147.58620689655174,108.18731567815544 165.51724137931035,108.16050522803778 183.44827586206895,106.92722452262504 201.3793103448276,93.03941136167298 219.31034482758622,78.07918019601419 237.24137931034483,69.31216300753672 255.17241379310346,67.24775834847628 273.1034482758621,66.25577169412256 291.0344827586207,59.579969614823206 308.9655172413793,56.4699574011737 326.8965517241379,56.33590515058537 344.82758620689657,53.225892936935864 362.7586206896552,51.99261223152314 380.6896551724138,50.97381512705175 398.62068965517244,50.54484792516905 416.55172413793105,50.330364324227716 434.48275862068965,49.12389406893264 452.41379310344826,47.032678959754534 470.3448275862069,45.263189251988436 488.2758620689655,45.021895200929436 506.2068965517241,44.834222050105765 524.1379310344828,44.56611754892907 542.0689655172414,44.485686198576076 560.0,44.271202597634726" fill="none" stroke="#00f2fe" stroke-width="4" stroke-linecap="round" stroke-linejoin="round" />
    
    <!-- End Point -->
    <circle cx="560.0" cy="44.271202597634726" r="6" fill="#fff" stroke="#00f2fe" stroke-width="3" />
    
    <!-- Labels -->
    <text x="560" y="30" font-family="Arial, sans-serif" font-size="20" font-weight="bold" fill="#00f2fe" text-anchor="end">5323 Total Installs</text>
    <text x="40" y="145" font-family="Arial, sans-serif" font-size="12" fill="#888" text-anchor="start">Global Adoption History</text>
    </svg>