<svg width="600" height="150" xmlns="http://www.w3.org/2000/svg">
    <defs>
        <linearGradient id="areaGrad" x1="0%" y1="0%" x2="0%" y2="100%">
            <stop offset="0%" style="stop-color:#4facfe;stop-opacity:0.4" />
            <stop offset="100%" style="stop-color:#4facfe;stop-opacity:0" />
        </linearGradient>
    </defs>
    
    <!-- Area -->
    <polygon points="40,120 40.0,111.92135071596495 57.93103448275862,110.65734436540164 75.86206896551724,96.4235337221018 93.79310344827587,81.09058712179038 111.72413793103448,72.10515067322078 129.6551724137931,69.9893139559735 147.58620689655174,68.9726131957378 165.51724137931035,62.130491863340765 183.44827586206895,58.94299758800721 201.3793103448276,58.80560559338076 219.31034482758622,55.6181113180472 237.24137931034483,54.354104967483906 255.17241379310346,53.3099258083229 273.1034482758621,52.87027142551828 291.0344827586207,52.650444234115966 308.9655172413793,51.41391628247794 326.8965517241379,49.27060116630538 344.82758620689657,47.457026837236285 362.7586206896552,47.209721246908686 380.6896551724138,47.01737245443165 398.62068965517244,46.74258846517877 416.55172413793105,46.660153268402894 434.48275862068965,46.44032607700059 452.41379310344826,46.24797728452356 470.3448275862069,46.1380636888224 488.2758620689655,45.34119011998901 506.2068965517241,45.17631972643727 524.1379310344828,45.01144933288553 542.0689655172414,44.87405733825909 560.0,44.79162214148323 560,120" fill="url(#areaGrad)" />
    
    <!-- X-Axis -->
    <line x1="40" y1="120" x2="560" y2="120" stroke="#888" stroke-width="2" />
    
    <!-- Growth Line -->
    <polyline points="40.0,111.92135071596495 57.93103448275862,110.65734436540164 75.86206896551724,96.4235337221018 93.79310344827587,81.09058712179038 111.72413793103448,72.10515067322078 129.6551724137931,69.9893139559735 147.58620689655174,68.9726131957378 165.51724137931035,62.130491863340765 183.44827586206895,58.94299758800721 201.3793103448276,58.80560559338076 219.31034482758622,55.6181113180472 237.24137931034483,54.354104967483906 255.17241379310346,53.3099258083229 273.1034482758621,52.87027142551828 291.0344827586207,52.650444234115966 308.9655172413793,51.41391628247794 326.8965517241379,49.27060116630538 344.82758620689657,47.457026837236285 362.7586206896552,47.209721246908686 380.6896551724138,47.01737245443165 398.62068965517244,46.74258846517877 416.55172413793105,46.660153268402894 434.48275862068965,46.44032607700059 452.41379310344826,46.24797728452356 470.3448275862069,46.1380636888224 488.2758620689655,45.34119011998901 506.2068965517241,45.17631972643727 524.1379310344828,45.01144933288553 542.0689655172414,44.87405733825909 560.0,44.79162214148323" fill="none" stroke="#00f2fe" stroke-width="4" stroke-linecap="round" stroke-linejoin="round" />
    
    <!-- End Point -->
    <circle cx="560.0" cy="44.79162214148323" r="6" fill="#fff" stroke="#00f2fe" stroke-width="3" />
    
    <!-- Labels -->
    <text x="560" y="30" font-family="Arial, sans-serif" font-size="20" font-weight="bold" fill="#00f2fe" text-anchor="end">5383 Total Installs</text>
    <text x="40" y="145" font-family="Arial, sans-serif" font-size="12" fill="#888" text-anchor="start">Global Adoption History</text>
    </svg>