<svg width="600" height="150" xmlns="http://www.w3.org/2000/svg">
    <defs>
        <linearGradient id="areaGrad" x1="0%" y1="0%" x2="0%" y2="100%">
            <stop offset="0%" style="stop-color:#4facfe;stop-opacity:0.4" />
            <stop offset="100%" style="stop-color:#4facfe;stop-opacity:0" />
        </linearGradient>
    </defs>
    
    <!-- Area -->
    <polygon points="40,120 40.0,119.6328029375765 77.14285714285714,114.58384332925337 114.28571428571429,109.35128518971848 151.42857142857144,104.57772337821298 188.57142857142858,99.1921664626683 225.71428571428572,96.13219094247246 262.8571428571429,92.88861689106487 300.0,79.60832313341493 337.14285714285717,70.64259485924113 374.2857142857143,68.3170134638923 411.42857142857144,65.10403916768666 448.57142857142856,63.390452876377 485.7142857142857,41.419828641370884 522.8571428571429,38.574051407588755 560.0,38.48225214198287 560,120" fill="url(#areaGrad)" />
    
    <!-- X-Axis -->
    <line x1="40" y1="120" x2="560" y2="120" stroke="#888" stroke-width="2" />
    
    <!-- Growth Line -->
    <polyline points="40.0,119.6328029375765 77.14285714285714,114.58384332925337 114.28571428571429,109.35128518971848 151.42857142857144,104.57772337821298 188.57142857142858,99.1921664626683 225.71428571428572,96.13219094247246 262.8571428571429,92.88861689106487 300.0,79.60832313341493 337.14285714285717,70.64259485924113 374.2857142857143,68.3170134638923 411.42857142857144,65.10403916768666 448.57142857142856,63.390452876377 485.7142857142857,41.419828641370884 522.8571428571429,38.574051407588755 560.0,38.48225214198287" fill="none" stroke="#00f2fe" stroke-width="4" stroke-linecap="round" stroke-linejoin="round" />
    
    <!-- End Point -->
    <circle cx="560.0" cy="38.48225214198287" r="6" fill="#fff" stroke="#00f2fe" stroke-width="3" />
    
    <!-- Labels -->
    <text x="560" y="30" font-family="Arial, sans-serif" font-size="20" font-weight="bold" fill="#00f2fe" text-anchor="end">2772 Total Installs</text>
    <text x="40" y="145" font-family="Arial, sans-serif" font-size="12" fill="#888" text-anchor="start">Global Adoption History</text>
    </svg>