<svg width="600" height="150" xmlns="http://www.w3.org/2000/svg">
    <defs>
        <linearGradient id="areaGrad" x1="0%" y1="0%" x2="0%" y2="100%">
            <stop offset="0%" style="stop-color:#4facfe;stop-opacity:0.4" />
            <stop offset="100%" style="stop-color:#4facfe;stop-opacity:0" />
        </linearGradient>
    </defs>
    
    <!-- Area -->
    <polygon points="40,120 40.0,119.63335143943509 74.66666666666666,114.59193373166757 109.33333333333333,109.3671917436176 144.0,104.60076045627376 178.66666666666666,99.22324823465507 213.33333333333334,96.16784356328083 248.0,92.92911461162413 282.66666666666663,79.66865833785985 317.3333333333333,70.7163226507333 352.0,68.39421510048888 386.6666666666667,65.1860401955459 421.3333333333333,63.47501357957632 456.0,41.53720803910919 490.6666666666667,38.695681694731135 525.3333333333333,38.60401955458991 560.0,38.48180336773494 560,120" fill="url(#areaGrad)" />
    
    <!-- X-Axis -->
    <line x1="40" y1="120" x2="560" y2="120" stroke="#888" stroke-width="2" />
    
    <!-- Growth Line -->
    <polyline points="40.0,119.63335143943509 74.66666666666666,114.59193373166757 109.33333333333333,109.3671917436176 144.0,104.60076045627376 178.66666666666666,99.22324823465507 213.33333333333334,96.16784356328083 248.0,92.92911461162413 282.66666666666663,79.66865833785985 317.3333333333333,70.7163226507333 352.0,68.39421510048888 386.6666666666667,65.1860401955459 421.3333333333333,63.47501357957632 456.0,41.53720803910919 490.6666666666667,38.695681694731135 525.3333333333333,38.60401955458991 560.0,38.48180336773494" fill="none" stroke="#00f2fe" stroke-width="4" stroke-linecap="round" stroke-linejoin="round" />
    
    <!-- End Point -->
    <circle cx="560.0" cy="38.48180336773494" r="6" fill="#fff" stroke="#00f2fe" stroke-width="3" />
    
    <!-- Labels -->
    <text x="560" y="30" font-family="Arial, sans-serif" font-size="20" font-weight="bold" fill="#00f2fe" text-anchor="end">2776 Total Installs</text>
    <text x="40" y="145" font-family="Arial, sans-serif" font-size="12" fill="#888" text-anchor="start">Global Adoption History</text>
    </svg>