<svg width="600" height="150" xmlns="http://www.w3.org/2000/svg">
    <defs>
        <linearGradient id="areaGrad" x1="0%" y1="0%" x2="0%" y2="100%">
            <stop offset="0%" style="stop-color:#4facfe;stop-opacity:0.4" />
            <stop offset="100%" style="stop-color:#4facfe;stop-opacity:0" />
        </linearGradient>
    </defs>
    
    <!-- Area -->
    <polygon points="40,120 40.0,119.65341291999614 67.36842105263158,114.8878405699432 94.73684210526315,109.94897467988832 122.10526315789474,105.44334263983826 149.4736842105263,100.36006546644845 176.8421052631579,97.47183979974969 204.21052631578948,94.41032059304901 231.57894736842104,81.87542119957641 258.9473684210526,73.41291999614904 286.3157894736842,71.21786848945797 313.6842105263158,68.1852315394243 341.05263157894734,66.56782516607298 368.42105263157896,45.8303648791759 395.7894736842105,43.144315009146055 423.1578947368421,43.0576682391451 450.5263157894737,42.942139212477144 477.89473684210526,42.76884567247522 505.2631578947368,41.4113796091268 532.6315789473684,39.851737749109475 560.0,38.465389429094074 560,120" fill="url(#areaGrad)" />
    
    <!-- X-Axis -->
    <line x1="40" y1="120" x2="560" y2="120" stroke="#888" stroke-width="2" />
    
    <!-- Growth Line -->
    <polyline points="40.0,119.65341291999614 67.36842105263158,114.8878405699432 94.73684210526315,109.94897467988832 122.10526315789474,105.44334263983826 149.4736842105263,100.36006546644845 176.8421052631579,97.47183979974969 204.21052631578948,94.41032059304901 231.57894736842104,81.87542119957641 258.9473684210526,73.41291999614904 286.3157894736842,71.21786848945797 313.6842105263158,68.1852315394243 341.05263157894734,66.56782516607298 368.42105263157896,45.8303648791759 395.7894736842105,43.144315009146055 423.1578947368421,43.0576682391451 450.5263157894737,42.942139212477144 477.89473684210526,42.76884567247522 505.2631578947368,41.4113796091268 532.6315789473684,39.851737749109475 560.0,38.465389429094074" fill="none" stroke="#00f2fe" stroke-width="4" stroke-linecap="round" stroke-linejoin="round" />
    
    <!-- End Point -->
    <circle cx="560.0" cy="38.465389429094074" r="6" fill="#fff" stroke="#00f2fe" stroke-width="3" />
    
    <!-- Labels -->
    <text x="560" y="30" font-family="Arial, sans-serif" font-size="20" font-weight="bold" fill="#00f2fe" text-anchor="end">2931 Total Installs</text>
    <text x="40" y="145" font-family="Arial, sans-serif" font-size="12" fill="#888" text-anchor="start">Global Adoption History</text>
    </svg>