<svg width="600" height="150" xmlns="http://www.w3.org/2000/svg">
    <defs>
        <linearGradient id="areaGrad" x1="0%" y1="0%" x2="0%" y2="100%">
            <stop offset="0%" style="stop-color:#4facfe;stop-opacity:0.4" />
            <stop offset="100%" style="stop-color:#4facfe;stop-opacity:0" />
        </linearGradient>
    </defs>
    
    <!-- Area -->
    <polygon points="40,120 40.0,119.71172325432416 61.66666666666667,115.74791800128123 83.33333333333334,111.63997437540039 105.0,107.89237668161435 126.66666666666667,103.66431774503523 148.33333333333331,101.26201153106983 170.0,98.7155669442665 191.66666666666666,88.28955797565663 213.33333333333334,81.25080076873799 235.0,79.42504804612429 256.66666666666663,76.9026265214606 278.33333333333337,75.55733504163997 300.0,58.30877642536836 321.6666666666667,56.074631646380524 343.3333333333333,56.00256245996157 365.0,55.90647021140295 386.6666666666667,55.76233183856502 408.3333333333333,54.63324791800129 430.0,53.33600256245997 451.6666666666667,52.182895579756575 473.3333333333333,51.990711082639336 495.0,51.990711082639336 516.6666666666667,51.96668802049969 538.3333333333333,50.86162716207559 560.0,38.41768097373479 560,120" fill="url(#areaGrad)" />
    
    <!-- X-Axis -->
    <line x1="40" y1="120" x2="560" y2="120" stroke="#888" stroke-width="2" />
    
    <!-- Growth Line -->
    <polyline points="40.0,119.71172325432416 61.66666666666667,115.74791800128123 83.33333333333334,111.63997437540039 105.0,107.89237668161435 126.66666666666667,103.66431774503523 148.33333333333331,101.26201153106983 170.0,98.7155669442665 191.66666666666666,88.28955797565663 213.33333333333334,81.25080076873799 235.0,79.42504804612429 256.66666666666663,76.9026265214606 278.33333333333337,75.55733504163997 300.0,58.30877642536836 321.6666666666667,56.074631646380524 343.3333333333333,56.00256245996157 365.0,55.90647021140295 386.6666666666667,55.76233183856502 408.3333333333333,54.63324791800129 430.0,53.33600256245997 451.6666666666667,52.182895579756575 473.3333333333333,51.990711082639336 495.0,51.990711082639336 516.6666666666667,51.96668802049969 538.3333333333333,50.86162716207559 560.0,38.41768097373479" fill="none" stroke="#00f2fe" stroke-width="4" stroke-linecap="round" stroke-linejoin="round" />
    
    <!-- End Point -->
    <circle cx="560.0" cy="38.41768097373479" r="6" fill="#fff" stroke="#00f2fe" stroke-width="3" />
    
    <!-- Labels -->
    <text x="560" y="30" font-family="Arial, sans-serif" font-size="20" font-weight="bold" fill="#00f2fe" text-anchor="end">3504 Total Installs</text>
    <text x="40" y="145" font-family="Arial, sans-serif" font-size="12" fill="#888" text-anchor="start">Global Adoption History</text>
    </svg>