<svg width="600" height="150" xmlns="http://www.w3.org/2000/svg">
    <defs>
        <linearGradient id="areaGrad" x1="0%" y1="0%" x2="0%" y2="100%">
            <stop offset="0%" style="stop-color:#4facfe;stop-opacity:0.4" />
            <stop offset="100%" style="stop-color:#4facfe;stop-opacity:0" />
        </linearGradient>
    </defs>
    
    <!-- Area -->
    <polygon points="40,120 40.0,112.14821763602252 57.93103448275862,110.84094898020942 75.86206896551724,110.62307087090723 93.79310344827587,110.62307087090723 111.72413793103448,110.59583610724445 129.6551724137931,109.34303697875688 147.58620689655174,95.23542940144043 165.51724137931035,80.03843127761303 183.44827586206895,71.13266355988623 201.3793103448276,69.0355867578527 219.31034482758622,68.0279005023301 237.24137931034483,61.24644435029959 255.17241379310346,58.08721176541791 273.1034482758621,57.95103794710404 291.0344827586207,54.79180536222236 308.9655172413793,53.539006233734796 326.8965517241379,52.50408521454942 344.82758620689657,52.06832899594505 362.7586206896552,51.850450886642875 380.6896551724138,50.62488652181807 398.62068965517244,48.50057495612178 416.55172413793105,46.703080554378744 434.48275862068965,46.45796768141379 452.41379310344826,46.267324335774376 470.3448275862069,45.99497669914665 488.2758620689655,45.913272408158335 506.2068965517241,45.695394298856144 524.1379310344828,45.50475095321673 542.0689655172414,45.39581189856564 560.0,44.60600375234522 560,120" fill="url(#areaGrad)" />
    
    <!-- X-Axis -->
    <line x1="40" y1="120" x2="560" y2="120" stroke="#888" stroke-width="2" />
    
    <!-- Growth Line -->
    <polyline points="40.0,112.14821763602252 57.93103448275862,110.84094898020942 75.86206896551724,110.62307087090723 93.79310344827587,110.62307087090723 111.72413793103448,110.59583610724445 129.6551724137931,109.34303697875688 147.58620689655174,95.23542940144043 165.51724137931035,80.03843127761303 183.44827586206895,71.13266355988623 201.3793103448276,69.0355867578527 219.31034482758622,68.0279005023301 237.24137931034483,61.24644435029959 255.17241379310346,58.08721176541791 273.1034482758621,57.95103794710404 291.0344827586207,54.79180536222236 308.9655172413793,53.539006233734796 326.8965517241379,52.50408521454942 344.82758620689657,52.06832899594505 362.7586206896552,51.850450886642875 380.6896551724138,50.62488652181807 398.62068965517244,48.50057495612178 416.55172413793105,46.703080554378744 434.48275862068965,46.45796768141379 452.41379310344826,46.267324335774376 470.3448275862069,45.99497669914665 488.2758620689655,45.913272408158335 506.2068965517241,45.695394298856144 524.1379310344828,45.50475095321673 542.0689655172414,45.39581189856564 560.0,44.60600375234522" fill="none" stroke="#00f2fe" stroke-width="4" stroke-linecap="round" stroke-linejoin="round" />
    
    <!-- End Point -->
    <circle cx="560.0" cy="44.60600375234522" r="6" fill="#fff" stroke="#00f2fe" stroke-width="3" />
    
    <!-- Labels -->
    <text x="560" y="30" font-family="Arial, sans-serif" font-size="20" font-weight="bold" fill="#00f2fe" text-anchor="end">5363 Total Installs</text>
    <text x="40" y="145" font-family="Arial, sans-serif" font-size="12" fill="#888" text-anchor="start">Global Adoption History</text>
    </svg>