<svg width="600" height="150" xmlns="http://www.w3.org/2000/svg">
    <defs>
        <linearGradient id="areaGrad" x1="0%" y1="0%" x2="0%" y2="100%">
            <stop offset="0%" style="stop-color:#4facfe;stop-opacity:0.4" />
            <stop offset="100%" style="stop-color:#4facfe;stop-opacity:0" />
        </linearGradient>
    </defs>
    
    <!-- Area -->
    <polygon points="40,120 40.0,90.18999738835204 57.93103448275862,89.24980412640376 75.86206896551724,88.77970749542962 93.79310344827587,86.13541394620005 111.72413793103448,81.55197179420213 129.6551724137931,77.67367458866545 147.58620689655174,77.14481587881954 165.51724137931035,76.73348132671717 183.44827586206895,76.14586053799948 201.3793103448276,75.96957430138417 219.31034482758622,75.49947767041003 237.24137931034483,75.08814311830764 255.17241379310346,74.85309480282058 273.1034482758621,73.1489945155393 291.0344827586207,72.7964220423087 308.9655172413793,72.44384956907808 326.8965517241379,72.15003917471925 344.82758620689657,71.97375293810396 362.7586206896552,70.44593888743796 380.6896551724138,68.80060067902846 398.62068965517244,65.09858971010709 416.55172413793105,64.68725515800472 434.48275862068965,64.27592060590231 452.41379310344826,64.15839644815878 470.3448275862069,63.74706189605641 488.2758620689655,63.51201358056934 506.2068965517241,63.27696526508227 524.1379310344828,63.15944110733873 542.0689655172414,62.80686863410812 560.0,62.57182031862105 560,120" fill="url(#areaGrad)" />
    
    <!-- X-Axis -->
    <line x1="40" y1="120" x2="560" y2="120" stroke="#888" stroke-width="2" />
    
    <!-- Growth Line -->
    <polyline points="40.0,90.18999738835204 57.93103448275862,89.24980412640376 75.86206896551724,88.77970749542962 93.79310344827587,86.13541394620005 111.72413793103448,81.55197179420213 129.6551724137931,77.67367458866545 147.58620689655174,77.14481587881954 165.51724137931035,76.73348132671717 183.44827586206895,76.14586053799948 201.3793103448276,75.96957430138417 219.31034482758622,75.49947767041003 237.24137931034483,75.08814311830764 255.17241379310346,74.85309480282058 273.1034482758621,73.1489945155393 291.0344827586207,72.7964220423087 308.9655172413793,72.44384956907808 326.8965517241379,72.15003917471925 344.82758620689657,71.97375293810396 362.7586206896552,70.44593888743796 380.6896551724138,68.80060067902846 398.62068965517244,65.09858971010709 416.55172413793105,64.68725515800472 434.48275862068965,64.27592060590231 452.41379310344826,64.15839644815878 470.3448275862069,63.74706189605641 488.2758620689655,63.51201358056934 506.2068965517241,63.27696526508227 524.1379310344828,63.15944110733873 542.0689655172414,62.80686863410812 560.0,62.57182031862105" fill="none" stroke="#00f2fe" stroke-width="4" stroke-linecap="round" stroke-linejoin="round" />
    
    <!-- End Point -->
    <circle cx="560.0" cy="62.57182031862105" r="6" fill="#fff" stroke="#00f2fe" stroke-width="3" />
    
    <!-- Labels -->
    <text x="560" y="30" font-family="Arial, sans-serif" font-size="20" font-weight="bold" fill="#00f2fe" text-anchor="end">5543 Total Installs</text>
    <text x="40" y="145" font-family="Arial, sans-serif" font-size="12" fill="#888" text-anchor="start">Global Adoption History</text>
    </svg>