<svg width="600" height="150" xmlns="http://www.w3.org/2000/svg">
    <defs>
        <linearGradient id="areaGrad" x1="0%" y1="0%" x2="0%" y2="100%">
            <stop offset="0%" style="stop-color:#4facfe;stop-opacity:0.4" />
            <stop offset="100%" style="stop-color:#4facfe;stop-opacity:0" />
        </linearGradient>
    </defs>
    
    <!-- Area -->
    <polygon points="40,120 40.0,119.77118159283036 60.0,116.62492849424775 80.0,113.36426619208034 100.0,110.38962689887498 120.0,107.03362359372021 140.0,105.12680353397317 160.0,103.10557427064133 180.0,94.82997521133922 200.0,89.24299243628043 220.0,87.7938091908727 240.0,85.79164812813832 260.0,84.72382889467997 280.0,71.0328608656963 300.0,69.25951821013157 320.0,69.20231360833915 340.0,69.12604080594929 360.0,69.01163160236446 380.0,68.11542617428336 400.0,67.08574334201997 420.0,66.17046971334139 440.0,66.01792410856163 460.0,66.01792410856163 480.0,65.99885590796416 500.0,65.12171868048053 520.0,55.24439077099092 540.0,44.60433483760251 560.0,38.36903324222972 560,120" fill="url(#areaGrad)" />
    
    <!-- X-Axis -->
    <line x1="40" y1="120" x2="560" y2="120" stroke="#888" stroke-width="2" />
    
    <!-- Growth Line -->
    <polyline points="40.0,119.77118159283036 60.0,116.62492849424775 80.0,113.36426619208034 100.0,110.38962689887498 120.0,107.03362359372021 140.0,105.12680353397317 160.0,103.10557427064133 180.0,94.82997521133922 200.0,89.24299243628043 220.0,87.7938091908727 240.0,85.79164812813832 260.0,84.72382889467997 280.0,71.0328608656963 300.0,69.25951821013157 320.0,69.20231360833915 340.0,69.12604080594929 360.0,69.01163160236446 380.0,68.11542617428336 400.0,67.08574334201997 420.0,66.17046971334139 440.0,66.01792410856163 460.0,66.01792410856163 480.0,65.99885590796416 500.0,65.12171868048053 520.0,55.24439077099092 540.0,44.60433483760251 560.0,38.36903324222972" fill="none" stroke="#00f2fe" stroke-width="4" stroke-linecap="round" stroke-linejoin="round" />
    
    <!-- End Point -->
    <circle cx="560.0" cy="38.36903324222972" r="6" fill="#fff" stroke="#00f2fe" stroke-width="3" />
    
    <!-- Labels -->
    <text x="560" y="30" font-family="Arial, sans-serif" font-size="20" font-weight="bold" fill="#00f2fe" text-anchor="end">4389 Total Installs</text>
    <text x="40" y="145" font-family="Arial, sans-serif" font-size="12" fill="#888" text-anchor="start">Global Adoption History</text>
    </svg>