<svg width="600" height="150" xmlns="http://www.w3.org/2000/svg">
    <defs>
        <linearGradient id="areaGrad" x1="0%" y1="0%" x2="0%" y2="100%">
            <stop offset="0%" style="stop-color:#4facfe;stop-opacity:0.4" />
            <stop offset="100%" style="stop-color:#4facfe;stop-opacity:0" />
        </linearGradient>
    </defs>
    
    <!-- Area -->
    <polygon points="40,120 40.0,119.6543889404461 64.76190476190476,114.90223687157989 89.52380952380952,109.97727927293673 114.28571428571429,105.48433549873596 139.04761904761904,100.41537329194534 163.8095238095238,97.53528112899613 188.57142857142858,94.48238343626997 213.33333333333334,81.98278344907037 238.0952380952381,73.54411341162917 262.8571428571429,71.35524336778778 287.6190476190476,68.3311465966911 312.3809523809524,66.71829498543954 337.14285714285717,46.03923325546417 361.9047619047619,43.360747543921406 386.6666666666667,43.27434477903293 411.42857142857144,43.15914109251497 436.1904761904762,42.986335562738006 460.95238095238096,41.632692246151876 485.7142857142857,40.0774424781593 510.4761904761905,38.69499823994367 535.2380952380952,38.46459086690774 560.0,38.46459086690774 560,120" fill="url(#areaGrad)" />
    
    <!-- X-Axis -->
    <line x1="40" y1="120" x2="560" y2="120" stroke="#888" stroke-width="2" />
    
    <!-- Growth Line -->
    <polyline points="40.0,119.6543889404461 64.76190476190476,114.90223687157989 89.52380952380952,109.97727927293673 114.28571428571429,105.48433549873596 139.04761904761904,100.41537329194534 163.8095238095238,97.53528112899613 188.57142857142858,94.48238343626997 213.33333333333334,81.98278344907037 238.0952380952381,73.54411341162917 262.8571428571429,71.35524336778778 287.6190476190476,68.3311465966911 312.3809523809524,66.71829498543954 337.14285714285717,46.03923325546417 361.9047619047619,43.360747543921406 386.6666666666667,43.27434477903293 411.42857142857144,43.15914109251497 436.1904761904762,42.986335562738006 460.95238095238096,41.632692246151876 485.7142857142857,40.0774424781593 510.4761904761905,38.69499823994367 535.2380952380952,38.46459086690774 560.0,38.46459086690774" fill="none" stroke="#00f2fe" stroke-width="4" stroke-linecap="round" stroke-linejoin="round" />
    
    <!-- End Point -->
    <circle cx="560.0" cy="38.46459086690774" r="6" fill="#fff" stroke="#00f2fe" stroke-width="3" />
    
    <!-- Labels -->
    <text x="560" y="30" font-family="Arial, sans-serif" font-size="20" font-weight="bold" fill="#00f2fe" text-anchor="end">2939 Total Installs</text>
    <text x="40" y="145" font-family="Arial, sans-serif" font-size="12" fill="#888" text-anchor="start">Global Adoption History</text>
    </svg>