<svg width="600" height="150" xmlns="http://www.w3.org/2000/svg">
    <defs>
        <linearGradient id="areaGrad" x1="0%" y1="0%" x2="0%" y2="100%">
            <stop offset="0%" style="stop-color:#4facfe;stop-opacity:0.4" />
            <stop offset="100%" style="stop-color:#4facfe;stop-opacity:0" />
        </linearGradient>
    </defs>
    
    <!-- Area -->
    <polygon points="40,120 40.0,119.65451055662189 63.63636363636364,114.90403071017275 87.27272727272728,109.98080614203455 110.9090909090909,105.489443378119 134.54545454545456,100.42226487523993 158.1818181818182,97.54318618042227 181.8181818181818,94.49136276391555 205.45454545454547,81.99616122840692 229.0909090909091,73.56046065259119 252.72727272727272,71.37236084452977 276.3636363636364,68.34932821497122 300.0,66.73704414587334 323.6363636363636,46.06525911708253 347.27272727272725,43.38771593090212 370.90909090909093,43.3013435700576 394.54545454545456,43.18618042226488 418.1818181818182,43.013435700575826 441.8181818181818,41.660268714011536 465.45454545454544,40.10556621881 489.09090909090907,38.723608445297515 512.7272727272727,38.4932821497121 536.3636363636364,38.4932821497121 560.0,38.46449136276394 560,120" fill="url(#areaGrad)" />
    
    <!-- X-Axis -->
    <line x1="40" y1="120" x2="560" y2="120" stroke="#888" stroke-width="2" />
    
    <!-- Growth Line -->
    <polyline points="40.0,119.65451055662189 63.63636363636364,114.90403071017275 87.27272727272728,109.98080614203455 110.9090909090909,105.489443378119 134.54545454545456,100.42226487523993 158.1818181818182,97.54318618042227 181.8181818181818,94.49136276391555 205.45454545454547,81.99616122840692 229.0909090909091,73.56046065259119 252.72727272727272,71.37236084452977 276.3636363636364,68.34932821497122 300.0,66.73704414587334 323.6363636363636,46.06525911708253 347.27272727272725,43.38771593090212 370.90909090909093,43.3013435700576 394.54545454545456,43.18618042226488 418.1818181818182,43.013435700575826 441.8181818181818,41.660268714011536 465.45454545454544,40.10556621881 489.09090909090907,38.723608445297515 512.7272727272727,38.4932821497121 536.3636363636364,38.4932821497121 560.0,38.46449136276394" fill="none" stroke="#00f2fe" stroke-width="4" stroke-linecap="round" stroke-linejoin="round" />
    
    <!-- End Point -->
    <circle cx="560.0" cy="38.46449136276394" r="6" fill="#fff" stroke="#00f2fe" stroke-width="3" />
    
    <!-- Labels -->
    <text x="560" y="30" font-family="Arial, sans-serif" font-size="20" font-weight="bold" fill="#00f2fe" text-anchor="end">2940 Total Installs</text>
    <text x="40" y="145" font-family="Arial, sans-serif" font-size="12" fill="#888" text-anchor="start">Global Adoption History</text>
    </svg>