<svg width="600" height="150" xmlns="http://www.w3.org/2000/svg">
    <defs>
        <linearGradient id="areaGrad" x1="0%" y1="0%" x2="0%" y2="100%">
            <stop offset="0%" style="stop-color:#4facfe;stop-opacity:0.4" />
            <stop offset="100%" style="stop-color:#4facfe;stop-opacity:0" />
        </linearGradient>
    </defs>
    
    <!-- Area -->
    <polygon points="40,120 40.0,92.79833246482544 57.93103448275862,89.35904116727463 75.86206896551724,88.89004689942679 93.79310344827587,88.52527357998959 111.72413793103448,88.00416883793643 129.6551724137931,87.8478374153205 147.58620689655174,87.43095362167796 165.51724137931035,87.06618030224075 183.44827586206895,86.8577384054195 201.3793103448276,85.34653465346535 219.31034482758622,85.03387180823347 237.24137931034483,84.72120896300157 255.17241379310346,84.460656591975 273.1034482758621,84.30432516935906 291.0344827586207,82.94945284002085 308.9655172413793,81.49035956227203 326.8965517241379,78.20739968733716 344.82758620689657,77.84262636789995 362.7586206896552,77.47785304846275 380.6896551724138,77.37363210005212 398.62068965517244,77.0088587806149 416.55172413793105,76.80041688379364 434.48275862068965,76.59197498697239 452.41379310344826,76.48775403856176 470.3448275862069,76.17509119332988 488.2758620689655,75.9666492965086 506.2068965517241,75.54976550286608 524.1379310344828,75.23710265763418 542.0689655172414,60.64616988014592 560.0,60.43772798332466 560,120" fill="url(#areaGrad)" />
    
    <!-- X-Axis -->
    <line x1="40" y1="120" x2="560" y2="120" stroke="#888" stroke-width="2" />
    
    <!-- Growth Line -->
    <polyline points="40.0,92.79833246482544 57.93103448275862,89.35904116727463 75.86206896551724,88.89004689942679 93.79310344827587,88.52527357998959 111.72413793103448,88.00416883793643 129.6551724137931,87.8478374153205 147.58620689655174,87.43095362167796 165.51724137931035,87.06618030224075 183.44827586206895,86.8577384054195 201.3793103448276,85.34653465346535 219.31034482758622,85.03387180823347 237.24137931034483,84.72120896300157 255.17241379310346,84.460656591975 273.1034482758621,84.30432516935906 291.0344827586207,82.94945284002085 308.9655172413793,81.49035956227203 326.8965517241379,78.20739968733716 344.82758620689657,77.84262636789995 362.7586206896552,77.47785304846275 380.6896551724138,77.37363210005212 398.62068965517244,77.0088587806149 416.55172413793105,76.80041688379364 434.48275862068965,76.59197498697239 452.41379310344826,76.48775403856176 470.3448275862069,76.17509119332988 488.2758620689655,75.9666492965086 506.2068965517241,75.54976550286608 524.1379310344828,75.23710265763418 542.0689655172414,60.64616988014592 560.0,60.43772798332466" fill="none" stroke="#00f2fe" stroke-width="4" stroke-linecap="round" stroke-linejoin="round" />
    
    <!-- End Point -->
    <circle cx="560.0" cy="60.43772798332466" r="6" fill="#fff" stroke="#00f2fe" stroke-width="3" />
    
    <!-- Labels -->
    <text x="560" y="30" font-family="Arial, sans-serif" font-size="20" font-weight="bold" fill="#00f2fe" text-anchor="end">5841 Total Installs</text>
    <text x="40" y="145" font-family="Arial, sans-serif" font-size="12" fill="#888" text-anchor="start">Global Adoption History</text>
    </svg>