<svg width="600" height="150" xmlns="http://www.w3.org/2000/svg">
    <defs>
        <linearGradient id="areaGrad" x1="0%" y1="0%" x2="0%" y2="100%">
            <stop offset="0%" style="stop-color:#4facfe;stop-opacity:0.4" />
            <stop offset="100%" style="stop-color:#4facfe;stop-opacity:0" />
        </linearGradient>
    </defs>
    
    <!-- Area -->
    <polygon points="40,120 40.0,111.91817654068258 57.93103448275862,111.89067799199486 75.86206896551724,110.62574475236029 93.79310344827587,96.38149653212747 111.72413793103448,81.03730636438632 129.6551724137931,72.04528094350577 147.58620689655174,69.92789269455224 165.51724137931035,68.91044639310704 183.44827586206895,62.06330776986772 201.3793103448276,58.87347612209358 219.31034482758622,58.735983378655035 237.24137931034483,55.546151730880894 255.17241379310346,54.28121849124631 273.1034482758621,53.2362736411134 291.0344827586207,52.79629686211007 308.9655172413793,52.5763084726084 326.8965517241379,51.33887378166153 344.82758620689657,49.19398698402031 362.7586206896552,47.37908277063157 380.6896551724138,47.13159583244219 398.62068965517244,46.93910599162824 416.55172413793105,46.66412050475115 434.48275862068965,46.58162485868803 452.41379310344826,46.361636469186365 470.3448275862069,46.16914662837242 488.2758620689655,46.05915243362158 506.2068965517241,45.26169452167805 524.1379310344828,45.09670322955179 542.0689655172414,44.93171193742555 560.0,44.794219193987004 560,120" fill="url(#areaGrad)" />
    
    <!-- X-Axis -->
    <line x1="40" y1="120" x2="560" y2="120" stroke="#888" stroke-width="2" />
    
    <!-- Growth Line -->
    <polyline points="40.0,111.91817654068258 57.93103448275862,111.89067799199486 75.86206896551724,110.62574475236029 93.79310344827587,96.38149653212747 111.72413793103448,81.03730636438632 129.6551724137931,72.04528094350577 147.58620689655174,69.92789269455224 165.51724137931035,68.91044639310704 183.44827586206895,62.06330776986772 201.3793103448276,58.87347612209358 219.31034482758622,58.735983378655035 237.24137931034483,55.546151730880894 255.17241379310346,54.28121849124631 273.1034482758621,53.2362736411134 291.0344827586207,52.79629686211007 308.9655172413793,52.5763084726084 326.8965517241379,51.33887378166153 344.82758620689657,49.19398698402031 362.7586206896552,47.37908277063157 380.6896551724138,47.13159583244219 398.62068965517244,46.93910599162824 416.55172413793105,46.66412050475115 434.48275862068965,46.58162485868803 452.41379310344826,46.361636469186365 470.3448275862069,46.16914662837242 488.2758620689655,46.05915243362158 506.2068965517241,45.26169452167805 524.1379310344828,45.09670322955179 542.0689655172414,44.93171193742555 560.0,44.794219193987004" fill="none" stroke="#00f2fe" stroke-width="4" stroke-linecap="round" stroke-linejoin="round" />
    
    <!-- End Point -->
    <circle cx="560.0" cy="44.794219193987004" r="6" fill="#fff" stroke="#00f2fe" stroke-width="3" />
    
    <!-- Labels -->
    <text x="560" y="30" font-family="Arial, sans-serif" font-size="20" font-weight="bold" fill="#00f2fe" text-anchor="end">5380 Total Installs</text>
    <text x="40" y="145" font-family="Arial, sans-serif" font-size="12" fill="#888" text-anchor="start">Global Adoption History</text>
    </svg>