<svg width="600" height="150" xmlns="http://www.w3.org/2000/svg">
    <defs>
        <linearGradient id="areaGrad" x1="0%" y1="0%" x2="0%" y2="100%">
            <stop offset="0%" style="stop-color:#4facfe;stop-opacity:0.4" />
            <stop offset="100%" style="stop-color:#4facfe;stop-opacity:0" />
        </linearGradient>
    </defs>
    
    <!-- Area -->
    <polygon points="40,120 40.0,119.6543889404461 66.0,114.90223687157989 92.0,109.97727927293673 118.0,105.48433549873596 144.0,100.41537329194534 170.0,97.53528112899613 196.0,94.48238343626997 222.0,81.98278344907037 248.0,73.54411341162917 274.0,71.35524336778778 300.0,68.3311465966911 326.0,66.71829498543954 352.0,46.03923325546417 378.0,43.360747543921406 404.0,43.27434477903293 430.0,43.15914109251497 456.0,42.986335562738006 482.0,41.632692246151876 508.0,40.0774424781593 534.0,38.69499823994367 560.0,38.46459086690774 560,120" fill="url(#areaGrad)" />
    
    <!-- X-Axis -->
    <line x1="40" y1="120" x2="560" y2="120" stroke="#888" stroke-width="2" />
    
    <!-- Growth Line -->
    <polyline points="40.0,119.6543889404461 66.0,114.90223687157989 92.0,109.97727927293673 118.0,105.48433549873596 144.0,100.41537329194534 170.0,97.53528112899613 196.0,94.48238343626997 222.0,81.98278344907037 248.0,73.54411341162917 274.0,71.35524336778778 300.0,68.3311465966911 326.0,66.71829498543954 352.0,46.03923325546417 378.0,43.360747543921406 404.0,43.27434477903293 430.0,43.15914109251497 456.0,42.986335562738006 482.0,41.632692246151876 508.0,40.0774424781593 534.0,38.69499823994367 560.0,38.46459086690774" fill="none" stroke="#00f2fe" stroke-width="4" stroke-linecap="round" stroke-linejoin="round" />
    
    <!-- End Point -->
    <circle cx="560.0" cy="38.46459086690774" r="6" fill="#fff" stroke="#00f2fe" stroke-width="3" />
    
    <!-- Labels -->
    <text x="560" y="30" font-family="Arial, sans-serif" font-size="20" font-weight="bold" fill="#00f2fe" text-anchor="end">2939 Total Installs</text>
    <text x="40" y="145" font-family="Arial, sans-serif" font-size="12" fill="#888" text-anchor="start">Global Adoption History</text>
    </svg>