<svg width="600" height="150" xmlns="http://www.w3.org/2000/svg">
    <defs>
        <linearGradient id="areaGrad" x1="0%" y1="0%" x2="0%" y2="100%">
            <stop offset="0%" style="stop-color:#4facfe;stop-opacity:0.4" />
            <stop offset="100%" style="stop-color:#4facfe;stop-opacity:0" />
        </linearGradient>
    </defs>
    
    <!-- Area -->
    <polygon points="40,120 40.0,116.22890950259294 57.93103448275862,114.56358191512673 75.86206896551724,112.26280037981155 93.79310344827587,111.03571689431014 111.72413793103448,95.30275363377402 129.6551724137931,93.26491855963772 147.58620689655174,93.19918194434301 165.51724137931035,93.11153312395005 183.44827586206895,92.98005989336062 201.3793103448276,91.95018625374334 219.31034482758622,90.76692717843841 237.24137931034483,89.7151413337229 255.17241379310346,89.53984369293698 273.1034482758621,89.53984369293698 291.0344827586207,89.51793148783874 308.9655172413793,88.5099700533197 326.8965517241379,77.15944781243154 344.82758620689657,64.93243736761377 362.7586206896552,57.767146300489394 380.6896551724138,56.07990650792493 398.62068965517244,55.26915491929006 416.55172413793105,49.813015849828375 434.48275862068965,47.27120005843257 452.41379310344826,47.161639032941366 470.3448275862069,44.61982324154556 488.2758620689655,43.61186180702653 506.2068965517241,42.779198013293424 524.1379310344828,42.4286027317216 542.0689655172414,42.25330509093567 560.0,41.26725586151488 560,120" fill="url(#areaGrad)" />
    
    <!-- X-Axis -->
    <line x1="40" y1="120" x2="560" y2="120" stroke="#888" stroke-width="2" />
    
    <!-- Growth Line -->
    <polyline points="40.0,116.22890950259294 57.93103448275862,114.56358191512673 75.86206896551724,112.26280037981155 93.79310344827587,111.03571689431014 111.72413793103448,95.30275363377402 129.6551724137931,93.26491855963772 147.58620689655174,93.19918194434301 165.51724137931035,93.11153312395005 183.44827586206895,92.98005989336062 201.3793103448276,91.95018625374334 219.31034482758622,90.76692717843841 237.24137931034483,89.7151413337229 255.17241379310346,89.53984369293698 273.1034482758621,89.53984369293698 291.0344827586207,89.51793148783874 308.9655172413793,88.5099700533197 326.8965517241379,77.15944781243154 344.82758620689657,64.93243736761377 362.7586206896552,57.767146300489394 380.6896551724138,56.07990650792493 398.62068965517244,55.26915491929006 416.55172413793105,49.813015849828375 434.48275862068965,47.27120005843257 452.41379310344826,47.161639032941366 470.3448275862069,44.61982324154556 488.2758620689655,43.61186180702653 506.2068965517241,42.779198013293424 524.1379310344828,42.4286027317216 542.0689655172414,42.25330509093567 560.0,41.26725586151488" fill="none" stroke="#00f2fe" stroke-width="4" stroke-linecap="round" stroke-linejoin="round" />
    
    <!-- End Point -->
    <circle cx="560.0" cy="41.26725586151488" r="6" fill="#fff" stroke="#00f2fe" stroke-width="3" />
    
    <!-- Labels -->
    <text x="560" y="30" font-family="Arial, sans-serif" font-size="20" font-weight="bold" fill="#00f2fe" text-anchor="end">5142 Total Installs</text>
    <text x="40" y="145" font-family="Arial, sans-serif" font-size="12" fill="#888" text-anchor="start">Global Adoption History</text>
    </svg>