<svg width="600" height="150" xmlns="http://www.w3.org/2000/svg">
    <defs>
        <linearGradient id="areaGrad" x1="0%" y1="0%" x2="0%" y2="100%">
            <stop offset="0%" style="stop-color:#4facfe;stop-opacity:0.4" />
            <stop offset="100%" style="stop-color:#4facfe;stop-opacity:0" />
        </linearGradient>
    </defs>
    
    <!-- Area -->
    <polygon points="40,120 40.0,92.47993579454257 57.93103448275862,90.98371933042883 75.86206896551724,90.67415730337082 93.79310344827587,90.3645952763128 111.72413793103448,90.10662692043113 129.6551724137931,89.95184590690212 147.58620689655174,88.6104104563174 165.51724137931035,87.16578766337999 183.44827586206895,83.91538637927084 201.3793103448276,83.5542306810365 219.31034482758622,83.19307498280213 237.24137931034483,83.08988764044946 255.17241379310346,82.72873194221512 273.1034482758621,82.52235725750978 291.0344827586207,82.31598257280444 308.9655172413793,82.21279523045176 326.8965517241379,81.90323320339374 344.82758620689657,81.6968585186884 362.7586206896552,81.28410914927773 380.6896551724138,80.97454712221972 398.62068965517244,66.52831919284571 416.55172413793105,66.32194450814038 434.48275862068965,66.06397615225869 452.41379310344826,65.80600779637702 470.3448275862069,65.08369639990832 488.2758620689655,64.0518229763816 506.2068965517241,62.81357486814954 524.1379310344828,61.781701444622826 542.0689655172414,61.05939004815413 560.0,60.69823434991978 560,120" fill="url(#areaGrad)" />
    
    <!-- X-Axis -->
    <line x1="40" y1="120" x2="560" y2="120" stroke="#888" stroke-width="2" />
    
    <!-- Growth Line -->
    <polyline points="40.0,92.47993579454257 57.93103448275862,90.98371933042883 75.86206896551724,90.67415730337082 93.79310344827587,90.3645952763128 111.72413793103448,90.10662692043113 129.6551724137931,89.95184590690212 147.58620689655174,88.6104104563174 165.51724137931035,87.16578766337999 183.44827586206895,83.91538637927084 201.3793103448276,83.5542306810365 219.31034482758622,83.19307498280213 237.24137931034483,83.08988764044946 255.17241379310346,82.72873194221512 273.1034482758621,82.52235725750978 291.0344827586207,82.31598257280444 308.9655172413793,82.21279523045176 326.8965517241379,81.90323320339374 344.82758620689657,81.6968585186884 362.7586206896552,81.28410914927773 380.6896551724138,80.97454712221972 398.62068965517244,66.52831919284571 416.55172413793105,66.32194450814038 434.48275862068965,66.06397615225869 452.41379310344826,65.80600779637702 470.3448275862069,65.08369639990832 488.2758620689655,64.0518229763816 506.2068965517241,62.81357486814954 524.1379310344828,61.781701444622826 542.0689655172414,61.05939004815413 560.0,60.69823434991978" fill="none" stroke="#00f2fe" stroke-width="4" stroke-linecap="round" stroke-linejoin="round" />
    
    <!-- End Point -->
    <circle cx="560.0" cy="60.69823434991978" r="6" fill="#fff" stroke="#00f2fe" stroke-width="3" />
    
    <!-- Labels -->
    <text x="560" y="30" font-family="Arial, sans-serif" font-size="20" font-weight="bold" fill="#00f2fe" text-anchor="end">5950 Total Installs</text>
    <text x="40" y="145" font-family="Arial, sans-serif" font-size="12" fill="#888" text-anchor="start">Global Adoption History</text>
    </svg>