<svg width="760" height="220" viewBox="0 0 760 220" xmlns="http://www.w3.org/2000/svg" role="img" aria-label="Global adoption trend">
    <defs>
        <linearGradient id="bg" x1="0" y1="0" x2="0" y2="1">
            <stop offset="0%" stop-color="#f7f9fc"/>
            <stop offset="100%" stop-color="#eef4fb"/>
        </linearGradient>
        <linearGradient id="lineGrad" x1="0" y1="0" x2="1" y2="0">
            <stop offset="0%" stop-color="#8b5cf6"/>
            <stop offset="50%" stop-color="#3b82f6"/>
            <stop offset="100%" stop-color="#10b981"/>
        </linearGradient>
        <linearGradient id="areaGrad" x1="0" y1="0" x2="0" y2="1">
            <stop offset="0%" stop-color="#8b5cf6" stop-opacity="0.14"/>
            <stop offset="50%" stop-color="#3b82f6" stop-opacity="0.08"/>
            <stop offset="100%" stop-color="#3b82f6" stop-opacity="0"/>
        </linearGradient>
        <filter id="glow" x="-20%" y="-20%" width="140%" height="140%">
            <feGaussianBlur stdDeviation="3.5" result="blur"/>
            <feMerge>
                <feMergeNode in="blur"/>
                <feMergeNode in="SourceGraphic"/>
            </feMerge>
        </filter>
    </defs>

    <rect x="0" y="0" width="760" height="220" rx="22" fill="url(#bg)"/>
    <rect x="8" y="8" width="744" height="204" rx="18" fill="#ffffff" fill-opacity="0.38" stroke="#dfe7f3"/>

    <g opacity="0.9">
        <line x1="52" y1="30.0" x2="708" y2="30.0" stroke="#ffffff" stroke-opacity="0.08" stroke-width="1"/><line x1="52" y1="69.5" x2="708" y2="69.5" stroke="#ffffff" stroke-opacity="0.08" stroke-width="1"/><line x1="52" y1="109.0" x2="708" y2="109.0" stroke="#ffffff" stroke-opacity="0.08" stroke-width="1"/><line x1="52" y1="148.5" x2="708" y2="148.5" stroke="#ffffff" stroke-opacity="0.08" stroke-width="1"/><line x1="52" y1="188.0" x2="708" y2="188.0" stroke="#ffffff" stroke-opacity="0.08" stroke-width="1"/>
    </g>

    <text x="52" y="22" font-family="SF Pro Display, Segoe UI, Arial, sans-serif" font-size="11" font-weight="700" letter-spacing="1.8" fill="#53677c">AI CLI PRO</text>
    <text x="708" y="38" font-family="SF Pro Display, Segoe UI, Arial, sans-serif" font-size="30" font-weight="700" fill="#0f172a" text-anchor="end">6348</text>
    <text x="708" y="58" font-family="SF Pro Display, Segoe UI, Arial, sans-serif" font-size="11" font-weight="600" letter-spacing="1.6" fill="#64748b" text-anchor="end">TOTAL INSTALLS</text>

    <path d="M 52 188 L 52.0,124.95956504332784 74.62068965517241,123.63325713842943 97.24137931034483,123.0211150284763 119.86206896551724,122.20492554853881 142.48275862068965,120.98064132863257 165.10344827586206,119.9604044787107 187.72413793103448,119.75635710872633 210.3448275862069,119.34826236875757 232.9655172413793,118.12397814885134 255.58620689655172,117.51183603889821 278.2068965517241,116.8996939289451 300.8275862068965,116.49159918897635 323.44827586206895,115.87945707902323 346.0689655172414,115.2673149690701 368.6896551724138,115.06326759908573 391.3103448275862,114.85922022910137 413.9310344827586,114.45112548913262 436.55172413793105,114.24707811914824 459.17241379310343,113.63493600919512 481.7931034482759,113.022793899242 504.41379310344826,112.81874652925762 527.0344827586207,111.79850967933577 549.655172413793,111.59446230935139 572.2758620689655,110.98232019939826 594.8965517241379,110.16613071946077 617.5172413793103,109.55398860950766 640.1379310344828,109.14589386953891 662.7586206896551,108.73779912957016 685.3793103448276,108.12565701961704 708.0,107.71756227964829 L 708 188 Z" fill="url(#areaGrad)"/>
    <polyline points="52.0,124.95956504332784 74.62068965517241,123.63325713842943 97.24137931034483,123.0211150284763 119.86206896551724,122.20492554853881 142.48275862068965,120.98064132863257 165.10344827586206,119.9604044787107 187.72413793103448,119.75635710872633 210.3448275862069,119.34826236875757 232.9655172413793,118.12397814885134 255.58620689655172,117.51183603889821 278.2068965517241,116.8996939289451 300.8275862068965,116.49159918897635 323.44827586206895,115.87945707902323 346.0689655172414,115.2673149690701 368.6896551724138,115.06326759908573 391.3103448275862,114.85922022910137 413.9310344827586,114.45112548913262 436.55172413793105,114.24707811914824 459.17241379310343,113.63493600919512 481.7931034482759,113.022793899242 504.41379310344826,112.81874652925762 527.0344827586207,111.79850967933577 549.655172413793,111.59446230935139 572.2758620689655,110.98232019939826 594.8965517241379,110.16613071946077 617.5172413793103,109.55398860950766 640.1379310344828,109.14589386953891 662.7586206896551,108.73779912957016 685.3793103448276,108.12565701961704 708.0,107.71756227964829" fill="none" stroke="url(#lineGrad)" stroke-width="3.5" stroke-linecap="round" stroke-linejoin="round" filter="url(#glow)"/>
    <circle cx="708.0" cy="107.71756227964829" r="6" fill="#ffffff" stroke="#4f46e5" stroke-width="3"/>

    <text x="52" y="208" font-family="SF Pro Display, Segoe UI, Arial, sans-serif" font-size="10" fill="#94a3b8">2026-08-19</text>
    <text x="708" y="208" font-family="SF Pro Display, Segoe UI, Arial, sans-serif" font-size="10" fill="#94a3b8" text-anchor="end">2026-09-17</text>
    </svg>