<svg width="600" height="150" xmlns="http://www.w3.org/2000/svg">
    <defs>
        <linearGradient id="areaGrad" x1="0%" y1="0%" x2="0%" y2="100%">
            <stop offset="0%" style="stop-color:#4facfe;stop-opacity:0.4" />
            <stop offset="100%" style="stop-color:#4facfe;stop-opacity:0" />
        </linearGradient>
    </defs>
    
    <!-- Area -->
    <polygon points="40,120 40.0,115.82772740567417 57.93103448275862,114.59929804036268 75.86206896551724,98.84907867797602 93.79310344827587,96.80900848201227 111.72413793103448,96.74319976601345 129.6551724137931,96.65545481134835 147.58620689655174,96.52383737935068 165.51724137931035,95.49283416203568 183.44827586206895,94.30827727405673 201.3793103448276,93.25533781807546 219.31034482758622,93.07984790874525 237.24137931034483,93.07984790874525 255.17241379310346,93.05791167007897 273.1034482758621,92.04884469143025 291.0344827586207,80.68587306229892 308.9655172413793,68.44545188651654 326.8965517241379,61.272301842644055 344.82758620689657,59.583211465340746 362.7586206896552,58.771570634688516 380.6896551724138,53.30944720678562 398.62068965517244,50.764843521497525 416.55172413793105,50.65516232816614 434.48275862068965,48.11055864287805 452.41379310344826,47.101491664229314 470.3448275862069,46.267914594910806 488.2758620689655,45.91693477625037 506.2068965517241,45.74144486692016 524.1379310344828,44.7543141269377 542.0689655172414,43.04328751096813 560.0,41.59549575899386 560,120" fill="url(#areaGrad)" />
    
    <!-- X-Axis -->
    <line x1="40" y1="120" x2="560" y2="120" stroke="#888" stroke-width="2" />
    
    <!-- Growth Line -->
    <polyline points="40.0,115.82772740567417 57.93103448275862,114.59929804036268 75.86206896551724,98.84907867797602 93.79310344827587,96.80900848201227 111.72413793103448,96.74319976601345 129.6551724137931,96.65545481134835 147.58620689655174,96.52383737935068 165.51724137931035,95.49283416203568 183.44827586206895,94.30827727405673 201.3793103448276,93.25533781807546 219.31034482758622,93.07984790874525 237.24137931034483,93.07984790874525 255.17241379310346,93.05791167007897 273.1034482758621,92.04884469143025 291.0344827586207,80.68587306229892 308.9655172413793,68.44545188651654 326.8965517241379,61.272301842644055 344.82758620689657,59.583211465340746 362.7586206896552,58.771570634688516 380.6896551724138,53.30944720678562 398.62068965517244,50.764843521497525 416.55172413793105,50.65516232816614 434.48275862068965,48.11055864287805 452.41379310344826,47.101491664229314 470.3448275862069,46.267914594910806 488.2758620689655,45.91693477625037 506.2068965517241,45.74144486692016 524.1379310344828,44.7543141269377 542.0689655172414,43.04328751096813 560.0,41.59549575899386" fill="none" stroke="#00f2fe" stroke-width="4" stroke-linecap="round" stroke-linejoin="round" />
    
    <!-- End Point -->
    <circle cx="560.0" cy="41.59549575899386" r="6" fill="#fff" stroke="#00f2fe" stroke-width="3" />
    
    <!-- Labels -->
    <text x="560" y="30" font-family="Arial, sans-serif" font-size="20" font-weight="bold" fill="#00f2fe" text-anchor="end">5286 Total Installs</text>
    <text x="40" y="145" font-family="Arial, sans-serif" font-size="12" fill="#888" text-anchor="start">Global Adoption History</text>
    </svg>