<svg width="600" height="150" xmlns="http://www.w3.org/2000/svg">
    <defs>
        <linearGradient id="areaGrad" x1="0%" y1="0%" x2="0%" y2="100%">
            <stop offset="0%" style="stop-color:#4facfe;stop-opacity:0.4" />
            <stop offset="100%" style="stop-color:#4facfe;stop-opacity:0" />
        </linearGradient>
    </defs>
    
    <!-- Area -->
    <polygon points="40,120 40.0,92.05315268368942 57.93103448275862,91.74048983845752 75.86206896551724,91.42782699322564 93.79310344827587,91.16727462219906 111.72413793103448,91.01094319958311 129.6551724137931,89.65607087024492 147.58620689655174,88.19697759249608 165.51724137931035,84.91401771756122 183.44827586206895,84.54924439812402 201.3793103448276,84.18447107868681 219.31034482758622,84.08025013027618 237.24137931034483,83.71547681083898 255.17241379310346,83.50703491401771 273.1034482758621,83.29859301719645 291.0344827586207,83.19437206878582 308.9655172413793,82.88170922355394 326.8965517241379,82.67326732673267 344.82758620689657,82.25638353309014 362.7586206896552,81.94372068785826 380.6896551724138,67.35278791036998 398.62068965517244,67.14434601354873 416.55172413793105,66.88379364252215 434.48275862068965,66.62324127149557 452.41379310344826,65.89369463262116 470.3448275862069,64.85148514851485 488.2758620689655,63.60083376758729 506.2068965517241,62.55862428348099 524.1379310344828,61.82907764460657 542.0689655172414,61.464304325169365 560.0,61.04742053152684 560,120" fill="url(#areaGrad)" />
    
    <!-- X-Axis -->
    <line x1="40" y1="120" x2="560" y2="120" stroke="#888" stroke-width="2" />
    
    <!-- Growth Line -->
    <polyline points="40.0,92.05315268368942 57.93103448275862,91.74048983845752 75.86206896551724,91.42782699322564 93.79310344827587,91.16727462219906 111.72413793103448,91.01094319958311 129.6551724137931,89.65607087024492 147.58620689655174,88.19697759249608 165.51724137931035,84.91401771756122 183.44827586206895,84.54924439812402 201.3793103448276,84.18447107868681 219.31034482758622,84.08025013027618 237.24137931034483,83.71547681083898 255.17241379310346,83.50703491401771 273.1034482758621,83.29859301719645 291.0344827586207,83.19437206878582 308.9655172413793,82.88170922355394 326.8965517241379,82.67326732673267 344.82758620689657,82.25638353309014 362.7586206896552,81.94372068785826 380.6896551724138,67.35278791036998 398.62068965517244,67.14434601354873 416.55172413793105,66.88379364252215 434.48275862068965,66.62324127149557 452.41379310344826,65.89369463262116 470.3448275862069,64.85148514851485 488.2758620689655,63.60083376758729 506.2068965517241,62.55862428348099 524.1379310344828,61.82907764460657 542.0689655172414,61.464304325169365 560.0,61.04742053152684" fill="none" stroke="#00f2fe" stroke-width="4" stroke-linecap="round" stroke-linejoin="round" />
    
    <!-- End Point -->
    <circle cx="560.0" cy="61.04742053152684" r="6" fill="#fff" stroke="#00f2fe" stroke-width="3" />
    
    <!-- Labels -->
    <text x="560" y="30" font-family="Arial, sans-serif" font-size="20" font-weight="bold" fill="#00f2fe" text-anchor="end">5958 Total Installs</text>
    <text x="40" y="145" font-family="Arial, sans-serif" font-size="12" fill="#888" text-anchor="start">Global Adoption History</text>
    </svg>