<svg width="600" height="150" xmlns="http://www.w3.org/2000/svg">
    <defs>
        <linearGradient id="areaGrad" x1="0%" y1="0%" x2="0%" y2="100%">
            <stop offset="0%" style="stop-color:#4facfe;stop-opacity:0.4" />
            <stop offset="100%" style="stop-color:#4facfe;stop-opacity:0" />
        </linearGradient>
    </defs>
    
    <!-- Area -->
    <polygon points="40,120 40.0,112.5633374115962 57.93103448275862,112.48276685267524 75.86206896551724,112.37533944078064 93.79310344827587,112.21419832293874 111.72413793103448,110.95192623317716 129.6551724137931,109.50165617260004 147.58620689655174,108.21252722986482 165.51724137931035,107.99767240607562 183.44827586206895,107.99767240607562 201.3793103448276,107.97081555310197 219.31034482758622,106.73540031631404 237.24137931034483,92.82355047596312 255.17241379310346,77.83742651666617 273.1034482758621,69.0552355942825 291.0344827586207,66.9872579153114 308.9655172413793,65.99355435528634 326.8965517241379,59.30619796484738 344.82758620689657,56.190803019903925 362.7586206896552,56.056518755035675 380.6896551724138,52.94112381009222 398.62068965517244,51.70570857330429 416.55172413793105,50.68514816030559 434.48275862068965,50.25543851272718 452.41379310344826,50.04058368893797 470.3448275862069,48.83202530512371 488.2758620689655,46.737190773178966 506.2068965517241,44.96463847691804 524.1379310344828,44.72292680015518 542.0689655172414,44.534928829339634 560.0,44.26636029960312 560,120" fill="url(#areaGrad)" />
    
    <!-- X-Axis -->
    <line x1="40" y1="120" x2="560" y2="120" stroke="#888" stroke-width="2" />
    
    <!-- Growth Line -->
    <polyline points="40.0,112.5633374115962 57.93103448275862,112.48276685267524 75.86206896551724,112.37533944078064 93.79310344827587,112.21419832293874 111.72413793103448,110.95192623317716 129.6551724137931,109.50165617260004 147.58620689655174,108.21252722986482 165.51724137931035,107.99767240607562 183.44827586206895,107.99767240607562 201.3793103448276,107.97081555310197 219.31034482758622,106.73540031631404 237.24137931034483,92.82355047596312 255.17241379310346,77.83742651666617 273.1034482758621,69.0552355942825 291.0344827586207,66.9872579153114 308.9655172413793,65.99355435528634 326.8965517241379,59.30619796484738 344.82758620689657,56.190803019903925 362.7586206896552,56.056518755035675 380.6896551724138,52.94112381009222 398.62068965517244,51.70570857330429 416.55172413793105,50.68514816030559 434.48275862068965,50.25543851272718 452.41379310344826,50.04058368893797 470.3448275862069,48.83202530512371 488.2758620689655,46.737190773178966 506.2068965517241,44.96463847691804 524.1379310344828,44.72292680015518 542.0689655172414,44.534928829339634 560.0,44.26636029960312" fill="none" stroke="#00f2fe" stroke-width="4" stroke-linecap="round" stroke-linejoin="round" />
    
    <!-- End Point -->
    <circle cx="560.0" cy="44.26636029960312" r="6" fill="#fff" stroke="#00f2fe" stroke-width="3" />
    
    <!-- Labels -->
    <text x="560" y="30" font-family="Arial, sans-serif" font-size="20" font-weight="bold" fill="#00f2fe" text-anchor="end">5312 Total Installs</text>
    <text x="40" y="145" font-family="Arial, sans-serif" font-size="12" fill="#888" text-anchor="start">Global Adoption History</text>
    </svg>