<svg width="600" height="150" xmlns="http://www.w3.org/2000/svg">
    <defs>
        <linearGradient id="areaGrad" x1="0%" y1="0%" x2="0%" y2="100%">
            <stop offset="0%" style="stop-color:#4facfe;stop-opacity:0.4" />
            <stop offset="100%" style="stop-color:#4facfe;stop-opacity:0" />
        </linearGradient>
    </defs>
    
    <!-- Area -->
    <polygon points="40,120 40.0,96.22018348623854 57.93103448275862,90.41534612176815 75.86206896551724,90.16513761467891 93.79310344827587,84.36030025020852 111.72413793103448,82.0583819849875 129.6551724137931,80.15679733110926 147.58620689655174,79.35613010842368 165.51724137931035,78.95579649708091 183.44827586206895,76.70391993327775 201.3793103448276,72.80066722268558 219.31034482758622,69.4979149291076 237.24137931034483,69.04753961634697 255.17241379310346,68.69724770642202 273.1034482758621,68.19683069224354 291.0344827586207,68.04670558799 308.9655172413793,67.64637197664722 326.8965517241379,67.29608006672228 344.82758620689657,67.09591326105088 362.7586206896552,65.64470391993329 380.6896551724138,65.3444537114262 398.62068965517244,65.04420350291912 416.55172413793105,64.79399499582988 434.48275862068965,64.64386989157633 452.41379310344826,63.34278565471227 470.3448275862069,61.941618015012516 488.2758620689655,58.78899082568808 506.2068965517241,58.43869891576315 524.1379310344828,58.08840700583821 542.0689655172414,57.988323603002506 560.0,57.63803169307757 560,120" fill="url(#areaGrad)" />
    
    <!-- X-Axis -->
    <line x1="40" y1="120" x2="560" y2="120" stroke="#888" stroke-width="2" />
    
    <!-- Growth Line -->
    <polyline points="40.0,96.22018348623854 57.93103448275862,90.41534612176815 75.86206896551724,90.16513761467891 93.79310344827587,84.36030025020852 111.72413793103448,82.0583819849875 129.6551724137931,80.15679733110926 147.58620689655174,79.35613010842368 165.51724137931035,78.95579649708091 183.44827586206895,76.70391993327775 201.3793103448276,72.80066722268558 219.31034482758622,69.4979149291076 237.24137931034483,69.04753961634697 255.17241379310346,68.69724770642202 273.1034482758621,68.19683069224354 291.0344827586207,68.04670558799 308.9655172413793,67.64637197664722 326.8965517241379,67.29608006672228 344.82758620689657,67.09591326105088 362.7586206896552,65.64470391993329 380.6896551724138,65.3444537114262 398.62068965517244,65.04420350291912 416.55172413793105,64.79399499582988 434.48275862068965,64.64386989157633 452.41379310344826,63.34278565471227 470.3448275862069,61.941618015012516 488.2758620689655,58.78899082568808 506.2068965517241,58.43869891576315 524.1379310344828,58.08840700583821 542.0689655172414,57.988323603002506 560.0,57.63803169307757" fill="none" stroke="#00f2fe" stroke-width="4" stroke-linecap="round" stroke-linejoin="round" />
    
    <!-- End Point -->
    <circle cx="560.0" cy="57.63803169307757" r="6" fill="#fff" stroke="#00f2fe" stroke-width="3" />
    
    <!-- Labels -->
    <text x="560" y="30" font-family="Arial, sans-serif" font-size="20" font-weight="bold" fill="#00f2fe" text-anchor="end">5523 Total Installs</text>
    <text x="40" y="145" font-family="Arial, sans-serif" font-size="12" fill="#888" text-anchor="start">Global Adoption History</text>
    </svg>