<svg width="600" height="150" xmlns="http://www.w3.org/2000/svg">
    <defs>
        <linearGradient id="areaGrad" x1="0%" y1="0%" x2="0%" y2="100%">
            <stop offset="0%" style="stop-color:#4facfe;stop-opacity:0.4" />
            <stop offset="100%" style="stop-color:#4facfe;stop-opacity:0" />
        </linearGradient>
    </defs>
    
    <!-- Area -->
    <polygon points="40,120 40.0,119.4968911205696 57.93103448275862,116.47823784398722 75.86206896551724,113.72437871447345 93.79310344827587,110.61746072220151 111.72413793103448,108.85216640841065 129.6551724137931,106.98095443579233 147.58620689655174,99.31957711393994 165.51724137931035,94.14726477453269 183.44827586206895,92.80564109605163 201.3793103448276,90.95208206657121 219.31034482758622,89.96351725084833 237.24137931034483,77.28870407782986 255.17241379310346,75.64698036600436 273.1034482758621,75.59402153659063 291.0344827586207,75.523409764039 308.9655172413793,75.41749210521155 326.8965517241379,74.58780377772985 344.82758620689657,73.63454484828276 362.7586206896552,72.78720357766315 380.6896551724138,72.64598003255988 398.62068965517244,72.64598003255988 416.55172413793105,72.62832708942196 434.48275862068965,71.81629170507816 452.41379310344826,62.67206715964145 470.3448275862069,52.821724888688394 488.2758620689655,47.04921248259224 506.2068965517241,45.689935860973264 524.1379310344828,45.03677696487064 542.0689655172414,40.64119412353138 560.0,38.59345271953396 560,120" fill="url(#areaGrad)" />
    
    <!-- X-Axis -->
    <line x1="40" y1="120" x2="560" y2="120" stroke="#888" stroke-width="2" />
    
    <!-- Growth Line -->
    <polyline points="40.0,119.4968911205696 57.93103448275862,116.47823784398722 75.86206896551724,113.72437871447345 93.79310344827587,110.61746072220151 111.72413793103448,108.85216640841065 129.6551724137931,106.98095443579233 147.58620689655174,99.31957711393994 165.51724137931035,94.14726477453269 183.44827586206895,92.80564109605163 201.3793103448276,90.95208206657121 219.31034482758622,89.96351725084833 237.24137931034483,77.28870407782986 255.17241379310346,75.64698036600436 273.1034482758621,75.59402153659063 291.0344827586207,75.523409764039 308.9655172413793,75.41749210521155 326.8965517241379,74.58780377772985 344.82758620689657,73.63454484828276 362.7586206896552,72.78720357766315 380.6896551724138,72.64598003255988 398.62068965517244,72.64598003255988 416.55172413793105,72.62832708942196 434.48275862068965,71.81629170507816 452.41379310344826,62.67206715964145 470.3448275862069,52.821724888688394 488.2758620689655,47.04921248259224 506.2068965517241,45.689935860973264 524.1379310344828,45.03677696487064 542.0689655172414,40.64119412353138 560.0,38.59345271953396" fill="none" stroke="#00f2fe" stroke-width="4" stroke-linecap="round" stroke-linejoin="round" />
    
    <!-- End Point -->
    <circle cx="560.0" cy="38.59345271953396" r="6" fill="#fff" stroke="#00f2fe" stroke-width="3" />
    
    <!-- Labels -->
    <text x="560" y="30" font-family="Arial, sans-serif" font-size="20" font-weight="bold" fill="#00f2fe" text-anchor="end">4868 Total Installs</text>
    <text x="40" y="145" font-family="Arial, sans-serif" font-size="12" fill="#888" text-anchor="start">Global Adoption History</text>
    </svg>