<svg width="600" height="150" xmlns="http://www.w3.org/2000/svg">
    <defs>
        <linearGradient id="areaGrad" x1="0%" y1="0%" x2="0%" y2="100%">
            <stop offset="0%" style="stop-color:#4facfe;stop-opacity:0.4" />
            <stop offset="100%" style="stop-color:#4facfe;stop-opacity:0" />
        </linearGradient>
    </defs>
    
    <!-- Area -->
    <polygon points="40,120 40.0,119.66001385128754 62.608695652173914,114.98520430649121 85.21739130434783,110.14040168733867 107.82608695652173,105.72058175407669 130.43478260869566,100.73411823962728 153.04347826086956,97.90090033369012 175.65217391304347,94.89768935339671 198.2608695652174,82.60152364162943 220.8695652173913,74.30019517723352 243.47826086956522,72.14694956872128 266.0869565217391,69.17207076748726 288.695652173913,67.58546874016244 311.30434782608694,47.2429641755336 333.9130434782609,44.60807152301203 356.5217391304348,44.523074985833915 379.1304347826087,44.409746269596425 401.7391304347826,44.2397531952402 424.3478260869565,42.90814077944974 446.95652173913044,41.37820311024366 469.5652173913044,40.018258515393825 492.17391304347825,39.79160108291886 514.7826086956522,39.79160108291886 537.391304347826,39.76326890385948 560.0,38.459988667128385 560,120" fill="url(#areaGrad)" />
    
    <!-- X-Axis -->
    <line x1="40" y1="120" x2="560" y2="120" stroke="#888" stroke-width="2" />
    
    <!-- Growth Line -->
    <polyline points="40.0,119.66001385128754 62.608695652173914,114.98520430649121 85.21739130434783,110.14040168733867 107.82608695652173,105.72058175407669 130.43478260869566,100.73411823962728 153.04347826086956,97.90090033369012 175.65217391304347,94.89768935339671 198.2608695652174,82.60152364162943 220.8695652173913,74.30019517723352 243.47826086956522,72.14694956872128 266.0869565217391,69.17207076748726 288.695652173913,67.58546874016244 311.30434782608694,47.2429641755336 333.9130434782609,44.60807152301203 356.5217391304348,44.523074985833915 379.1304347826087,44.409746269596425 401.7391304347826,44.2397531952402 424.3478260869565,42.90814077944974 446.95652173913044,41.37820311024366 469.5652173913044,40.018258515393825 492.17391304347825,39.79160108291886 514.7826086956522,39.79160108291886 537.391304347826,39.76326890385948 560.0,38.459988667128385" fill="none" stroke="#00f2fe" stroke-width="4" stroke-linecap="round" stroke-linejoin="round" />
    
    <!-- End Point -->
    <circle cx="560.0" cy="38.459988667128385" r="6" fill="#fff" stroke="#00f2fe" stroke-width="3" />
    
    <!-- Labels -->
    <text x="560" y="30" font-family="Arial, sans-serif" font-size="20" font-weight="bold" fill="#00f2fe" text-anchor="end">2986 Total Installs</text>
    <text x="40" y="145" font-family="Arial, sans-serif" font-size="12" fill="#888" text-anchor="start">Global Adoption History</text>
    </svg>