<svg width="600" height="150" xmlns="http://www.w3.org/2000/svg">
    <defs>
        <linearGradient id="areaGrad" x1="0%" y1="0%" x2="0%" y2="100%">
            <stop offset="0%" style="stop-color:#4facfe;stop-opacity:0.4" />
            <stop offset="100%" style="stop-color:#4facfe;stop-opacity:0" />
        </linearGradient>
    </defs>
    
    <!-- Area -->
    <polygon points="40,120 40.0,116.07898756273184 57.93103448275862,113.78791184813441 75.86206896551724,112.56600480034912 93.79310344827587,96.89941086624482 111.72413793103448,94.87017237617282 129.6551724137931,94.80471307004146 147.58620689655174,94.71743399519966 165.51724137931035,94.58651538293694 183.44827586206895,93.5609862535457 201.3793103448276,92.38271874318133 219.31034482758622,91.33536984507964 237.24137931034483,91.16081169539603 255.17241379310346,91.16081169539603 273.1034482758621,91.13899192668558 291.0344827586207,90.1352825660048 308.9655172413793,78.83264237399084 326.8965517241379,66.65721143355881 344.82758620689657,59.52214706524112 362.7586206896552,57.84202487453634 380.6896551724138,57.03469343224964 398.62068965517244,51.60157102334718 416.55172413793105,49.07047785293477 434.48275862068965,48.96137900938251 452.41379310344826,46.43028583897012 470.3448275862069,45.42657647828935 488.2758620689655,44.59742526729218 506.2068965517241,44.248308967924956 524.1379310344828,44.07375081824135 542.0689655172414,43.09186122627102 560.0,41.389919266855784 560,120" fill="url(#areaGrad)" />
    
    <!-- X-Axis -->
    <line x1="40" y1="120" x2="560" y2="120" stroke="#888" stroke-width="2" />
    
    <!-- Growth Line -->
    <polyline points="40.0,116.07898756273184 57.93103448275862,113.78791184813441 75.86206896551724,112.56600480034912 93.79310344827587,96.89941086624482 111.72413793103448,94.87017237617282 129.6551724137931,94.80471307004146 147.58620689655174,94.71743399519966 165.51724137931035,94.58651538293694 183.44827586206895,93.5609862535457 201.3793103448276,92.38271874318133 219.31034482758622,91.33536984507964 237.24137931034483,91.16081169539603 255.17241379310346,91.16081169539603 273.1034482758621,91.13899192668558 291.0344827586207,90.1352825660048 308.9655172413793,78.83264237399084 326.8965517241379,66.65721143355881 344.82758620689657,59.52214706524112 362.7586206896552,57.84202487453634 380.6896551724138,57.03469343224964 398.62068965517244,51.60157102334718 416.55172413793105,49.07047785293477 434.48275862068965,48.96137900938251 452.41379310344826,46.43028583897012 470.3448275862069,45.42657647828935 488.2758620689655,44.59742526729218 506.2068965517241,44.248308967924956 524.1379310344828,44.07375081824135 542.0689655172414,43.09186122627102 560.0,41.389919266855784" fill="none" stroke="#00f2fe" stroke-width="4" stroke-linecap="round" stroke-linejoin="round" />
    
    <!-- End Point -->
    <circle cx="560.0" cy="41.389919266855784" r="6" fill="#fff" stroke="#00f2fe" stroke-width="3" />
    
    <!-- Labels -->
    <text x="560" y="30" font-family="Arial, sans-serif" font-size="20" font-weight="bold" fill="#00f2fe" text-anchor="end">5220 Total Installs</text>
    <text x="40" y="145" font-family="Arial, sans-serif" font-size="12" fill="#888" text-anchor="start">Global Adoption History</text>
    </svg>