<svg width="600" height="150" xmlns="http://www.w3.org/2000/svg">
    <defs>
        <linearGradient id="areaGrad" x1="0%" y1="0%" x2="0%" y2="100%">
            <stop offset="0%" style="stop-color:#4facfe;stop-opacity:0.4" />
            <stop offset="100%" style="stop-color:#4facfe;stop-opacity:0" />
        </linearGradient>
    </defs>
    
    <!-- Area -->
    <polygon points="40,120 40.0,104.73059894745637 57.93103448275862,92.43839278255787 75.86206896551724,89.54389775290286 93.79310344827587,88.15303650488683 111.72413793103448,78.79291621418429 129.6551724137931,74.4323782474313 147.58620689655174,74.24442402472644 165.51724137931035,69.88388605797346 183.44827586206895,68.15470720908866 201.3793103448276,66.72625511653163 219.31034482758622,66.12480160387605 237.24137931034483,65.82407484754827 255.17241379310346,64.13248684320443 273.1034482758621,61.200400969008456 291.0344827586207,58.71940522930418 308.9655172413793,58.38108762843541 326.8965517241379,58.1179517166486 344.82758620689657,57.74204327123885 362.7586206896552,57.62927073761593 380.6896551724138,57.32854398128814 398.62068965517244,57.065408069501316 416.55172413793105,56.91504469133743 434.48275862068965,55.82491019964918 452.41379310344826,55.599365132403335 470.3448275862069,55.37382006515749 488.2758620689655,55.185865842452614 506.2068965517241,55.0730933088297 524.1379310344828,54.09573135076438 542.0689655172414,53.04318770361709 560.0,50.67496449753574 560,120" fill="url(#areaGrad)" />
    
    <!-- X-Axis -->
    <line x1="40" y1="120" x2="560" y2="120" stroke="#888" stroke-width="2" />
    
    <!-- Growth Line -->
    <polyline points="40.0,104.73059894745637 57.93103448275862,92.43839278255787 75.86206896551724,89.54389775290286 93.79310344827587,88.15303650488683 111.72413793103448,78.79291621418429 129.6551724137931,74.4323782474313 147.58620689655174,74.24442402472644 165.51724137931035,69.88388605797346 183.44827586206895,68.15470720908866 201.3793103448276,66.72625511653163 219.31034482758622,66.12480160387605 237.24137931034483,65.82407484754827 255.17241379310346,64.13248684320443 273.1034482758621,61.200400969008456 291.0344827586207,58.71940522930418 308.9655172413793,58.38108762843541 326.8965517241379,58.1179517166486 344.82758620689657,57.74204327123885 362.7586206896552,57.62927073761593 380.6896551724138,57.32854398128814 398.62068965517244,57.065408069501316 416.55172413793105,56.91504469133743 434.48275862068965,55.82491019964918 452.41379310344826,55.599365132403335 470.3448275862069,55.37382006515749 488.2758620689655,55.185865842452614 506.2068965517241,55.0730933088297 524.1379310344828,54.09573135076438 542.0689655172414,53.04318770361709 560.0,50.67496449753574" fill="none" stroke="#00f2fe" stroke-width="4" stroke-linecap="round" stroke-linejoin="round" />
    
    <!-- End Point -->
    <circle cx="560.0" cy="50.67496449753574" r="6" fill="#fff" stroke="#00f2fe" stroke-width="3" />
    
    <!-- Labels -->
    <text x="560" y="30" font-family="Arial, sans-serif" font-size="20" font-weight="bold" fill="#00f2fe" text-anchor="end">5500 Total Installs</text>
    <text x="40" y="145" font-family="Arial, sans-serif" font-size="12" fill="#888" text-anchor="start">Global Adoption History</text>
    </svg>