<svg width="600" height="150" xmlns="http://www.w3.org/2000/svg">
    <defs>
        <linearGradient id="areaGrad" x1="0%" y1="0%" x2="0%" y2="100%">
            <stop offset="0%" style="stop-color:#4facfe;stop-opacity:0.4" />
            <stop offset="100%" style="stop-color:#4facfe;stop-opacity:0" />
        </linearGradient>
    </defs>
    
    <!-- Area -->
    <polygon points="40,120 40.0,112.96571061393773 57.93103448275862,110.52105847304165 75.86206896551724,110.44219872656113 93.79310344827587,110.33705239792044 111.72413793103448,110.17933290495941 129.6551724137931,108.94386354343128 147.58620689655174,107.52438810678194 165.51724137931035,106.26263216309364 183.44827586206895,106.05233950581226 201.3793103448276,106.05233950581226 219.31034482758622,106.02605292365209 237.24137931034483,104.81687014428414 255.17241379310346,91.20042058531457 273.1034482758621,76.5325077399381 291.0344827586207,67.93679537356155 308.9655172413793,65.91272854722824 326.8965517241379,64.94012500730184 344.82758620689657,58.39476604941879 362.7586206896552,55.345522518838735 380.6896551724138,55.21408960803787 398.62068965517244,52.16484607745781 416.55172413793105,50.95566329808986 434.48275862068965,49.95677317600328 452.41379310344826,49.536187861440524 470.3448275862069,49.32589520415914 488.2758620689655,48.14299900695136 506.2068965517241,46.092645598457864 524.1379310344828,44.35773117588646 542.0689655172414,44.1211519364449 560.0,43.9371458613237 560,120" fill="url(#areaGrad)" />
    
    <!-- X-Axis -->
    <line x1="40" y1="120" x2="560" y2="120" stroke="#888" stroke-width="2" />
    
    <!-- Growth Line -->
    <polyline points="40.0,112.96571061393773 57.93103448275862,110.52105847304165 75.86206896551724,110.44219872656113 93.79310344827587,110.33705239792044 111.72413793103448,110.17933290495941 129.6551724137931,108.94386354343128 147.58620689655174,107.52438810678194 165.51724137931035,106.26263216309364 183.44827586206895,106.05233950581226 201.3793103448276,106.05233950581226 219.31034482758622,106.02605292365209 237.24137931034483,104.81687014428414 255.17241379310346,91.20042058531457 273.1034482758621,76.5325077399381 291.0344827586207,67.93679537356155 308.9655172413793,65.91272854722824 326.8965517241379,64.94012500730184 344.82758620689657,58.39476604941879 362.7586206896552,55.345522518838735 380.6896551724138,55.21408960803787 398.62068965517244,52.16484607745781 416.55172413793105,50.95566329808986 434.48275862068965,49.95677317600328 452.41379310344826,49.536187861440524 470.3448275862069,49.32589520415914 488.2758620689655,48.14299900695136 506.2068965517241,46.092645598457864 524.1379310344828,44.35773117588646 542.0689655172414,44.1211519364449 560.0,43.9371458613237" fill="none" stroke="#00f2fe" stroke-width="4" stroke-linecap="round" stroke-linejoin="round" />
    
    <!-- End Point -->
    <circle cx="560.0" cy="43.9371458613237" r="6" fill="#fff" stroke="#00f2fe" stroke-width="3" />
    
    <!-- Labels -->
    <text x="560" y="30" font-family="Arial, sans-serif" font-size="20" font-weight="bold" fill="#00f2fe" text-anchor="end">5302 Total Installs</text>
    <text x="40" y="145" font-family="Arial, sans-serif" font-size="12" fill="#888" text-anchor="start">Global Adoption History</text>
    </svg>