<svg width="600" height="150" xmlns="http://www.w3.org/2000/svg">
    <defs>
        <linearGradient id="areaGrad" x1="0%" y1="0%" x2="0%" y2="100%">
            <stop offset="0%" style="stop-color:#4facfe;stop-opacity:0.4" />
            <stop offset="100%" style="stop-color:#4facfe;stop-opacity:0" />
        </linearGradient>
    </defs>
    
    <!-- Area -->
    <polygon points="40,120 40.0,119.64743903633337 68.88888888888889,114.79972578591715 97.77777777777777,109.77573205366761 126.66666666666667,105.19243952600138 155.55555555555554,100.02154539222407 184.44444444444446,97.08353736166879 213.33333333333334,93.96924884928019 242.22222222222223,81.21829399667027 271.1111111111111,72.60993046714327 300.0,70.37704436392127 328.8888888888889,67.29213593183822 357.77777777777777,65.64685143472725 386.6666666666667,44.55195377534032 415.55555555555554,41.8196063069239 444.44444444444446,41.73146606600726 473.3333333333333,41.61394574478504 502.22222222222223,41.437665262951725 531.1111111111111,40.056801488590736 560.0,38.47027715209089 560,120" fill="url(#areaGrad)" />
    
    <!-- X-Axis -->
    <line x1="40" y1="120" x2="560" y2="120" stroke="#888" stroke-width="2" />
    
    <!-- Growth Line -->
    <polyline points="40.0,119.64743903633337 68.88888888888889,114.79972578591715 97.77777777777777,109.77573205366761 126.66666666666667,105.19243952600138 155.55555555555554,100.02154539222407 184.44444444444446,97.08353736166879 213.33333333333334,93.96924884928019 242.22222222222223,81.21829399667027 271.1111111111111,72.60993046714327 300.0,70.37704436392127 328.8888888888889,67.29213593183822 357.77777777777777,65.64685143472725 386.6666666666667,44.55195377534032 415.55555555555554,41.8196063069239 444.44444444444446,41.73146606600726 473.3333333333333,41.61394574478504 502.22222222222223,41.437665262951725 531.1111111111111,40.056801488590736 560.0,38.47027715209089" fill="none" stroke="#00f2fe" stroke-width="4" stroke-linecap="round" stroke-linejoin="round" />
    
    <!-- End Point -->
    <circle cx="560.0" cy="38.47027715209089" r="6" fill="#fff" stroke="#00f2fe" stroke-width="3" />
    
    <!-- Labels -->
    <text x="560" y="30" font-family="Arial, sans-serif" font-size="20" font-weight="bold" fill="#00f2fe" text-anchor="end">2883 Total Installs</text>
    <text x="40" y="145" font-family="Arial, sans-serif" font-size="12" fill="#888" text-anchor="start">Global Adoption History</text>
    </svg>