<svg width="600" height="150" xmlns="http://www.w3.org/2000/svg">
    <defs>
        <linearGradient id="areaGrad" x1="0%" y1="0%" x2="0%" y2="100%">
            <stop offset="0%" style="stop-color:#4facfe;stop-opacity:0.4" />
            <stop offset="100%" style="stop-color:#4facfe;stop-opacity:0" />
        </linearGradient>
    </defs>
    
    <!-- Area -->
    <polygon points="40,120 40.0,118.53146418735635 57.93103448275862,116.66784005963598 75.86206896551724,114.69239848425238 93.79310344827587,106.60426976994596 111.72413793103448,101.14385107572527 129.6551724137931,99.72749673865778 147.58620689655174,97.77069140455139 165.51724137931035,96.72706189302798 183.44827586206895,83.3462406559957 201.3793103448276,81.61307021721575 219.31034482758622,81.55716149338413 237.24137931034483,81.48261652827532 255.17241379310346,81.3707990806121 273.1034482758621,80.49489574058352 291.0344827586207,79.48853871161452 308.9655172413793,78.59399913030873 326.8965517241379,78.4449092000911 344.82758620689657,78.4449092000911 362.7586206896552,78.42627295881391 380.6896551724138,77.56900586006253 398.62068965517244,67.915432878471 416.55172413793105,57.51641024579131 434.48275862068965,51.42235934814569 452.41379310344826,49.98736876980101 470.3448275862069,49.297827842544464 488.2758620689655,44.65740376452074 506.2068965517241,42.49559977636511 524.1379310344828,42.40241856997909 542.0689655172414,40.24061458182345 560.0,39.383347483072086 560,120" fill="url(#areaGrad)" />
    
    <!-- X-Axis -->
    <line x1="40" y1="120" x2="560" y2="120" stroke="#888" stroke-width="2" />
    
    <!-- Growth Line -->
    <polyline points="40.0,118.53146418735635 57.93103448275862,116.66784005963598 75.86206896551724,114.69239848425238 93.79310344827587,106.60426976994596 111.72413793103448,101.14385107572527 129.6551724137931,99.72749673865778 147.58620689655174,97.77069140455139 165.51724137931035,96.72706189302798 183.44827586206895,83.3462406559957 201.3793103448276,81.61307021721575 219.31034482758622,81.55716149338413 237.24137931034483,81.48261652827532 255.17241379310346,81.3707990806121 273.1034482758621,80.49489574058352 291.0344827586207,79.48853871161452 308.9655172413793,78.59399913030873 326.8965517241379,78.4449092000911 344.82758620689657,78.4449092000911 362.7586206896552,78.42627295881391 380.6896551724138,77.56900586006253 398.62068965517244,67.915432878471 416.55172413793105,57.51641024579131 434.48275862068965,51.42235934814569 452.41379310344826,49.98736876980101 470.3448275862069,49.297827842544464 488.2758620689655,44.65740376452074 506.2068965517241,42.49559977636511 524.1379310344828,42.40241856997909 542.0689655172414,40.24061458182345 560.0,39.383347483072086" fill="none" stroke="#00f2fe" stroke-width="4" stroke-linecap="round" stroke-linejoin="round" />
    
    <!-- End Point -->
    <circle cx="560.0" cy="39.383347483072086" r="6" fill="#fff" stroke="#00f2fe" stroke-width="3" />
    
    <!-- Labels -->
    <text x="560" y="30" font-family="Arial, sans-serif" font-size="20" font-weight="bold" fill="#00f2fe" text-anchor="end">5035 Total Installs</text>
    <text x="40" y="145" font-family="Arial, sans-serif" font-size="12" fill="#888" text-anchor="start">Global Adoption History</text>
    </svg>