<svg width="600" height="150" xmlns="http://www.w3.org/2000/svg">
    <defs>
        <linearGradient id="areaGrad" x1="0%" y1="0%" x2="0%" y2="100%">
            <stop offset="0%" style="stop-color:#4facfe;stop-opacity:0.4" />
            <stop offset="100%" style="stop-color:#4facfe;stop-opacity:0" />
        </linearGradient>
    </defs>
    
    <!-- Area -->
    <polygon points="40,120 40.0,112.54643962848297 57.93103448275862,111.28721124077163 75.86206896551724,109.84043819957134 93.79310344827587,108.55441771850441 111.72413793103448,108.34008097165993 129.6551724137931,108.34008097165993 147.58620689655174,108.31328887830436 165.51724137931035,107.08085258394857 183.44827586206895,93.20254822576806 201.3793103448276,78.25256013336511 219.31034482758622,69.49154560609671 237.24137931034483,67.42855441771852 255.17241379310346,66.43724696356276 273.1034482758621,59.766015718028115 291.0344827586207,56.65813288878306 308.9655172413793,56.52417242200526 326.8965517241379,53.416289592760194 344.82758620689657,52.1838532984044 362.7586206896552,51.16575375089309 380.6896551724138,50.73708025720411 398.62068965517244,50.52274351035963 416.55172413793105,49.31709930935939 434.48275862068965,47.22731602762565 452.41379310344826,45.45903786615864 470.3448275862069,45.21790902595859 488.2758620689655,45.03036437246966 506.2068965517241,44.76244343891405 524.1379310344828,44.68206715884736 542.0689655172414,44.46773041200288 560.0,44.28018575851395 560,120" fill="url(#areaGrad)" />
    
    <!-- X-Axis -->
    <line x1="40" y1="120" x2="560" y2="120" stroke="#888" stroke-width="2" />
    
    <!-- Growth Line -->
    <polyline points="40.0,112.54643962848297 57.93103448275862,111.28721124077163 75.86206896551724,109.84043819957134 93.79310344827587,108.55441771850441 111.72413793103448,108.34008097165993 129.6551724137931,108.34008097165993 147.58620689655174,108.31328887830436 165.51724137931035,107.08085258394857 183.44827586206895,93.20254822576806 201.3793103448276,78.25256013336511 219.31034482758622,69.49154560609671 237.24137931034483,67.42855441771852 255.17241379310346,66.43724696356276 273.1034482758621,59.766015718028115 291.0344827586207,56.65813288878306 308.9655172413793,56.52417242200526 326.8965517241379,53.416289592760194 344.82758620689657,52.1838532984044 362.7586206896552,51.16575375089309 380.6896551724138,50.73708025720411 398.62068965517244,50.52274351035963 416.55172413793105,49.31709930935939 434.48275862068965,47.22731602762565 452.41379310344826,45.45903786615864 470.3448275862069,45.21790902595859 488.2758620689655,45.03036437246966 506.2068965517241,44.76244343891405 524.1379310344828,44.68206715884736 542.0689655172414,44.46773041200288 560.0,44.28018575851395" fill="none" stroke="#00f2fe" stroke-width="4" stroke-linecap="round" stroke-linejoin="round" />
    
    <!-- End Point -->
    <circle cx="560.0" cy="44.28018575851395" r="6" fill="#fff" stroke="#00f2fe" stroke-width="3" />
    
    <!-- Labels -->
    <text x="560" y="30" font-family="Arial, sans-serif" font-size="20" font-weight="bold" fill="#00f2fe" text-anchor="end">5330 Total Installs</text>
    <text x="40" y="145" font-family="Arial, sans-serif" font-size="12" fill="#888" text-anchor="start">Global Adoption History</text>
    </svg>