<svg width="600" height="150" xmlns="http://www.w3.org/2000/svg">
    <defs>
        <linearGradient id="areaGrad" x1="0%" y1="0%" x2="0%" y2="100%">
            <stop offset="0%" style="stop-color:#4facfe;stop-opacity:0.4" />
            <stop offset="100%" style="stop-color:#4facfe;stop-opacity:0" />
        </linearGradient>
    </defs>
    
    <!-- Area -->
    <polygon points="40,120 40.0,119.4720891582755 87.27272727272728,112.21331508456349 134.54545454545456,104.69058558998924 181.8181818181818,97.82774464757063 229.0909090909091,90.08505230227784 276.3636363636364,85.68579528790693 323.6363636363636,81.02258285267376 370.90909090909093,61.92980741030404 418.1818181818182,49.03998435819729 465.45454545454544,45.69654902727541 512.7272727272727,41.07732916218595 560.0,38.613745234138236 560,120" fill="url(#areaGrad)" />
    
    <!-- X-Axis -->
    <line x1="40" y1="120" x2="560" y2="120" stroke="#888" stroke-width="2" />
    
    <!-- Growth Line -->
    <polyline points="40.0,119.4720891582755 87.27272727272728,112.21331508456349 134.54545454545456,104.69058558998924 181.8181818181818,97.82774464757063 229.0909090909091,90.08505230227784 276.3636363636364,85.68579528790693 323.6363636363636,81.02258285267376 370.90909090909093,61.92980741030404 418.1818181818182,49.03998435819729 465.45454545454544,45.69654902727541 512.7272727272727,41.07732916218595 560.0,38.613745234138236" fill="none" stroke="#00f2fe" stroke-width="4" stroke-linecap="round" stroke-linejoin="round" />
    
    <!-- End Point -->
    <circle cx="560.0" cy="38.613745234138236" r="6" fill="#fff" stroke="#00f2fe" stroke-width="3" />
    
    <!-- Labels -->
    <text x="560" y="30" font-family="Arial, sans-serif" font-size="20" font-weight="bold" fill="#00f2fe" text-anchor="end">1958 Total Installs</text>
    <text x="40" y="145" font-family="Arial, sans-serif" font-size="12" fill="#888" text-anchor="start">Global Adoption History</text>
    </svg>