<svg width="600" height="150" xmlns="http://www.w3.org/2000/svg">
    <defs>
        <linearGradient id="areaGrad" x1="0%" y1="0%" x2="0%" y2="100%">
            <stop offset="0%" style="stop-color:#4facfe;stop-opacity:0.4" />
            <stop offset="100%" style="stop-color:#4facfe;stop-opacity:0" />
        </linearGradient>
    </defs>
    
    <!-- Area -->
    <polygon points="40,120 40.0,111.76275862068965 57.93103448275862,97.47310344827586 75.86206896551724,82.08000000000001 93.79310344827587,73.0593103448276 111.72413793103448,70.93517241379311 129.6551724137931,69.9144827586207 147.58620689655174,63.04551724137932 165.51724137931035,59.845517241379326 183.44827586206895,59.707586206896565 201.3793103448276,56.50758620689657 219.31034482758622,55.23862068965518 237.24137931034483,54.190344827586216 255.17241379310346,53.74896551724139 273.1034482758621,53.52827586206898 291.0344827586207,52.286896551724155 308.9655172413793,50.135172413793114 326.8965517241379,48.3144827586207 344.82758620689657,48.06620689655173 362.7586206896552,47.873103448275884 380.6896551724138,47.59724137931035 398.62068965517244,47.5144827586207 416.55172413793105,47.29379310344828 434.48275862068965,47.10068965517243 452.41379310344826,46.99034482758621 470.3448275862069,46.19034482758623 488.2758620689655,46.02482758620691 506.2068965517241,45.85931034482759 524.1379310344828,45.721379310344844 542.0689655172414,45.638620689655184 560.0,44.92137931034485 560,120" fill="url(#areaGrad)" />
    
    <!-- X-Axis -->
    <line x1="40" y1="120" x2="560" y2="120" stroke="#888" stroke-width="2" />
    
    <!-- Growth Line -->
    <polyline points="40.0,111.76275862068965 57.93103448275862,97.47310344827586 75.86206896551724,82.08000000000001 93.79310344827587,73.0593103448276 111.72413793103448,70.93517241379311 129.6551724137931,69.9144827586207 147.58620689655174,63.04551724137932 165.51724137931035,59.845517241379326 183.44827586206895,59.707586206896565 201.3793103448276,56.50758620689657 219.31034482758622,55.23862068965518 237.24137931034483,54.190344827586216 255.17241379310346,53.74896551724139 273.1034482758621,53.52827586206898 291.0344827586207,52.286896551724155 308.9655172413793,50.135172413793114 326.8965517241379,48.3144827586207 344.82758620689657,48.06620689655173 362.7586206896552,47.873103448275884 380.6896551724138,47.59724137931035 398.62068965517244,47.5144827586207 416.55172413793105,47.29379310344828 434.48275862068965,47.10068965517243 452.41379310344826,46.99034482758621 470.3448275862069,46.19034482758623 488.2758620689655,46.02482758620691 506.2068965517241,45.85931034482759 524.1379310344828,45.721379310344844 542.0689655172414,45.638620689655184 560.0,44.92137931034485" fill="none" stroke="#00f2fe" stroke-width="4" stroke-linecap="round" stroke-linejoin="round" />
    
    <!-- End Point -->
    <circle cx="560.0" cy="44.92137931034485" r="6" fill="#fff" stroke="#00f2fe" stroke-width="3" />
    
    <!-- Labels -->
    <text x="560" y="30" font-family="Arial, sans-serif" font-size="20" font-weight="bold" fill="#00f2fe" text-anchor="end">5409 Total Installs</text>
    <text x="40" y="145" font-family="Arial, sans-serif" font-size="12" fill="#888" text-anchor="start">Global Adoption History</text>
    </svg>