<svg width="600" height="150" xmlns="http://www.w3.org/2000/svg">
    <defs>
        <linearGradient id="areaGrad" x1="0%" y1="0%" x2="0%" y2="100%">
            <stop offset="0%" style="stop-color:#4facfe;stop-opacity:0.4" />
            <stop offset="100%" style="stop-color:#4facfe;stop-opacity:0" />
        </linearGradient>
    </defs>
    
    <!-- Area -->
    <polygon points="40,120 40.0,91.75636556979975 57.93103448275862,91.59685709221955 75.86206896551724,91.17150115200569 93.79310344827587,90.79931470431856 111.72413793103448,90.58663673421164 129.6551724137931,89.0447214509364 147.58620689655174,88.725704495776 165.51724137931035,88.40668754061561 183.44827586206895,88.14084007798195 201.3793103448276,87.98133160040175 219.31034482758622,86.5989247947067 237.24137931034483,85.1101790039582 255.17241379310346,81.76050097477406 273.1034482758621,81.38831452708692 291.0344827586207,81.0161280793998 308.9655172413793,80.90978909434634 326.8965517241379,80.53760264665921 344.82758620689657,80.32492467655229 362.7586206896552,80.11224670644535 380.6896551724138,80.00590772139188 398.62068965517244,79.6868907662315 416.55172413793105,79.47421279612456 434.48275862068965,79.0488568559107 452.41379310344826,78.7298399007503 470.3448275862069,63.842381993265235 488.2758620689655,63.6297040231583 506.2068965517241,63.36385656052464 524.1379310344828,63.09800909789097 542.0689655172414,62.35363620251672 560.0,61.29024635198208 560,120" fill="url(#areaGrad)" />
    
    <!-- X-Axis -->
    <line x1="40" y1="120" x2="560" y2="120" stroke="#888" stroke-width="2" />
    
    <!-- Growth Line -->
    <polyline points="40.0,91.75636556979975 57.93103448275862,91.59685709221955 75.86206896551724,91.17150115200569 93.79310344827587,90.79931470431856 111.72413793103448,90.58663673421164 129.6551724137931,89.0447214509364 147.58620689655174,88.725704495776 165.51724137931035,88.40668754061561 183.44827586206895,88.14084007798195 201.3793103448276,87.98133160040175 219.31034482758622,86.5989247947067 237.24137931034483,85.1101790039582 255.17241379310346,81.76050097477406 273.1034482758621,81.38831452708692 291.0344827586207,81.0161280793998 308.9655172413793,80.90978909434634 326.8965517241379,80.53760264665921 344.82758620689657,80.32492467655229 362.7586206896552,80.11224670644535 380.6896551724138,80.00590772139188 398.62068965517244,79.6868907662315 416.55172413793105,79.47421279612456 434.48275862068965,79.0488568559107 452.41379310344826,78.7298399007503 470.3448275862069,63.842381993265235 488.2758620689655,63.6297040231583 506.2068965517241,63.36385656052464 524.1379310344828,63.09800909789097 542.0689655172414,62.35363620251672 560.0,61.29024635198208" fill="none" stroke="#00f2fe" stroke-width="4" stroke-linecap="round" stroke-linejoin="round" />
    
    <!-- End Point -->
    <circle cx="560.0" cy="61.29024635198208" r="6" fill="#fff" stroke="#00f2fe" stroke-width="3" />
    
    <!-- Labels -->
    <text x="560" y="30" font-family="Arial, sans-serif" font-size="20" font-weight="bold" fill="#00f2fe" text-anchor="end">5885 Total Installs</text>
    <text x="40" y="145" font-family="Arial, sans-serif" font-size="12" fill="#888" text-anchor="start">Global Adoption History</text>
    </svg>