<svg width="600" height="150" xmlns="http://www.w3.org/2000/svg">
    <defs>
        <linearGradient id="areaGrad" x1="0%" y1="0%" x2="0%" y2="100%">
            <stop offset="0%" style="stop-color:#4facfe;stop-opacity:0.4" />
            <stop offset="100%" style="stop-color:#4facfe;stop-opacity:0" />
        </linearGradient>
    </defs>
    
    <!-- Area -->
    <polygon points="40,120 40.0,119.6191282268303 83.33333333333334,114.38214134574693 126.66666666666667,108.95471857807871 170.0,104.00338552687262 213.33333333333334,98.41726618705036 256.66666666666663,95.24333474396954 300.0,91.87896741430386 343.3333333333333,78.10410495133306 386.6666666666667,68.80448582310623 430.0,66.39229792636479 473.3333333333333,63.05966991112993 516.6666666666667,61.28226830300466 560.0,38.49344054168431 560,120" fill="url(#areaGrad)" />
    
    <!-- X-Axis -->
    <line x1="40" y1="120" x2="560" y2="120" stroke="#888" stroke-width="2" />
    
    <!-- Growth Line -->
    <polyline points="40.0,119.6191282268303 83.33333333333334,114.38214134574693 126.66666666666667,108.95471857807871 170.0,104.00338552687262 213.33333333333334,98.41726618705036 256.66666666666663,95.24333474396954 300.0,91.87896741430386 343.3333333333333,78.10410495133306 386.6666666666667,68.80448582310623 430.0,66.39229792636479 473.3333333333333,63.05966991112993 516.6666666666667,61.28226830300466 560.0,38.49344054168431" fill="none" stroke="#00f2fe" stroke-width="4" stroke-linecap="round" stroke-linejoin="round" />
    
    <!-- End Point -->
    <circle cx="560.0" cy="38.49344054168431" r="6" fill="#fff" stroke="#00f2fe" stroke-width="3" />
    
    <!-- Labels -->
    <text x="560" y="30" font-family="Arial, sans-serif" font-size="20" font-weight="bold" fill="#00f2fe" text-anchor="end">2676 Total Installs</text>
    <text x="40" y="145" font-family="Arial, sans-serif" font-size="12" fill="#888" text-anchor="start">Global Adoption History</text>
    </svg>