<svg width="600" height="150" xmlns="http://www.w3.org/2000/svg">
    <defs>
        <linearGradient id="areaGrad" x1="0%" y1="0%" x2="0%" y2="100%">
            <stop offset="0%" style="stop-color:#4facfe;stop-opacity:0.4" />
            <stop offset="100%" style="stop-color:#4facfe;stop-opacity:0" />
        </linearGradient>
    </defs>
    
    <!-- Area -->
    <polygon points="40,120 40.0,108.8451062926674 57.93103448275862,91.08132008064803 75.86206896551724,80.67135934349687 93.79310344827587,78.22008418520747 111.72413793103448,77.04219871953593 129.6551724137931,69.11534788298965 147.58620689655174,65.42251777439782 165.51724137931035,65.26334406282058 183.44827586206895,61.57051395422873 201.3793103448276,60.106115807718176 219.31034482758622,58.896395599731186 237.24137931034483,58.38703972268404 255.17241379310346,58.132361784160466 273.1034482758621,56.69979837996535 291.0344827586207,54.2166884793605 308.9655172413793,52.115595486541 326.8965517241379,51.82908280570197 344.82758620689657,51.60623960949384 362.7586206896552,51.28789218633938 380.6896551724138,51.19238795939303 398.62068965517244,50.93771002086946 416.55172413793105,50.71486682466133 434.48275862068965,50.58752785539954 452.41379310344826,49.66432032825158 470.3448275862069,49.4733118743589 488.2758620689655,49.28230342046622 506.2068965517241,49.12312970888898 524.1379310344828,49.02762548194265 542.0689655172414,48.199922181741016 560.0,47.30854939690852 560,120" fill="url(#areaGrad)" />
    
    <!-- X-Axis -->
    <line x1="40" y1="120" x2="560" y2="120" stroke="#888" stroke-width="2" />
    
    <!-- Growth Line -->
    <polyline points="40.0,108.8451062926674 57.93103448275862,91.08132008064803 75.86206896551724,80.67135934349687 93.79310344827587,78.22008418520747 111.72413793103448,77.04219871953593 129.6551724137931,69.11534788298965 147.58620689655174,65.42251777439782 165.51724137931035,65.26334406282058 183.44827586206895,61.57051395422873 201.3793103448276,60.106115807718176 219.31034482758622,58.896395599731186 237.24137931034483,58.38703972268404 255.17241379310346,58.132361784160466 273.1034482758621,56.69979837996535 291.0344827586207,54.2166884793605 308.9655172413793,52.115595486541 326.8965517241379,51.82908280570197 344.82758620689657,51.60623960949384 362.7586206896552,51.28789218633938 380.6896551724138,51.19238795939303 398.62068965517244,50.93771002086946 416.55172413793105,50.71486682466133 434.48275862068965,50.58752785539954 452.41379310344826,49.66432032825158 470.3448275862069,49.4733118743589 488.2758620689655,49.28230342046622 506.2068965517241,49.12312970888898 524.1379310344828,49.02762548194265 542.0689655172414,48.199922181741016 560.0,47.30854939690852" fill="none" stroke="#00f2fe" stroke-width="4" stroke-linecap="round" stroke-linejoin="round" />
    
    <!-- End Point -->
    <circle cx="560.0" cy="47.30854939690852" r="6" fill="#fff" stroke="#00f2fe" stroke-width="3" />
    
    <!-- Labels -->
    <text x="560" y="30" font-family="Arial, sans-serif" font-size="20" font-weight="bold" fill="#00f2fe" text-anchor="end">5437 Total Installs</text>
    <text x="40" y="145" font-family="Arial, sans-serif" font-size="12" fill="#888" text-anchor="start">Global Adoption History</text>
    </svg>