<svg width="600" height="150" xmlns="http://www.w3.org/2000/svg">
    <defs>
        <linearGradient id="areaGrad" x1="0%" y1="0%" x2="0%" y2="100%">
            <stop offset="0%" style="stop-color:#4facfe;stop-opacity:0.4" />
            <stop offset="100%" style="stop-color:#4facfe;stop-opacity:0" />
        </linearGradient>
    </defs>
    
    <!-- Area -->
    <polygon points="40,120 40.0,111.90457244292098 57.93103448275862,111.90457244292098 75.86206896551724,111.87702760604762 93.79310344827587,110.6099651098733 111.72413793103448,96.34173960947543 129.6551724137931,80.97172063414337 147.58620689655174,71.9645589765563 165.51724137931035,69.84360653730798 183.44827586206895,68.82444757299383 201.3793103448276,61.965783191528445 219.31034482758622,58.77058211421927 237.24137931034483,58.63285792985249 255.17241379310346,55.43765685254333 273.1034482758621,54.170594356368994 291.0344827586207,53.123890555181504 308.9655172413793,52.68317316520783 326.8965517241379,52.46281447022099 344.82758620689657,51.22329681092002 362.7586206896552,49.07479953479833 380.6896551724138,47.2568403011569 398.62068965517244,47.00893676929671 416.55172413793105,46.81612291118323 434.48275862068965,46.540674542449665 452.41379310344826,46.45804003182961 470.3448275862069,46.23768133684277 488.2758620689655,46.04486747872929 506.2068965517241,45.93468813123586 524.1379310344828,45.13588786190857 542.0689655172414,44.970618840668436 560.0,44.805349819428315 560,120" fill="url(#areaGrad)" />
    
    <!-- X-Axis -->
    <line x1="40" y1="120" x2="560" y2="120" stroke="#888" stroke-width="2" />
    
    <!-- Growth Line -->
    <polyline points="40.0,111.90457244292098 57.93103448275862,111.90457244292098 75.86206896551724,111.87702760604762 93.79310344827587,110.6099651098733 111.72413793103448,96.34173960947543 129.6551724137931,80.97172063414337 147.58620689655174,71.9645589765563 165.51724137931035,69.84360653730798 183.44827586206895,68.82444757299383 201.3793103448276,61.965783191528445 219.31034482758622,58.77058211421927 237.24137931034483,58.63285792985249 255.17241379310346,55.43765685254333 273.1034482758621,54.170594356368994 291.0344827586207,53.123890555181504 308.9655172413793,52.68317316520783 326.8965517241379,52.46281447022099 344.82758620689657,51.22329681092002 362.7586206896552,49.07479953479833 380.6896551724138,47.2568403011569 398.62068965517244,47.00893676929671 416.55172413793105,46.81612291118323 434.48275862068965,46.540674542449665 452.41379310344826,46.45804003182961 470.3448275862069,46.23768133684277 488.2758620689655,46.04486747872929 506.2068965517241,45.93468813123586 524.1379310344828,45.13588786190857 542.0689655172414,44.970618840668436 560.0,44.805349819428315" fill="none" stroke="#00f2fe" stroke-width="4" stroke-linecap="round" stroke-linejoin="round" />
    
    <!-- End Point -->
    <circle cx="560.0" cy="44.805349819428315" r="6" fill="#fff" stroke="#00f2fe" stroke-width="3" />
    
    <!-- Labels -->
    <text x="560" y="30" font-family="Arial, sans-serif" font-size="20" font-weight="bold" fill="#00f2fe" text-anchor="end">5375 Total Installs</text>
    <text x="40" y="145" font-family="Arial, sans-serif" font-size="12" fill="#888" text-anchor="start">Global Adoption History</text>
    </svg>