<svg width="600" height="150" xmlns="http://www.w3.org/2000/svg">
    <defs>
        <linearGradient id="areaGrad" x1="0%" y1="0%" x2="0%" y2="100%">
            <stop offset="0%" style="stop-color:#4facfe;stop-opacity:0.4" />
            <stop offset="100%" style="stop-color:#4facfe;stop-opacity:0" />
        </linearGradient>
    </defs>
    
    <!-- Area -->
    <polygon points="40,120 40.0,91.5670571360268 57.93103448275862,91.08295481711693 75.86206896551724,90.70643079129815 93.79310344827587,90.16853932584272 111.72413793103448,90.0071718862061 129.6551724137931,89.57685871384177 147.58620689655174,89.20033468802298 165.51724137931035,88.98517810184082 183.44827586206895,87.4252928520201 201.3793103448276,87.10255797274687 219.31034482758622,86.77982309347361 237.24137931034483,86.5108773607459 255.17241379310346,86.34950992110927 273.1034482758621,84.9509921109252 291.0344827586207,83.44489600765004 308.9655172413793,80.05617977528092 326.8965517241379,79.67965574946214 344.82758620689657,79.30313172364335 362.7586206896552,79.19555343055225 380.6896551724138,78.81902940473347 398.62068965517244,78.60387281855131 416.55172413793105,78.38871623236913 434.48275862068965,78.28113793927805 452.41379310344826,77.9584030600048 470.3448275862069,77.74324647382264 488.2758620689655,77.31293330145832 506.2068965517241,76.99019842218506 524.1379310344828,61.92923738943344 542.0689655172414,61.71408080325128 560.0,61.44513507052358 560,120" fill="url(#areaGrad)" />
    
    <!-- X-Axis -->
    <line x1="40" y1="120" x2="560" y2="120" stroke="#888" stroke-width="2" />
    
    <!-- Growth Line -->
    <polyline points="40.0,91.5670571360268 57.93103448275862,91.08295481711693 75.86206896551724,90.70643079129815 93.79310344827587,90.16853932584272 111.72413793103448,90.0071718862061 129.6551724137931,89.57685871384177 147.58620689655174,89.20033468802298 165.51724137931035,88.98517810184082 183.44827586206895,87.4252928520201 201.3793103448276,87.10255797274687 219.31034482758622,86.77982309347361 237.24137931034483,86.5108773607459 255.17241379310346,86.34950992110927 273.1034482758621,84.9509921109252 291.0344827586207,83.44489600765004 308.9655172413793,80.05617977528092 326.8965517241379,79.67965574946214 344.82758620689657,79.30313172364335 362.7586206896552,79.19555343055225 380.6896551724138,78.81902940473347 398.62068965517244,78.60387281855131 416.55172413793105,78.38871623236913 434.48275862068965,78.28113793927805 452.41379310344826,77.9584030600048 470.3448275862069,77.74324647382264 488.2758620689655,77.31293330145832 506.2068965517241,76.99019842218506 524.1379310344828,61.92923738943344 542.0689655172414,61.71408080325128 560.0,61.44513507052358" fill="none" stroke="#00f2fe" stroke-width="4" stroke-linecap="round" stroke-linejoin="round" />
    
    <!-- End Point -->
    <circle cx="560.0" cy="61.44513507052358" r="6" fill="#fff" stroke="#00f2fe" stroke-width="3" />
    
    <!-- Labels -->
    <text x="560" y="30" font-family="Arial, sans-serif" font-size="20" font-weight="bold" fill="#00f2fe" text-anchor="end">5846 Total Installs</text>
    <text x="40" y="145" font-family="Arial, sans-serif" font-size="12" fill="#888" text-anchor="start">Global Adoption History</text>
    </svg>