<svg width="600" height="150" xmlns="http://www.w3.org/2000/svg">
    <defs>
        <linearGradient id="areaGrad" x1="0%" y1="0%" x2="0%" y2="100%">
            <stop offset="0%" style="stop-color:#4facfe;stop-opacity:0.4" />
            <stop offset="100%" style="stop-color:#4facfe;stop-opacity:0" />
        </linearGradient>
    </defs>
    
    <!-- Area -->
    <polygon points="40,120 40.0,92.32728743068392 57.93103448275862,91.96337800369686 75.86206896551724,91.75542975970426 93.79310344827587,90.24780499075786 111.72413793103448,89.93588262476895 129.6551724137931,89.62396025878004 147.58620689655174,89.36402495378928 165.51724137931035,89.20806377079484 183.44827586206895,87.8564001848429 201.3793103448276,86.40076247689464 219.31034482758622,83.1255776340111 237.24137931034483,82.76166820702403 255.17241379310346,82.39775878003698 273.1034482758621,82.29378465804066 291.0344827586207,81.92987523105361 308.9655172413793,81.72192698706101 326.8965517241379,81.5139787430684 344.82758620689657,81.41000462107209 362.7586206896552,81.09808225508318 380.6896551724138,80.89013401109058 398.62068965517244,80.47423752310536 416.55172413793105,80.16231515711647 434.48275862068965,65.60593807763402 452.41379310344826,65.39798983364142 470.3448275862069,65.13805452865066 488.2758620689655,64.8781192236599 506.2068965517241,64.15030036968577 524.1379310344828,63.11055914972275 542.0689655172414,61.862869685767116 560.0,60.82312846580408 560,120" fill="url(#areaGrad)" />
    
    <!-- X-Axis -->
    <line x1="40" y1="120" x2="560" y2="120" stroke="#888" stroke-width="2" />
    
    <!-- Growth Line -->
    <polyline points="40.0,92.32728743068392 57.93103448275862,91.96337800369686 75.86206896551724,91.75542975970426 93.79310344827587,90.24780499075786 111.72413793103448,89.93588262476895 129.6551724137931,89.62396025878004 147.58620689655174,89.36402495378928 165.51724137931035,89.20806377079484 183.44827586206895,87.8564001848429 201.3793103448276,86.40076247689464 219.31034482758622,83.1255776340111 237.24137931034483,82.76166820702403 255.17241379310346,82.39775878003698 273.1034482758621,82.29378465804066 291.0344827586207,81.92987523105361 308.9655172413793,81.72192698706101 326.8965517241379,81.5139787430684 344.82758620689657,81.41000462107209 362.7586206896552,81.09808225508318 380.6896551724138,80.89013401109058 398.62068965517244,80.47423752310536 416.55172413793105,80.16231515711647 434.48275862068965,65.60593807763402 452.41379310344826,65.39798983364142 470.3448275862069,65.13805452865066 488.2758620689655,64.8781192236599 506.2068965517241,64.15030036968577 524.1379310344828,63.11055914972275 542.0689655172414,61.862869685767116 560.0,60.82312846580408" fill="none" stroke="#00f2fe" stroke-width="4" stroke-linecap="round" stroke-linejoin="round" />
    
    <!-- End Point -->
    <circle cx="560.0" cy="60.82312846580408" r="6" fill="#fff" stroke="#00f2fe" stroke-width="3" />
    
    <!-- Labels -->
    <text x="560" y="30" font-family="Arial, sans-serif" font-size="20" font-weight="bold" fill="#00f2fe" text-anchor="end">5929 Total Installs</text>
    <text x="40" y="145" font-family="Arial, sans-serif" font-size="12" fill="#888" text-anchor="start">Global Adoption History</text>
    </svg>