<svg width="600" height="150" xmlns="http://www.w3.org/2000/svg">
    <defs>
        <linearGradient id="areaGrad" x1="0%" y1="0%" x2="0%" y2="100%">
            <stop offset="0%" style="stop-color:#4facfe;stop-opacity:0.4" />
            <stop offset="100%" style="stop-color:#4facfe;stop-opacity:0" />
        </linearGradient>
    </defs>
    
    <!-- Area -->
    <polygon points="40,120 40.0,112.33402583325807 57.93103448275862,110.87074338361485 75.86206896551724,109.57004787282088 93.79310344827587,109.35326528768856 111.72413793103448,109.35326528768856 129.6551724137931,109.32616746454701 147.58620689655174,108.07966760003613 165.51724137931035,94.04299521271791 183.44827586206895,78.92240989973806 201.3793103448276,70.06142173245416 219.31034482758622,67.97488935055551 237.24137931034483,66.9722698943185 255.17241379310346,60.2249119320748 273.1034482758621,57.08156444765605 291.0344827586207,56.946075331948336 308.9655172413793,53.802727847529596 326.8965517241379,52.556227983018715 344.82758620689657,51.526510703640156 362.7586206896552,51.0929455333755 380.6896551724138,50.87616294824318 398.62068965517244,49.65676090687383 416.55172413793105,47.54313070183363 434.48275862068965,45.75467437449193 452.41379310344826,45.51079396621806 470.3448275862069,45.32110920422727 488.2758620689655,45.05013097281186 506.2068965517241,44.968837503387235 524.1379310344828,44.75205491825491 542.0689655172414,44.56237015626412 560.0,44.453978863697955 560,120" fill="url(#areaGrad)" />
    
    <!-- X-Axis -->
    <line x1="40" y1="120" x2="560" y2="120" stroke="#888" stroke-width="2" />
    
    <!-- Growth Line -->
    <polyline points="40.0,112.33402583325807 57.93103448275862,110.87074338361485 75.86206896551724,109.57004787282088 93.79310344827587,109.35326528768856 111.72413793103448,109.35326528768856 129.6551724137931,109.32616746454701 147.58620689655174,108.07966760003613 165.51724137931035,94.04299521271791 183.44827586206895,78.92240989973806 201.3793103448276,70.06142173245416 219.31034482758622,67.97488935055551 237.24137931034483,66.9722698943185 255.17241379310346,60.2249119320748 273.1034482758621,57.08156444765605 291.0344827586207,56.946075331948336 308.9655172413793,53.802727847529596 326.8965517241379,52.556227983018715 344.82758620689657,51.526510703640156 362.7586206896552,51.0929455333755 380.6896551724138,50.87616294824318 398.62068965517244,49.65676090687383 416.55172413793105,47.54313070183363 434.48275862068965,45.75467437449193 452.41379310344826,45.51079396621806 470.3448275862069,45.32110920422727 488.2758620689655,45.05013097281186 506.2068965517241,44.968837503387235 524.1379310344828,44.75205491825491 542.0689655172414,44.56237015626412 560.0,44.453978863697955" fill="none" stroke="#00f2fe" stroke-width="4" stroke-linecap="round" stroke-linejoin="round" />
    
    <!-- End Point -->
    <circle cx="560.0" cy="44.453978863697955" r="6" fill="#fff" stroke="#00f2fe" stroke-width="3" />
    
    <!-- Labels -->
    <text x="560" y="30" font-family="Arial, sans-serif" font-size="20" font-weight="bold" fill="#00f2fe" text-anchor="end">5334 Total Installs</text>
    <text x="40" y="145" font-family="Arial, sans-serif" font-size="12" fill="#888" text-anchor="start">Global Adoption History</text>
    </svg>