<svg width="600" height="150" xmlns="http://www.w3.org/2000/svg">
    <defs>
        <linearGradient id="areaGrad" x1="0%" y1="0%" x2="0%" y2="100%">
            <stop offset="0%" style="stop-color:#4facfe;stop-opacity:0.4" />
            <stop offset="100%" style="stop-color:#4facfe;stop-opacity:0" />
        </linearGradient>
    </defs>
    
    <!-- Area -->
    <polygon points="40,120 40.0,94.17746113989637 57.93103448275862,88.03049929345266 75.86206896551724,85.59291097503532 93.79310344827587,83.57925105982102 111.72413793103448,82.73139425341498 129.6551724137931,82.30746585021197 147.58620689655174,79.92286858219501 165.51724137931035,75.78956665096561 183.44827586206895,72.29215732454075 201.3793103448276,71.81523787093735 219.31034482758622,71.44430051813472 237.24137931034483,70.91439001413096 255.17241379310346,70.75541686292982 273.1034482758621,70.33148845972681 291.0344827586207,69.96055110692417 308.9655172413793,69.74858690532267 326.8965517241379,68.21184644371175 344.82758620689657,67.89390014130947 362.7586206896552,67.57595383890722 380.6896551724138,67.31099858690533 398.62068965517244,67.15202543570419 416.55172413793105,65.77425812529441 434.48275862068965,64.29050871408384 452.41379310344826,60.952072538860115 470.3448275862069,60.58113518605747 488.2758620689655,60.21019783325484 506.2068965517241,60.10421573245409 524.1379310344828,59.733278379651445 542.0689655172414,59.52131417804994 560.0,59.30934997644844 560,120" fill="url(#areaGrad)" />
    
    <!-- X-Axis -->
    <line x1="40" y1="120" x2="560" y2="120" stroke="#888" stroke-width="2" />
    
    <!-- Growth Line -->
    <polyline points="40.0,94.17746113989637 57.93103448275862,88.03049929345266 75.86206896551724,85.59291097503532 93.79310344827587,83.57925105982102 111.72413793103448,82.73139425341498 129.6551724137931,82.30746585021197 147.58620689655174,79.92286858219501 165.51724137931035,75.78956665096561 183.44827586206895,72.29215732454075 201.3793103448276,71.81523787093735 219.31034482758622,71.44430051813472 237.24137931034483,70.91439001413096 255.17241379310346,70.75541686292982 273.1034482758621,70.33148845972681 291.0344827586207,69.96055110692417 308.9655172413793,69.74858690532267 326.8965517241379,68.21184644371175 344.82758620689657,67.89390014130947 362.7586206896552,67.57595383890722 380.6896551724138,67.31099858690533 398.62068965517244,67.15202543570419 416.55172413793105,65.77425812529441 434.48275862068965,64.29050871408384 452.41379310344826,60.952072538860115 470.3448275862069,60.58113518605747 488.2758620689655,60.21019783325484 506.2068965517241,60.10421573245409 524.1379310344828,59.733278379651445 542.0689655172414,59.52131417804994 560.0,59.30934997644844" fill="none" stroke="#00f2fe" stroke-width="4" stroke-linecap="round" stroke-linejoin="round" />
    
    <!-- End Point -->
    <circle cx="560.0" cy="59.30934997644844" r="6" fill="#fff" stroke="#00f2fe" stroke-width="3" />
    
    <!-- Labels -->
    <text x="560" y="30" font-family="Arial, sans-serif" font-size="20" font-weight="bold" fill="#00f2fe" text-anchor="end">5531 Total Installs</text>
    <text x="40" y="145" font-family="Arial, sans-serif" font-size="12" fill="#888" text-anchor="start">Global Adoption History</text>
    </svg>