<svg width="600" height="150" xmlns="http://www.w3.org/2000/svg">
    <defs>
        <linearGradient id="areaGrad" x1="0%" y1="0%" x2="0%" y2="100%">
            <stop offset="0%" style="stop-color:#4facfe;stop-opacity:0.4" />
            <stop offset="100%" style="stop-color:#4facfe;stop-opacity:0" />
        </linearGradient>
    </defs>
    
    <!-- Area -->
    <polygon points="40,120 40.0,92.13062223257982 57.93103448275862,91.71113959450012 75.86206896551724,91.34409228618038 93.79310344827587,91.13435096714053 111.72413793103448,89.61372640410161 129.6551724137931,89.29911442554184 147.58620689655174,88.98450244698206 165.51724137931035,88.72232579818225 183.44827586206895,88.56501980890236 201.3793103448276,87.20170123514333 219.31034482758622,85.73351200186437 237.24137931034483,82.43008622698673 255.17241379310346,82.06303891866699 273.1034482758621,81.69599161034725 291.0344827586207,81.59112095082733 308.9655172413793,81.22407364250759 326.8965517241379,81.01433232346773 344.82758620689657,80.80459100442789 362.7586206896552,80.69972034490796 380.6896551724138,80.38510836634819 398.62068965517244,80.17536704730833 416.55172413793105,79.75588440922863 434.48275862068965,79.44127243066885 452.41379310344826,64.7593800978793 470.3448275862069,64.54963877883945 488.2758620689655,64.28746213003964 506.2068965517241,64.02528548123982 524.1379310344828,63.291190864600345 542.0689655172414,62.24248426940109 560.0,60.98403635516198 560,120" fill="url(#areaGrad)" />
    
    <!-- X-Axis -->
    <line x1="40" y1="120" x2="560" y2="120" stroke="#888" stroke-width="2" />
    
    <!-- Growth Line -->
    <polyline points="40.0,92.13062223257982 57.93103448275862,91.71113959450012 75.86206896551724,91.34409228618038 93.79310344827587,91.13435096714053 111.72413793103448,89.61372640410161 129.6551724137931,89.29911442554184 147.58620689655174,88.98450244698206 165.51724137931035,88.72232579818225 183.44827586206895,88.56501980890236 201.3793103448276,87.20170123514333 219.31034482758622,85.73351200186437 237.24137931034483,82.43008622698673 255.17241379310346,82.06303891866699 273.1034482758621,81.69599161034725 291.0344827586207,81.59112095082733 308.9655172413793,81.22407364250759 326.8965517241379,81.01433232346773 344.82758620689657,80.80459100442789 362.7586206896552,80.69972034490796 380.6896551724138,80.38510836634819 398.62068965517244,80.17536704730833 416.55172413793105,79.75588440922863 434.48275862068965,79.44127243066885 452.41379310344826,64.7593800978793 470.3448275862069,64.54963877883945 488.2758620689655,64.28746213003964 506.2068965517241,64.02528548123982 524.1379310344828,63.291190864600345 542.0689655172414,62.24248426940109 560.0,60.98403635516198" fill="none" stroke="#00f2fe" stroke-width="4" stroke-linecap="round" stroke-linejoin="round" />
    
    <!-- End Point -->
    <circle cx="560.0" cy="60.98403635516198" r="6" fill="#fff" stroke="#00f2fe" stroke-width="3" />
    
    <!-- Labels -->
    <text x="560" y="30" font-family="Arial, sans-serif" font-size="20" font-weight="bold" fill="#00f2fe" text-anchor="end">5909 Total Installs</text>
    <text x="40" y="145" font-family="Arial, sans-serif" font-size="12" fill="#888" text-anchor="start">Global Adoption History</text>
    </svg>