<svg width="600" height="150" xmlns="http://www.w3.org/2000/svg">
    <defs>
        <linearGradient id="areaGrad" x1="0%" y1="0%" x2="0%" y2="100%">
            <stop offset="0%" style="stop-color:#4facfe;stop-opacity:0.4" />
            <stop offset="100%" style="stop-color:#4facfe;stop-opacity:0" />
        </linearGradient>
    </defs>
    
    <!-- Area -->
    <polygon points="40,120 40.0,89.98623853211012 57.93103448275862,89.51441677588468 75.86206896551724,86.86041939711666 93.79310344827587,82.26015727391876 111.72413793103448,78.367627785059 129.6551724137931,77.83682830930539 147.58620689655174,77.42398427260815 165.51724137931035,76.83420707732637 183.44827586206895,76.65727391874182 201.3793103448276,76.18545216251641 219.31034482758622,75.77260812581916 237.24137931034483,75.53669724770644 255.17241379310346,73.82634338138928 273.1034482758621,73.47247706422021 291.0344827586207,73.11861074705114 308.9655172413793,72.82372214941024 326.8965517241379,72.64678899082571 344.82758620689657,71.11336828309308 362.7586206896552,69.46199213630408 380.6896551724138,65.74639580602886 398.62068965517244,65.3335517693316 416.55172413793105,64.92070773263436 434.48275862068965,64.80275229357801 452.41379310344826,64.38990825688074 470.3448275862069,64.15399737876805 488.2758620689655,63.91808650065533 506.2068965517241,63.80013106159897 524.1379310344828,63.446264744429904 542.0689655172414,63.21035386631719 560.0,62.73853211009176 560,120" fill="url(#areaGrad)" />
    
    <!-- X-Axis -->
    <line x1="40" y1="120" x2="560" y2="120" stroke="#888" stroke-width="2" />
    
    <!-- Growth Line -->
    <polyline points="40.0,89.98623853211012 57.93103448275862,89.51441677588468 75.86206896551724,86.86041939711666 93.79310344827587,82.26015727391876 111.72413793103448,78.367627785059 129.6551724137931,77.83682830930539 147.58620689655174,77.42398427260815 165.51724137931035,76.83420707732637 183.44827586206895,76.65727391874182 201.3793103448276,76.18545216251641 219.31034482758622,75.77260812581916 237.24137931034483,75.53669724770644 255.17241379310346,73.82634338138928 273.1034482758621,73.47247706422021 291.0344827586207,73.11861074705114 308.9655172413793,72.82372214941024 326.8965517241379,72.64678899082571 344.82758620689657,71.11336828309308 362.7586206896552,69.46199213630408 380.6896551724138,65.74639580602886 398.62068965517244,65.3335517693316 416.55172413793105,64.92070773263436 434.48275862068965,64.80275229357801 452.41379310344826,64.38990825688074 470.3448275862069,64.15399737876805 488.2758620689655,63.91808650065533 506.2068965517241,63.80013106159897 524.1379310344828,63.446264744429904 542.0689655172414,63.21035386631719 560.0,62.73853211009176" fill="none" stroke="#00f2fe" stroke-width="4" stroke-linecap="round" stroke-linejoin="round" />
    
    <!-- End Point -->
    <circle cx="560.0" cy="62.73853211009176" r="6" fill="#fff" stroke="#00f2fe" stroke-width="3" />
    
    <!-- Labels -->
    <text x="560" y="30" font-family="Arial, sans-serif" font-size="20" font-weight="bold" fill="#00f2fe" text-anchor="end">5551 Total Installs</text>
    <text x="40" y="145" font-family="Arial, sans-serif" font-size="12" fill="#888" text-anchor="start">Global Adoption History</text>
    </svg>