<svg width="600" height="150" xmlns="http://www.w3.org/2000/svg">
    <defs>
        <linearGradient id="areaGrad" x1="0%" y1="0%" x2="0%" y2="100%">
            <stop offset="0%" style="stop-color:#4facfe;stop-opacity:0.4" />
            <stop offset="100%" style="stop-color:#4facfe;stop-opacity:0" />
        </linearGradient>
    </defs>
    
    <!-- Area -->
    <polygon points="40,120 40.0,91.47432060337604 57.93103448275862,91.09721058302407 75.86206896551724,90.55848198252126 93.79310344827587,90.39686340237041 111.72413793103448,89.96588052196816 129.6551724137931,89.58877050161618 147.58620689655174,89.37327906141506 165.51724137931035,87.8109661199569 183.44827586206895,87.48772895965521 201.3793103448276,87.16449179935353 219.31034482758622,86.89512749910213 237.24137931034483,86.73350891895129 255.17241379310346,85.33281455764396 273.1034482758621,83.82437447623609 291.0344827586207,80.43038429306837 308.9655172413793,80.05327427271641 326.8965517241379,79.67616425236443 344.82758620689657,79.56841853226386 362.7586206896552,79.1913085119119 380.6896551724138,78.97581707171076 398.62068965517244,78.76032563150964 416.55172413793105,78.65257991140908 434.48275862068965,78.32934275110739 452.41379310344826,78.11385131090627 470.3448275862069,77.68286843050402 488.2758620689655,77.35963127020233 506.2068965517241,62.275230456123566 524.1379310344828,62.05973901592244 542.0689655172414,61.79037471567103 560.0,61.521010415419624 560,120" fill="url(#areaGrad)" />
    
    <!-- X-Axis -->
    <line x1="40" y1="120" x2="560" y2="120" stroke="#888" stroke-width="2" />
    
    <!-- Growth Line -->
    <polyline points="40.0,91.47432060337604 57.93103448275862,91.09721058302407 75.86206896551724,90.55848198252126 93.79310344827587,90.39686340237041 111.72413793103448,89.96588052196816 129.6551724137931,89.58877050161618 147.58620689655174,89.37327906141506 165.51724137931035,87.8109661199569 183.44827586206895,87.48772895965521 201.3793103448276,87.16449179935353 219.31034482758622,86.89512749910213 237.24137931034483,86.73350891895129 255.17241379310346,85.33281455764396 273.1034482758621,83.82437447623609 291.0344827586207,80.43038429306837 308.9655172413793,80.05327427271641 326.8965517241379,79.67616425236443 344.82758620689657,79.56841853226386 362.7586206896552,79.1913085119119 380.6896551724138,78.97581707171076 398.62068965517244,78.76032563150964 416.55172413793105,78.65257991140908 434.48275862068965,78.32934275110739 452.41379310344826,78.11385131090627 470.3448275862069,77.68286843050402 488.2758620689655,77.35963127020233 506.2068965517241,62.275230456123566 524.1379310344828,62.05973901592244 542.0689655172414,61.79037471567103 560.0,61.521010415419624" fill="none" stroke="#00f2fe" stroke-width="4" stroke-linecap="round" stroke-linejoin="round" />
    
    <!-- End Point -->
    <circle cx="560.0" cy="61.521010415419624" r="6" fill="#fff" stroke="#00f2fe" stroke-width="3" />
    
    <!-- Labels -->
    <text x="560" y="30" font-family="Arial, sans-serif" font-size="20" font-weight="bold" fill="#00f2fe" text-anchor="end">5851 Total Installs</text>
    <text x="40" y="145" font-family="Arial, sans-serif" font-size="12" fill="#888" text-anchor="start">Global Adoption History</text>
    </svg>