<svg width="600" height="150" xmlns="http://www.w3.org/2000/svg">
    <defs>
        <linearGradient id="areaGrad" x1="0%" y1="0%" x2="0%" y2="100%">
            <stop offset="0%" style="stop-color:#4facfe;stop-opacity:0.4" />
            <stop offset="100%" style="stop-color:#4facfe;stop-opacity:0" />
        </linearGradient>
    </defs>
    
    <!-- Area -->
    <polygon points="40,120 40.0,94.20547541948778 57.93103448275862,93.94053576685312 75.86206896551724,87.7939358257286 93.79310344827587,85.35649102148955 111.72413793103448,83.34294966146601 129.6551724137931,82.49514277303504 147.58620689655174,82.07123932881956 165.51724137931035,79.68678245510746 183.44827586206895,75.5537238740065 201.3793103448276,72.05652045922875 219.31034482758622,71.57962908448633 237.24137931034483,71.20871357079778 255.17241379310346,70.67883426552842 273.1034482758621,70.5198704739476 291.0344827586207,70.09596702973212 308.9655172413793,69.72505151604358 326.8965517241379,69.51309979393584 344.82758620689657,67.9764498086547 362.7586206896552,67.6585222254931 380.6896551724138,67.34059464233148 398.62068965517244,67.0756549896968 416.55172413793105,66.916691198116 434.48275862068965,65.53900500441569 452.41379310344826,64.05534294966148 470.3448275862069,60.717103326464546 488.2758620689655,60.346187812776 506.2068965517241,59.97527229908745 524.1379310344828,59.86929643803359 542.0689655172414,59.49838092434503 560.0,59.286429202237294 560,120" fill="url(#areaGrad)" />
    
    <!-- X-Axis -->
    <line x1="40" y1="120" x2="560" y2="120" stroke="#888" stroke-width="2" />
    
    <!-- Growth Line -->
    <polyline points="40.0,94.20547541948778 57.93103448275862,93.94053576685312 75.86206896551724,87.7939358257286 93.79310344827587,85.35649102148955 111.72413793103448,83.34294966146601 129.6551724137931,82.49514277303504 147.58620689655174,82.07123932881956 165.51724137931035,79.68678245510746 183.44827586206895,75.5537238740065 201.3793103448276,72.05652045922875 219.31034482758622,71.57962908448633 237.24137931034483,71.20871357079778 255.17241379310346,70.67883426552842 273.1034482758621,70.5198704739476 291.0344827586207,70.09596702973212 308.9655172413793,69.72505151604358 326.8965517241379,69.51309979393584 344.82758620689657,67.9764498086547 362.7586206896552,67.6585222254931 380.6896551724138,67.34059464233148 398.62068965517244,67.0756549896968 416.55172413793105,66.916691198116 434.48275862068965,65.53900500441569 452.41379310344826,64.05534294966148 470.3448275862069,60.717103326464546 488.2758620689655,60.346187812776 506.2068965517241,59.97527229908745 524.1379310344828,59.86929643803359 542.0689655172414,59.49838092434503 560.0,59.286429202237294" fill="none" stroke="#00f2fe" stroke-width="4" stroke-linecap="round" stroke-linejoin="round" />
    
    <!-- End Point -->
    <circle cx="560.0" cy="59.286429202237294" r="6" fill="#fff" stroke="#00f2fe" stroke-width="3" />
    
    <!-- Labels -->
    <text x="560" y="30" font-family="Arial, sans-serif" font-size="20" font-weight="bold" fill="#00f2fe" text-anchor="end">5527 Total Installs</text>
    <text x="40" y="145" font-family="Arial, sans-serif" font-size="12" fill="#888" text-anchor="start">Global Adoption History</text>
    </svg>