<svg width="600" height="150" xmlns="http://www.w3.org/2000/svg">
    <defs>
        <linearGradient id="areaGrad" x1="0%" y1="0%" x2="0%" y2="100%">
            <stop offset="0%" style="stop-color:#4facfe;stop-opacity:0.4" />
            <stop offset="100%" style="stop-color:#4facfe;stop-opacity:0" />
        </linearGradient>
    </defs>
    
    <!-- Area -->
    <polygon points="40,120 40.0,118.09793123976782 57.93103448275862,109.79312397678225 75.86206896551724,104.18642229923671 93.79310344827587,102.73212425318394 111.72413793103448,100.7228966895584 129.6551724137931,99.65130865562477 147.58620689655174,85.91201922054728 165.51724137931035,84.13241766419323 183.44827586206895,84.07501116237535 201.3793103448276,83.99846915995153 219.31034482758622,83.88365615631578 237.24137931034483,82.98428762783578 255.17241379310346,81.95097059511406 273.1034482758621,81.0324665660281 291.0344827586207,80.87938256118045 308.9655172413793,80.87938256118045 326.8965517241379,80.8602470605745 344.82758620689657,79.98001403270044 362.7586206896552,70.06782471881445 380.6896551724138,59.39021538069016 398.62068965517244,53.13290668254204 416.55172413793105,51.65947313588332 434.48275862068965,50.95145961346289 452.41379310344826,46.18671996257946 470.3448275862069,43.967001892288394 488.2758620689655,43.871324389258604 506.2068965517241,41.65160631896754 524.1379310344828,40.7713732910935 542.0689655172414,40.04422426806711 560.0,39.738056258371785 560,120" fill="url(#areaGrad)" />
    
    <!-- X-Axis -->
    <line x1="40" y1="120" x2="560" y2="120" stroke="#888" stroke-width="2" />
    
    <!-- Growth Line -->
    <polyline points="40.0,118.09793123976782 57.93103448275862,109.79312397678225 75.86206896551724,104.18642229923671 93.79310344827587,102.73212425318394 111.72413793103448,100.7228966895584 129.6551724137931,99.65130865562477 147.58620689655174,85.91201922054728 165.51724137931035,84.13241766419323 183.44827586206895,84.07501116237535 201.3793103448276,83.99846915995153 219.31034482758622,83.88365615631578 237.24137931034483,82.98428762783578 255.17241379310346,81.95097059511406 273.1034482758621,81.0324665660281 291.0344827586207,80.87938256118045 308.9655172413793,80.87938256118045 326.8965517241379,80.8602470605745 344.82758620689657,79.98001403270044 362.7586206896552,70.06782471881445 380.6896551724138,59.39021538069016 398.62068965517244,53.13290668254204 416.55172413793105,51.65947313588332 434.48275862068965,50.95145961346289 452.41379310344826,46.18671996257946 470.3448275862069,43.967001892288394 488.2758620689655,43.871324389258604 506.2068965517241,41.65160631896754 524.1379310344828,40.7713732910935 542.0689655172414,40.04422426806711 560.0,39.738056258371785" fill="none" stroke="#00f2fe" stroke-width="4" stroke-linecap="round" stroke-linejoin="round" />
    
    <!-- End Point -->
    <circle cx="560.0" cy="39.738056258371785" r="6" fill="#fff" stroke="#00f2fe" stroke-width="3" />
    
    <!-- Labels -->
    <text x="560" y="30" font-family="Arial, sans-serif" font-size="20" font-weight="bold" fill="#00f2fe" text-anchor="end">5089 Total Installs</text>
    <text x="40" y="145" font-family="Arial, sans-serif" font-size="12" fill="#888" text-anchor="start">Global Adoption History</text>
    </svg>