<svg width="600" height="150" xmlns="http://www.w3.org/2000/svg">
    <defs>
        <linearGradient id="areaGrad" x1="0%" y1="0%" x2="0%" y2="100%">
            <stop offset="0%" style="stop-color:#4facfe;stop-opacity:0.4" />
            <stop offset="100%" style="stop-color:#4facfe;stop-opacity:0" />
        </linearGradient>
    </defs>
    
    <!-- Area -->
    <polygon points="40,120 40.0,119.45570003023889 92.0,111.97157544602359 144.0,104.21530087692773 196.0,97.13940127003326 248.0,89.15633504687028 300.0,84.62050196552767 352.0,79.81251889930451 404.0,60.1270033262776 456.0,46.83701239794377 508.0,43.38977925612339 560.0,38.627154520713646 560,120" fill="url(#areaGrad)" />
    
    <!-- X-Axis -->
    <line x1="40" y1="120" x2="560" y2="120" stroke="#888" stroke-width="2" />
    
    <!-- Growth Line -->
    <polyline points="40.0,119.45570003023889 92.0,111.97157544602359 144.0,104.21530087692773 196.0,97.13940127003326 248.0,89.15633504687028 300.0,84.62050196552767 352.0,79.81251889930451 404.0,60.1270033262776 456.0,46.83701239794377 508.0,43.38977925612339 560.0,38.627154520713646" fill="none" stroke="#00f2fe" stroke-width="4" stroke-linecap="round" stroke-linejoin="round" />
    
    <!-- End Point -->
    <circle cx="560.0" cy="38.627154520713646" r="6" fill="#fff" stroke="#00f2fe" stroke-width="3" />
    
    <!-- Labels -->
    <text x="560" y="30" font-family="Arial, sans-serif" font-size="20" font-weight="bold" fill="#00f2fe" text-anchor="end">1902 Total Installs</text>
    <text x="40" y="145" font-family="Arial, sans-serif" font-size="12" fill="#888" text-anchor="start">Global Adoption History</text>
    </svg>