<svg width="600" height="150" xmlns="http://www.w3.org/2000/svg">
    <defs>
        <linearGradient id="areaGrad" x1="0%" y1="0%" x2="0%" y2="100%">
            <stop offset="0%" style="stop-color:#4facfe;stop-opacity:0.4" />
            <stop offset="100%" style="stop-color:#4facfe;stop-opacity:0" />
        </linearGradient>
    </defs>
    
    <!-- Area -->
    <polygon points="40,120 40.0,91.59135559921417 57.93103448275862,91.0555456331488 75.86206896551724,90.89480264332919 93.79310344827587,90.4661546704769 111.72413793103448,90.09108769423113 129.6551724137931,89.876763707805 147.58620689655174,88.32291480621542 165.51724137931035,88.0014288265762 183.44827586206895,87.67994284693698 201.3793103448276,87.41203786390429 219.31034482758622,87.25129487408469 237.24137931034483,85.85818896231473 255.17241379310346,84.3579210573317 273.1034482758621,80.98231827111988 291.0344827586207,80.60725129487412 308.9655172413793,80.23218431862836 326.8965517241379,80.12502232541527 344.82758620689657,79.74995534916951 362.7586206896552,79.53563136274337 380.6896551724138,79.32130737631722 398.62068965517244,79.21414538310415 416.55172413793105,78.89265940346493 434.48275862068965,78.67833541703878 452.41379310344826,78.24968744418649 470.3448275862069,77.92820146454727 488.2758620689655,62.925522414716944 506.2068965517241,62.7111984282908 524.1379310344828,62.443293445258114 542.0689655172414,62.17538846222543 560.0,61.42525450973391 560,120" fill="url(#areaGrad)" />
    
    <!-- X-Axis -->
    <line x1="40" y1="120" x2="560" y2="120" stroke="#888" stroke-width="2" />
    
    <!-- Growth Line -->
    <polyline points="40.0,91.59135559921417 57.93103448275862,91.0555456331488 75.86206896551724,90.89480264332919 93.79310344827587,90.4661546704769 111.72413793103448,90.09108769423113 129.6551724137931,89.876763707805 147.58620689655174,88.32291480621542 165.51724137931035,88.0014288265762 183.44827586206895,87.67994284693698 201.3793103448276,87.41203786390429 219.31034482758622,87.25129487408469 237.24137931034483,85.85818896231473 255.17241379310346,84.3579210573317 273.1034482758621,80.98231827111988 291.0344827586207,80.60725129487412 308.9655172413793,80.23218431862836 326.8965517241379,80.12502232541527 344.82758620689657,79.74995534916951 362.7586206896552,79.53563136274337 380.6896551724138,79.32130737631722 398.62068965517244,79.21414538310415 416.55172413793105,78.89265940346493 434.48275862068965,78.67833541703878 452.41379310344826,78.24968744418649 470.3448275862069,77.92820146454727 488.2758620689655,62.925522414716944 506.2068965517241,62.7111984282908 524.1379310344828,62.443293445258114 542.0689655172414,62.17538846222543 560.0,61.42525450973391" fill="none" stroke="#00f2fe" stroke-width="4" stroke-linecap="round" stroke-linejoin="round" />
    
    <!-- End Point -->
    <circle cx="560.0" cy="61.42525450973391" r="6" fill="#fff" stroke="#00f2fe" stroke-width="3" />
    
    <!-- Labels -->
    <text x="560" y="30" font-family="Arial, sans-serif" font-size="20" font-weight="bold" fill="#00f2fe" text-anchor="end">5865 Total Installs</text>
    <text x="40" y="145" font-family="Arial, sans-serif" font-size="12" fill="#888" text-anchor="start">Global Adoption History</text>
    </svg>