<svg width="600" height="150" xmlns="http://www.w3.org/2000/svg">
    <defs>
        <linearGradient id="areaGrad" x1="0%" y1="0%" x2="0%" y2="100%">
            <stop offset="0%" style="stop-color:#4facfe;stop-opacity:0.4" />
            <stop offset="100%" style="stop-color:#4facfe;stop-opacity:0" />
        </linearGradient>
    </defs>
    
    <!-- Area -->
    <polygon points="40,120 40.0,99.88634671695867 57.93103448275862,88.76420666038018 75.86206896551724,83.58280807980546 93.79310344827587,83.35947193409103 111.72413793103448,78.17807335351631 129.6551724137931,76.1233808129436 147.58620689655174,74.42602610551393 165.51724137931035,73.71135043922777 183.44827586206895,73.3540126060847 201.3793103448276,71.34398729465482 219.31034482758622,67.85994342150977 237.24137931034483,64.91190629807932 255.17241379310346,64.50990123579335 273.1034482758621,64.19723063179316 291.0344827586207,63.7505583403643 308.9655172413793,63.61655665293565 326.8965517241379,63.25921881979256 344.82758620689657,62.94654821579236 362.7586206896552,62.76787929922082 380.6896551724138,61.47252965407714 398.62068965517244,61.204526279219834 416.55172413793105,60.93652290436251 434.48275862068965,60.713186758648085 452.41379310344826,60.57918507121943 470.3448275862069,59.417837113504405 488.2758620689655,58.16715469750361 506.2068965517241,55.35311926150183 524.1379310344828,55.04044865750163 542.0689655172414,54.727778053501424 560.0,54.63844359521566 560,120" fill="url(#areaGrad)" />
    
    <!-- X-Axis -->
    <line x1="40" y1="120" x2="560" y2="120" stroke="#888" stroke-width="2" />
    
    <!-- Growth Line -->
    <polyline points="40.0,99.88634671695867 57.93103448275862,88.76420666038018 75.86206896551724,83.58280807980546 93.79310344827587,83.35947193409103 111.72413793103448,78.17807335351631 129.6551724137931,76.1233808129436 147.58620689655174,74.42602610551393 165.51724137931035,73.71135043922777 183.44827586206895,73.3540126060847 201.3793103448276,71.34398729465482 219.31034482758622,67.85994342150977 237.24137931034483,64.91190629807932 255.17241379310346,64.50990123579335 273.1034482758621,64.19723063179316 291.0344827586207,63.7505583403643 308.9655172413793,63.61655665293565 326.8965517241379,63.25921881979256 344.82758620689657,62.94654821579236 362.7586206896552,62.76787929922082 380.6896551724138,61.47252965407714 398.62068965517244,61.204526279219834 416.55172413793105,60.93652290436251 434.48275862068965,60.713186758648085 452.41379310344826,60.57918507121943 470.3448275862069,59.417837113504405 488.2758620689655,58.16715469750361 506.2068965517241,55.35311926150183 524.1379310344828,55.04044865750163 542.0689655172414,54.727778053501424 560.0,54.63844359521566" fill="none" stroke="#00f2fe" stroke-width="4" stroke-linecap="round" stroke-linejoin="round" />
    
    <!-- End Point -->
    <circle cx="560.0" cy="54.63844359521566" r="6" fill="#fff" stroke="#00f2fe" stroke-width="3" />
    
    <!-- Labels -->
    <text x="560" y="30" font-family="Arial, sans-serif" font-size="20" font-weight="bold" fill="#00f2fe" text-anchor="end">5516 Total Installs</text>
    <text x="40" y="145" font-family="Arial, sans-serif" font-size="12" fill="#888" text-anchor="start">Global Adoption History</text>
    </svg>