<svg width="600" height="150" xmlns="http://www.w3.org/2000/svg">
    <defs>
        <linearGradient id="areaGrad" x1="0%" y1="0%" x2="0%" y2="100%">
            <stop offset="0%" style="stop-color:#4facfe;stop-opacity:0.4" />
            <stop offset="100%" style="stop-color:#4facfe;stop-opacity:0" />
        </linearGradient>
    </defs>
    
    <!-- Area -->
    <polygon points="40,120 40.0,115.66206336311942 57.93103448275862,99.75481869876671 75.86206896551724,97.69440957093273 93.79310344827587,97.62794476035744 111.72413793103448,97.53932501292371 129.6551724137931,97.40639539177315 147.58620689655174,96.36511335942694 165.51724137931035,95.16874676907172 183.44827586206895,94.10530979986709 201.3793103448276,93.92807030499964 219.31034482758622,93.92807030499964 237.24137931034483,93.90591536814121 255.17241379310346,92.88678827265343 273.1034482758621,81.41053097998672 291.0344827586207,69.0480762129828 308.9655172413793,61.803411860276206 326.8965517241379,60.09748172217711 344.82758620689657,59.277749058415196 362.7586206896552,53.76116978066614 380.6896551724138,51.191197105088264 398.62068965517244,51.08042242079611 416.55172413793105,48.51044974521824 434.48275862068965,47.49132264973046 452.41379310344826,46.649435049110124 470.3448275862069,46.29495605937525 488.2758620689655,46.117716564507816 506.2068965517241,45.12074440587847 524.1379310344828,43.39265933092092 542.0689655172414,41.93043349826455 560.0,41.73103906653867 560,120" fill="url(#areaGrad)" />
    
    <!-- X-Axis -->
    <line x1="40" y1="120" x2="560" y2="120" stroke="#888" stroke-width="2" />
    
    <!-- Growth Line -->
    <polyline points="40.0,115.66206336311942 57.93103448275862,99.75481869876671 75.86206896551724,97.69440957093273 93.79310344827587,97.62794476035744 111.72413793103448,97.53932501292371 129.6551724137931,97.40639539177315 147.58620689655174,96.36511335942694 165.51724137931035,95.16874676907172 183.44827586206895,94.10530979986709 201.3793103448276,93.92807030499964 219.31034482758622,93.92807030499964 237.24137931034483,93.90591536814121 255.17241379310346,92.88678827265343 273.1034482758621,81.41053097998672 291.0344827586207,69.0480762129828 308.9655172413793,61.803411860276206 326.8965517241379,60.09748172217711 344.82758620689657,59.277749058415196 362.7586206896552,53.76116978066614 380.6896551724138,51.191197105088264 398.62068965517244,51.08042242079611 416.55172413793105,48.51044974521824 434.48275862068965,47.49132264973046 452.41379310344826,46.649435049110124 470.3448275862069,46.29495605937525 488.2758620689655,46.117716564507816 506.2068965517241,45.12074440587847 524.1379310344828,43.39265933092092 542.0689655172414,41.93043349826455 560.0,41.73103906653867" fill="none" stroke="#00f2fe" stroke-width="4" stroke-linecap="round" stroke-linejoin="round" />
    
    <!-- End Point -->
    <circle cx="560.0" cy="41.73103906653867" r="6" fill="#fff" stroke="#00f2fe" stroke-width="3" />
    
    <!-- Labels -->
    <text x="560" y="30" font-family="Arial, sans-serif" font-size="20" font-weight="bold" fill="#00f2fe" text-anchor="end">5295 Total Installs</text>
    <text x="40" y="145" font-family="Arial, sans-serif" font-size="12" fill="#888" text-anchor="start">Global Adoption History</text>
    </svg>