<svg width="600" height="150" xmlns="http://www.w3.org/2000/svg">
    <defs>
        <linearGradient id="areaGrad" x1="0%" y1="0%" x2="0%" y2="100%">
            <stop offset="0%" style="stop-color:#4facfe;stop-opacity:0.4" />
            <stop offset="100%" style="stop-color:#4facfe;stop-opacity:0" />
        </linearGradient>
    </defs>
    
    <!-- Area -->
    <polygon points="40,120 40.0,90.97796848981685 57.93103448275862,88.78762648904831 75.86206896551724,87.86537722556682 93.79310344827587,87.40425259382607 111.72413793103448,84.81042654028437 129.6551724137931,80.3144613808121 147.58620689655174,76.51018316895096 165.51724137931035,75.99141795824262 183.44827586206895,75.58793390546947 201.3793103448276,75.01152811579354 219.31034482758622,74.83860637889076 237.24137931034483,74.37748174715 255.17241379310346,73.97399769437686 273.1034482758621,73.74343537850649 291.0344827586207,72.07185858844628 308.9655172413793,71.72601511464072 326.8965517241379,71.38017164083516 344.82758620689657,71.0919687459972 362.7586206896552,70.91904700909441 380.6896551724138,69.42039195593699 398.62068965517244,67.80645574484438 416.55172413793105,64.17509926988602 434.48275862068965,63.771615217112874 452.41379310344826,63.368131164339715 470.3448275862069,63.25285000640453 488.2758620689655,62.849365953631384 506.2068965517241,62.618803637761005 524.1379310344828,62.38824132189063 542.0689655172414,62.272960163955446 560.0,61.92711669014989 560,120" fill="url(#areaGrad)" />
    
    <!-- X-Axis -->
    <line x1="40" y1="120" x2="560" y2="120" stroke="#888" stroke-width="2" />
    
    <!-- Growth Line -->
    <polyline points="40.0,90.97796848981685 57.93103448275862,88.78762648904831 75.86206896551724,87.86537722556682 93.79310344827587,87.40425259382607 111.72413793103448,84.81042654028437 129.6551724137931,80.3144613808121 147.58620689655174,76.51018316895096 165.51724137931035,75.99141795824262 183.44827586206895,75.58793390546947 201.3793103448276,75.01152811579354 219.31034482758622,74.83860637889076 237.24137931034483,74.37748174715 255.17241379310346,73.97399769437686 273.1034482758621,73.74343537850649 291.0344827586207,72.07185858844628 308.9655172413793,71.72601511464072 326.8965517241379,71.38017164083516 344.82758620689657,71.0919687459972 362.7586206896552,70.91904700909441 380.6896551724138,69.42039195593699 398.62068965517244,67.80645574484438 416.55172413793105,64.17509926988602 434.48275862068965,63.771615217112874 452.41379310344826,63.368131164339715 470.3448275862069,63.25285000640453 488.2758620689655,62.849365953631384 506.2068965517241,62.618803637761005 524.1379310344828,62.38824132189063 542.0689655172414,62.272960163955446 560.0,61.92711669014989" fill="none" stroke="#00f2fe" stroke-width="4" stroke-linecap="round" stroke-linejoin="round" />
    
    <!-- End Point -->
    <circle cx="560.0" cy="61.92711669014989" r="6" fill="#fff" stroke="#00f2fe" stroke-width="3" />
    
    <!-- Labels -->
    <text x="560" y="30" font-family="Arial, sans-serif" font-size="20" font-weight="bold" fill="#00f2fe" text-anchor="end">5539 Total Installs</text>
    <text x="40" y="145" font-family="Arial, sans-serif" font-size="12" fill="#888" text-anchor="start">Global Adoption History</text>
    </svg>