<svg width="600" height="150" xmlns="http://www.w3.org/2000/svg">
    <defs>
        <linearGradient id="areaGrad" x1="0%" y1="0%" x2="0%" y2="100%">
            <stop offset="0%" style="stop-color:#4facfe;stop-opacity:0.4" />
            <stop offset="100%" style="stop-color:#4facfe;stop-opacity:0" />
        </linearGradient>
    </defs>
    
    <!-- Area -->
    <polygon points="40,120 40.0,89.92723220138981 57.93103448275862,87.27219090074738 75.86206896551724,82.67011931296712 93.79310344827587,78.77605873869152 111.72413793103448,78.24505047856303 129.6551724137931,77.83204405401864 147.58620689655174,77.2420348760981 165.51724137931035,77.06503212272193 183.44827586206895,76.59302478038549 201.3793103448276,76.18001835584113 219.31034482758622,75.9440146846729 237.24137931034483,74.23298806870332 255.17241379310346,73.878982561951 273.1034482758621,73.52497705519866 291.0344827586207,73.2299724662384 308.9655172413793,73.05296971286222 326.8965517241379,71.5189458502688 344.82758620689657,69.86692015209128 362.7586206896552,66.14986233119185 380.6896551724138,65.73685590664746 398.62068965517244,65.32384948210309 416.55172413793105,65.20584764651898 434.48275862068965,64.79284122197458 452.41379310344826,64.55683755080636 470.3448275862069,64.32083387963816 488.2758620689655,64.20283204405405 506.2068965517241,63.848826537301726 524.1379310344828,63.612822866133506 542.0689655172414,63.140815523797066 560.0,62.786810017044736 560,120" fill="url(#areaGrad)" />
    
    <!-- X-Axis -->
    <line x1="40" y1="120" x2="560" y2="120" stroke="#888" stroke-width="2" />
    
    <!-- Growth Line -->
    <polyline points="40.0,89.92723220138981 57.93103448275862,87.27219090074738 75.86206896551724,82.67011931296712 93.79310344827587,78.77605873869152 111.72413793103448,78.24505047856303 129.6551724137931,77.83204405401864 147.58620689655174,77.2420348760981 165.51724137931035,77.06503212272193 183.44827586206895,76.59302478038549 201.3793103448276,76.18001835584113 219.31034482758622,75.9440146846729 237.24137931034483,74.23298806870332 255.17241379310346,73.878982561951 273.1034482758621,73.52497705519866 291.0344827586207,73.2299724662384 308.9655172413793,73.05296971286222 326.8965517241379,71.5189458502688 344.82758620689657,69.86692015209128 362.7586206896552,66.14986233119185 380.6896551724138,65.73685590664746 398.62068965517244,65.32384948210309 416.55172413793105,65.20584764651898 434.48275862068965,64.79284122197458 452.41379310344826,64.55683755080636 470.3448275862069,64.32083387963816 488.2758620689655,64.20283204405405 506.2068965517241,63.848826537301726 524.1379310344828,63.612822866133506 542.0689655172414,63.140815523797066 560.0,62.786810017044736" fill="none" stroke="#00f2fe" stroke-width="4" stroke-linecap="round" stroke-linejoin="round" />
    
    <!-- End Point -->
    <circle cx="560.0" cy="62.786810017044736" r="6" fill="#fff" stroke="#00f2fe" stroke-width="3" />
    
    <!-- Labels -->
    <text x="560" y="30" font-family="Arial, sans-serif" font-size="20" font-weight="bold" fill="#00f2fe" text-anchor="end">5557 Total Installs</text>
    <text x="40" y="145" font-family="Arial, sans-serif" font-size="12" fill="#888" text-anchor="start">Global Adoption History</text>
    </svg>