<svg width="600" height="150" xmlns="http://www.w3.org/2000/svg">
    <defs>
        <linearGradient id="areaGrad" x1="0%" y1="0%" x2="0%" y2="100%">
            <stop offset="0%" style="stop-color:#4facfe;stop-opacity:0.4" />
            <stop offset="100%" style="stop-color:#4facfe;stop-opacity:0" />
        </linearGradient>
    </defs>
    
    <!-- Area -->
    <polygon points="40,120 40.0,119.63239048299806 80.0,114.57775962422139 120.0,109.33932400694374 160.0,104.56040028591852 200.0,99.16879403655673 240.0,96.10538139487389 280.0,92.85816399469009 320.0,79.56295312978658 360.0,70.58715408965588 400.0,68.25896048197691 440.0,65.04237720820996 480.0,63.32686612886756 520.0,41.3315633615848 560.0,38.482589604819765 560,120" fill="url(#areaGrad)" />
    
    <!-- X-Axis -->
    <line x1="40" y1="120" x2="560" y2="120" stroke="#888" stroke-width="2" />
    
    <!-- Growth Line -->
    <polyline points="40.0,119.63239048299806 80.0,114.57775962422139 120.0,109.33932400694374 160.0,104.56040028591852 200.0,99.16879403655673 240.0,96.10538139487389 280.0,92.85816399469009 320.0,79.56295312978658 360.0,70.58715408965588 400.0,68.25896048197691 440.0,65.04237720820996 480.0,63.32686612886756 520.0,41.3315633615848 560.0,38.482589604819765" fill="none" stroke="#00f2fe" stroke-width="4" stroke-linecap="round" stroke-linejoin="round" />
    
    <!-- End Point -->
    <circle cx="560.0" cy="38.482589604819765" r="6" fill="#fff" stroke="#00f2fe" stroke-width="3" />
    
    <!-- Labels -->
    <text x="560" y="30" font-family="Arial, sans-serif" font-size="20" font-weight="bold" fill="#00f2fe" text-anchor="end">2769 Total Installs</text>
    <text x="40" y="145" font-family="Arial, sans-serif" font-size="12" fill="#888" text-anchor="start">Global Adoption History</text>
    </svg>