<svg width="600" height="150" xmlns="http://www.w3.org/2000/svg">
    <defs>
        <linearGradient id="areaGrad" x1="0%" y1="0%" x2="0%" y2="100%">
            <stop offset="0%" style="stop-color:#4facfe;stop-opacity:0.4" />
            <stop offset="100%" style="stop-color:#4facfe;stop-opacity:0" />
        </linearGradient>
    </defs>
    
    <!-- Area -->
    <polygon points="40,120 40.0,119.75230494014036 60.8,116.34649786707033 81.6,112.81684326407046 102.4,109.59680748589514 123.2,105.96394660795377 144.0,103.89982110912344 164.8,101.7118480803633 185.6,92.75354341543967 206.4,86.7056557038668 227.2,85.13692032475575 248.0,82.9695885509839 268.8,81.81367827163892 289.6,66.99325719003716 310.4,65.07362047612494 331.2,65.01169671116006 352.0,64.92913169120683 372.8,64.80528416127702 393.6,63.83514517682676 414.4,62.72051740745839 435.2,61.729737168019824 456.0,61.5646071281134 476.8,61.5646071281134 497.6,61.5439658731251 518.4,60.59446814366314 539.2,49.90229805972204 560.0,38.384477776248815 560,120" fill="url(#areaGrad)" />
    
    <!-- X-Axis -->
    <line x1="40" y1="120" x2="560" y2="120" stroke="#888" stroke-width="2" />
    
    <!-- Growth Line -->
    <polyline points="40.0,119.75230494014036 60.8,116.34649786707033 81.6,112.81684326407046 102.4,109.59680748589514 123.2,105.96394660795377 144.0,103.89982110912344 164.8,101.7118480803633 185.6,92.75354341543967 206.4,86.7056557038668 227.2,85.13692032475575 248.0,82.9695885509839 268.8,81.81367827163892 289.6,66.99325719003716 310.4,65.07362047612494 331.2,65.01169671116006 352.0,64.92913169120683 372.8,64.80528416127702 393.6,63.83514517682676 414.4,62.72051740745839 435.2,61.729737168019824 456.0,61.5646071281134 476.8,61.5646071281134 497.6,61.5439658731251 518.4,60.59446814366314 539.2,49.90229805972204 560.0,38.384477776248815" fill="none" stroke="#00f2fe" stroke-width="4" stroke-linecap="round" stroke-linejoin="round" />
    
    <!-- End Point -->
    <circle cx="560.0" cy="38.384477776248815" r="6" fill="#fff" stroke="#00f2fe" stroke-width="3" />
    
    <!-- Labels -->
    <text x="560" y="30" font-family="Arial, sans-serif" font-size="20" font-weight="bold" fill="#00f2fe" text-anchor="end">4062 Total Installs</text>
    <text x="40" y="145" font-family="Arial, sans-serif" font-size="12" fill="#888" text-anchor="start">Global Adoption History</text>
    </svg>