<svg width="600" height="150" xmlns="http://www.w3.org/2000/svg">
    <defs>
        <linearGradient id="areaGrad" x1="0%" y1="0%" x2="0%" y2="100%">
            <stop offset="0%" style="stop-color:#4facfe;stop-opacity:0.4" />
            <stop offset="100%" style="stop-color:#4facfe;stop-opacity:0" />
        </linearGradient>
    </defs>
    
    <!-- Area -->
    <polygon points="40,120 40.0,119.78902953586498 57.93103448275862,116.88818565400844 75.86206896551724,113.88185654008439 93.79310344827587,111.13924050632912 111.72413793103448,108.0450070323488 129.6551724137931,106.28691983122363 147.58620689655174,104.42334739803094 165.51724137931035,96.79324894514768 183.44827586206895,91.64205344585092 201.3793103448276,90.30590717299579 219.31034482758622,88.45991561181435 237.24137931034483,87.47538677918425 255.17241379310346,74.85232067510549 273.1034482758621,73.21729957805908 291.0344827586207,73.16455696202533 308.9655172413793,73.09423347398031 326.8965517241379,72.98874824191282 344.82758620689657,72.16244725738397 362.7586206896552,71.21308016877637 380.6896551724138,70.36919831223629 398.62068965517244,70.22855133614628 416.55172413793105,70.22855133614628 434.48275862068965,70.21097046413503 452.41379310344826,69.40225035161745 470.3448275862069,60.29535864978904 488.2758620689655,50.48523206751055 506.2068965517241,44.73628691983123 524.1379310344828,43.38255977496485 542.0689655172414,42.73206751054853 560.0,38.354430379746844 560,120" fill="url(#areaGrad)" />
    
    <!-- X-Axis -->
    <line x1="40" y1="120" x2="560" y2="120" stroke="#888" stroke-width="2" />
    
    <!-- Growth Line -->
    <polyline points="40.0,119.78902953586498 57.93103448275862,116.88818565400844 75.86206896551724,113.88185654008439 93.79310344827587,111.13924050632912 111.72413793103448,108.0450070323488 129.6551724137931,106.28691983122363 147.58620689655174,104.42334739803094 165.51724137931035,96.79324894514768 183.44827586206895,91.64205344585092 201.3793103448276,90.30590717299579 219.31034482758622,88.45991561181435 237.24137931034483,87.47538677918425 255.17241379310346,74.85232067510549 273.1034482758621,73.21729957805908 291.0344827586207,73.16455696202533 308.9655172413793,73.09423347398031 326.8965517241379,72.98874824191282 344.82758620689657,72.16244725738397 362.7586206896552,71.21308016877637 380.6896551724138,70.36919831223629 398.62068965517244,70.22855133614628 416.55172413793105,70.22855133614628 434.48275862068965,70.21097046413503 452.41379310344826,69.40225035161745 470.3448275862069,60.29535864978904 488.2758620689655,50.48523206751055 506.2068965517241,44.73628691983123 524.1379310344828,43.38255977496485 542.0689655172414,42.73206751054853 560.0,38.354430379746844" fill="none" stroke="#00f2fe" stroke-width="4" stroke-linecap="round" stroke-linejoin="round" />
    
    <!-- End Point -->
    <circle cx="560.0" cy="38.354430379746844" r="6" fill="#fff" stroke="#00f2fe" stroke-width="3" />
    
    <!-- Labels -->
    <text x="560" y="30" font-family="Arial, sans-serif" font-size="20" font-weight="bold" fill="#00f2fe" text-anchor="end">4752 Total Installs</text>
    <text x="40" y="145" font-family="Arial, sans-serif" font-size="12" fill="#888" text-anchor="start">Global Adoption History</text>
    </svg>