<svg width="600" height="150" xmlns="http://www.w3.org/2000/svg">
    <defs>
        <linearGradient id="areaGrad" x1="0%" y1="0%" x2="0%" y2="100%">
            <stop offset="0%" style="stop-color:#4facfe;stop-opacity:0.4" />
            <stop offset="100%" style="stop-color:#4facfe;stop-opacity:0" />
        </linearGradient>
    </defs>
    
    <!-- Area -->
    <polygon points="40,120 40.0,82.74711696869852 57.93103448275862,82.37644151565075 75.86206896551724,81.82042833607909 93.79310344827587,81.07907742998353 111.72413793103448,79.9670510708402 129.6551724137931,79.84349258649095 147.58620689655174,79.10214168039539 165.51724137931035,78.4843492586491 183.44827586206895,78.23723228995058 201.3793103448276,77.74299835255354 219.31034482758622,77.24876441515651 237.24137931034483,77.001647446458 255.17241379310346,76.87808896210873 273.1034482758621,76.50741350906097 291.0344827586207,76.13673805601319 308.9655172413793,75.39538714991764 326.8965517241379,74.96293245469522 344.82758620689657,74.40691927512357 362.7586206896552,74.09802306425041 380.6896551724138,73.54200988467875 398.62068965517244,72.73887973640856 416.55172413793105,72.3682042833608 434.48275862068965,71.87397034596376 452.41379310344826,71.13261943986821 470.3448275862069,70.5148270181219 488.2758620689655,70.39126853377266 506.2068965517241,70.14415156507414 524.1379310344828,69.40280065897859 542.0689655172414,69.03212520593081 560.0,68.66144975288304 560,120" fill="url(#areaGrad)" />
    
    <!-- X-Axis -->
    <line x1="40" y1="120" x2="560" y2="120" stroke="#888" stroke-width="2" />
    
    <!-- Growth Line -->
    <polyline points="40.0,82.74711696869852 57.93103448275862,82.37644151565075 75.86206896551724,81.82042833607909 93.79310344827587,81.07907742998353 111.72413793103448,79.9670510708402 129.6551724137931,79.84349258649095 147.58620689655174,79.10214168039539 165.51724137931035,78.4843492586491 183.44827586206895,78.23723228995058 201.3793103448276,77.74299835255354 219.31034482758622,77.24876441515651 237.24137931034483,77.001647446458 255.17241379310346,76.87808896210873 273.1034482758621,76.50741350906097 291.0344827586207,76.13673805601319 308.9655172413793,75.39538714991764 326.8965517241379,74.96293245469522 344.82758620689657,74.40691927512357 362.7586206896552,74.09802306425041 380.6896551724138,73.54200988467875 398.62068965517244,72.73887973640856 416.55172413793105,72.3682042833608 434.48275862068965,71.87397034596376 452.41379310344826,71.13261943986821 470.3448275862069,70.5148270181219 488.2758620689655,70.39126853377266 506.2068965517241,70.14415156507414 524.1379310344828,69.40280065897859 542.0689655172414,69.03212520593081 560.0,68.66144975288304" fill="none" stroke="#00f2fe" stroke-width="4" stroke-linecap="round" stroke-linejoin="round" />
    
    <!-- End Point -->
    <circle cx="560.0" cy="68.66144975288304" r="6" fill="#fff" stroke="#00f2fe" stroke-width="3" />
    
    <!-- Labels -->
    <text x="560" y="30" font-family="Arial, sans-serif" font-size="20" font-weight="bold" fill="#00f2fe" text-anchor="end">6258 Total Installs</text>
    <text x="40" y="145" font-family="Arial, sans-serif" font-size="12" fill="#888" text-anchor="start">Global Adoption History</text>
    </svg>