<svg width="600" height="150" xmlns="http://www.w3.org/2000/svg">
    <defs>
        <linearGradient id="areaGrad" x1="0%" y1="0%" x2="0%" y2="100%">
            <stop offset="0%" style="stop-color:#4facfe;stop-opacity:0.4" />
            <stop offset="100%" style="stop-color:#4facfe;stop-opacity:0" />
        </linearGradient>
    </defs>
    
    <!-- Area -->
    <polygon points="40,120 40.0,119.4220581152673 97.77777777777777,111.47535720019265 155.55555555555554,103.23968534275164 213.33333333333334,95.72644084122652 271.1111111111111,87.2499598651469 328.8888888888889,82.43377749237439 386.6666666666667,77.32862417723553 444.44444444444446,56.4263926794028 502.22222222222223,42.31497832717933 560.0,38.65467972387222 560,120" fill="url(#areaGrad)" />
    
    <!-- X-Axis -->
    <line x1="40" y1="120" x2="560" y2="120" stroke="#888" stroke-width="2" />
    
    <!-- Growth Line -->
    <polyline points="40.0,119.4220581152673 97.77777777777777,111.47535720019265 155.55555555555554,103.23968534275164 213.33333333333334,95.72644084122652 271.1111111111111,87.2499598651469 328.8888888888889,82.43377749237439 386.6666666666667,77.32862417723553 444.44444444444446,56.4263926794028 502.22222222222223,42.31497832717933 560.0,38.65467972387222" fill="none" stroke="#00f2fe" stroke-width="4" stroke-linecap="round" stroke-linejoin="round" />
    
    <!-- End Point -->
    <circle cx="560.0" cy="38.65467972387222" r="6" fill="#fff" stroke="#00f2fe" stroke-width="3" />
    
    <!-- Labels -->
    <text x="560" y="30" font-family="Arial, sans-serif" font-size="20" font-weight="bold" fill="#00f2fe" text-anchor="end">1797 Total Installs</text>
    <text x="40" y="145" font-family="Arial, sans-serif" font-size="12" fill="#888" text-anchor="start">Global Adoption History</text>
    </svg>